<?xml version="1.0" encoding="iso-8859-1"?>
<!DOCTYPE svg PUBLIC "-//W3C//DTD SVG 1.1//EN" "http://www.w3.org/Graphics/SVG/1.1/DTD/svg11.dtd">
<svg 
 version="1.1" xmlns="http://www.w3.org/2000/svg" xmlns:xlink="http://www.w3.org/1999/xlink" x="0px" y="0px" width="512px"
	 height="512px" viewBox="0 0 512 512" style="enable-background:new 0 0 512 512;" xml:space="preserve"
><g id="afcae5a789ccd549f9c6e2a2f812fc57"><g></g><g fill="#f27225"><path style="display: inline; fill-rule: evenodd; clip-rule: evenodd;" d="M382.303,0.5H256.002H129.697
		c-7.172,0-12.992,5.816-12.992,12.988v485.017c0,7.179,5.819,12.995,12.992,12.995h126.305h126.301
		c7.176,0,12.992-5.816,12.992-12.995V13.488C395.295,6.316,389.479,0.5,382.303,0.5z M227.919,41.854h28.083h28.08v11.812h-28.08
		h-28.083V41.854z M256.002,490.803c-15.545-0.234-28.083-12.028-28.083-26.562c0-14.541,12.538-26.332,28.083-26.563
		c15.545,0.23,28.08,12.021,28.08,26.563C284.082,478.774,271.547,490.568,256.002,490.803z M371.672,429.777h-115.67H140.328
		V82.219h115.674h115.67V429.777z M268.814,463.684c0,7.075-5.734,12.809-12.813,12.809c-7.076,0-12.81-5.733-12.81-12.809
		c0-7.076,5.733-12.81,12.81-12.81C263.08,450.874,268.814,456.607,268.814,463.684z"></path></g></g></svg>