<?xml version="1.0" encoding="iso-8859-1"?>
<!DOCTYPE svg PUBLIC "-//W3C//DTD SVG 1.1//EN" "http://www.w3.org/Graphics/SVG/1.1/DTD/svg11.dtd">
<svg 
 version="1.1" xmlns="http://www.w3.org/2000/svg" xmlns:xlink="http://www.w3.org/1999/xlink" x="0px" y="0px" width="512px"
	 height="512px" viewBox="0 0 512 512" style="enable-background:new 0 0 512 512;" xml:space="preserve"
><g id="9f7e7d65bebc9157b4431a86ec0d8604"><g></g><g fill="#68708a"><path style="display: inline;" d="M483.111,141.498v351.076c0,10.409-8.518,18.926-18.927,18.926H104.593
		c-10.409,0-18.926-8.517-18.926-18.926v-79.016h37.852v60.09h321.74V151.907h-86.109c-15.096,0-27.446-12.352-27.446-27.446V38.352
		H123.519v170.333H85.667V19.426c0-10.409,8.517-18.926,18.926-18.926h236.101v0.065c3.017,0.279,6.587,2.24,10.42,6.071
		l125.861,125.861c3.246,3.246,5.153,6.307,5.833,9.001H483.111z M369.556,246.537v129.17c0,10.408-8.517,18.926-18.927,18.926
		H47.814c-10.409,0-18.926-8.518-18.926-18.926v-129.17c0-10.409,8.517-18.926,18.926-18.926h302.814
		C361.039,227.611,369.556,236.128,369.556,246.537z M154.46,351.166c0-0.998-0.32-2.089-0.954-3.271l-23.574-38.425l22.758-38.292
		c0.816-1.36,1.225-2.632,1.225-3.814c0-2.27-1.205-4.226-3.609-5.861c-2.408-1.634-4.976-2.452-7.699-2.452
		c-2.546,0-4.543,1.273-5.996,3.818l-18.532,33.383l-18.532-33.383c-1.362-2.545-3.317-3.818-5.859-3.818
		c-2.726,0-5.293,0.818-7.699,2.452c-2.408,1.636-3.612,3.592-3.612,5.861c0,1.183,0.409,2.454,1.228,3.814l22.755,38.292
		l-23.574,38.425c-0.728,1.275-1.09,2.365-1.09,3.271c0,2.361,1.295,4.428,3.885,6.199c2.589,1.773,5.155,2.66,7.698,2.66
		c2.181,0,3.816-0.953,4.907-2.864l19.895-35.021l20.031,35.021c0.998,1.911,2.589,2.864,4.769,2.864
		c2.634,0,5.223-0.887,7.768-2.66C153.187,355.594,154.46,353.527,154.46,351.166z M234.445,351.576
		c0-2.092-0.477-3.904-1.431-5.453c-0.953-1.541-2.247-2.316-3.883-2.316h-33.25v-78.625c0-1.818-0.862-3.179-2.589-4.088
		c-1.727-0.907-3.814-1.362-6.268-1.362c-2.452,0-4.543,0.455-6.268,1.362c-1.728,0.909-2.589,2.27-2.589,4.088v88.575
		c0,1.723,0.771,3.091,2.315,4.089c1.544,0.998,3.36,1.496,5.45,1.496h43.197c1.636,0,2.93-0.771,3.883-2.317
		C233.969,355.479,234.445,353.668,234.445,351.576z M316.751,331.408c0-5.541-1.09-10.38-3.271-14.513
		c-2.181-4.132-4.883-7.289-8.106-9.47c-3.227-2.182-6.724-4.199-10.494-6.063s-7.267-3.408-10.49-4.636
		c-3.227-1.228-5.929-2.816-8.11-4.769c-2.181-1.951-3.268-4.247-3.268-6.883c0-3.268,1.338-5.832,4.019-7.695
		c2.68-1.863,6.473-2.795,11.377-2.795c4.451,0,8.495,0.865,12.129,2.588c3.633,1.727,5.862,2.587,6.676,2.587
		c2.181,0,3.907-1.079,5.183-3.237c1.268-2.163,1.907-4.256,1.907-6.277c0-2.147-0.936-4.014-2.795-5.596
		c-1.863-1.586-4.273-2.754-7.223-3.501c-2.954-0.745-5.744-1.281-8.38-1.61c-2.636-0.324-5.135-0.489-7.497-0.489
		c-4.181,0-8.128,0.485-11.854,1.452c-3.726,0.969-7.223,2.492-10.49,4.565c-3.271,2.073-5.885,4.979-7.837,8.713
		c-1.955,3.733-2.929,8.044-2.929,12.931c0,4.361,0.793,8.246,2.384,11.65c1.588,3.408,3.68,6.133,6.268,8.177
		s5.448,3.886,8.583,5.519c3.135,1.638,6.247,3.117,9.337,4.433c3.087,1.315,5.93,2.677,8.518,4.085
		c2.587,1.408,4.676,3.182,6.269,5.314c1.586,2.133,2.381,4.565,2.381,7.29c0,3.907-1.453,6.86-4.358,8.86
		c-2.909,1.996-6.539,2.994-10.9,2.994c-3.18,0-6.089-0.565-8.724-1.7c-2.632-1.132-4.654-2.381-6.063-3.749
		c-1.408-1.367-2.861-2.62-4.362-3.752c-1.497-1.135-2.839-1.699-4.018-1.699c-2,0-3.795,1.068-5.382,3.205
		c-1.592,2.133-2.387,4.242-2.387,6.335c0,4.177,3.089,8.036,9.266,11.581c6.181,3.545,13.581,5.315,22.216,5.315
		c9.718,0,17.551-2.532,23.502-7.593S316.751,340.723,316.751,331.408z"></path></g></g></svg>