<svg xmlns="http://www.w3.org/2000/svg" viewBox="0 0 512.001 512.001" style="enable-background:new 0 0 512.001 512.001" xml:space="preserve"><g fill="#687089"><path d="M504.501 187.277a7.499 7.499 0 0 0-7.5 7.5v18.475c0 7.984-6.496 14.481-14.481 14.481-8.08 0-14.482-6.628-14.482-14.481.028-114.853-.066-107.866.073-109.267.716-7.205 6.825-13.05 14.41-13.05 7.984 0 14.481 6.496 14.481 14.481v54.358a7.497 7.497 0 0 0 7.498 7.501c4.143 0 7.5-3.357 7.5-7.5v-54.359c0-16.257-13.226-29.482-29.482-29.482-12.079 0-22.479 7.303-27.03 17.725-7.44-.631-17.363 2.274-28.066-5.66-13.617-10.098-30.634-15.889-46.685-15.889l-96.292.001c-23.526 0-35.747 27.545-20.444 45.177-11.927 9.325-13.916 26.33-4.824 38.087-.078.1-15.358 9.181-11.938 27.708a27.116 27.116 0 0 0 7.595 14.433c-18.376 16.6-6.663 47.322 18.19 47.322h50.598c-17.674 32.319-16.502 64.987-16.295 68.817 1.58 29.247 35.414 39.715 49.492 13.898 3.776-6.925 5.022-15.144 6.226-22.962 2.632-10.81 10.651-30.265 34.886-41.765 8.693-2.797 17.38-7.34 25.156-13.159 5.602-4.193 10.199-9.854 13.295-16.369 5.128-10.796 17.077-8.031 19.044-8.423 4.519 10.493 14.96 17.859 27.092 17.859 16.257 0 29.482-13.226 29.482-29.482v-18.475a7.497 7.497 0 0 0-7.499-7.5zm-54.792 22.597c-11.426 0-21.975 6.668-26.877 16.987-2.054 4.323-5.074 8.057-8.734 10.796-11.26 8.427-20.75 10.754-22.085 11.376-30.502 14.242-40.427 38.924-43.63 52.369-.5 2.093-1.458 12.963-4.734 18.97-6.901 12.66-20.594 6.332-21.342-7.526-.194-3.592-1.348-35.967 17.682-66.275 4.542-7.234-.645-16.734-9.267-16.734h-57.698c-6.707 0-12.164-5.456-12.164-12.163s5.456-12.164 12.164-12.164c16.668-.034-4.538-.104 7.692-.104 4.143 0 7.5-3.357 7.5-7.5s-3.357-7.5-7.5-7.5h-6.709c-5.394 0-10.664-3.533-12.025-10.097-.773-4.397 1.221-7.585 1.53-8.367l1.248-1.726 1.188-1.198c.636-.551 2.203-1.559 2.103-1.491 2.334-.9 3.43-1.551 5.955-1.551h6.708a7.5 7.5 0 0 0 7.5-7.5 7.5 7.5 0 0 0-7.499-7.5c-13.096-.002-17.006-18.134-4.891-23.41 3.221-1.405 5.358-.923 8.617-1.021a7.5 7.5 0 0 0 .175-14.998c-1.375-.027-.652-.026-1.485-.073l-2.157-.432-.623-.202-3.012-1.577-1.575-1.341-1.516-1.865c-.048-.109-2.484-3.492-1.932-8.161.916-6.621 6.269-10.781 12.128-10.781l96.292-.001c12.713 0 26.825 4.836 37.75 12.939 15.16 11.239 29.562 8.06 34.547 8.611v101.214h-3.324zM257.164 314.486c18.377-16.594 6.669-47.322-18.188-47.322h-50.598c17.674-32.319 16.502-64.987 16.295-68.818-1.588-29.362-35.458-39.63-49.492-13.897-3.776 6.925-5.021 15.144-6.226 22.962-2.632 10.81-10.651 30.265-34.886 41.765-8.692 2.796-17.378 7.338-25.157 13.159-5.602 4.193-10.199 9.855-13.294 16.369-5.128 10.796-17.077 8.031-19.044 8.424-4.519-10.494-14.96-17.86-27.091-17.86C13.226 269.265 0 282.492 0 298.749v11.596c0 4.143 3.357 7.5 7.5 7.5s7.5-3.357 7.5-7.5v-11.596c0-7.985 6.496-14.482 14.482-14.482 8.146 0 14.482 6.704 14.482 14.482v107.836c0 7.804-6.359 14.481-14.482 14.481-7.984 0-14.482-6.496-14.482-14.481v-61.238c0-4.143-3.357-7.5-7.5-7.5s-7.5 3.357-7.5 7.5v61.238c0 16.257 13.226 29.482 29.483 29.482 12.079 0 22.479-7.303 27.03-17.725 7.44.631 17.363-2.274 28.066 5.66 13.617 10.098 30.634 15.889 46.685 15.889h42.084c4.143 0 7.5-3.357 7.5-7.5s-3.357-7.5-7.5-7.5h-42.084c-12.713 0-26.825-4.836-37.75-12.939-15.16-11.239-29.562-8.06-34.547-8.611V302.126h3.325c11.426 0 21.975-6.668 26.877-16.987 2.054-4.323 5.074-8.057 8.733-10.797 11.263-8.427 20.751-10.753 22.086-11.375 30.502-14.242 40.427-38.924 43.63-52.369a7.1 7.1 0 0 0 .116-.595c.906-5.886 1.945-13.474 4.618-18.375 6.917-12.692 20.594-6.299 21.342 7.526.194 3.592 1.348 35.967-17.682 66.275-4.542 7.234.645 16.734 9.267 16.734h57.698c6.707 0 12.164 5.456 12.164 12.163 0 6.706-5.456 12.163-12.164 12.163h-5.66c-.26 0-.52.014-.778.04-.097.011-.194.016-.293.022l-.326.025c-.21.011-.422.017-.635.017-4.143 0-7.5 3.357-7.5 7.5s3.357 7.5 7.5 7.5h6.709c5.394 0 10.665 3.533 12.026 10.098 1.016 5.69-2.365 9.466-2.411 9.646l-1.146 1.268-.41.378c-.634.549-2.071 1.482-1.971 1.414-3.716 2.138-7.489 1.624-12.796 1.628a7.5 7.5 0 0 0-7.5 7.5 7.5 7.5 0 0 0 7.499 7.5c13.226.002 17.138 18.534 4.459 23.587-3.22 1.255-5.326.712-8.185.844a7.5 7.5 0 0 0-.175 14.998c3.023.075 5.194 1.072 5.094 1.036 1.803.854 3.188 2.04 3.048 1.929 8.481 7.42 3.439 21.467-7.969 21.467h-19.206c-4.143 0-7.5 3.357-7.5 7.5s3.357 7.5 7.5 7.5h19.206c13.158 0 24.417-9.39 26.778-22.363-.039-.167 2.972-12.098-6.333-22.813 11.962-9.352 13.893-26.356 4.825-38.087 14.318-9.24 16.791-29.79 4.337-42.137z"/></g></svg>