<svg width="24" height="24" viewBox="0 0 24 24" fill="none" xmlns="http://www.w3.org/2000/svg">
<path d="M23.1867 10.7482C22.7366 10.7482 22.3683 10.4107 22.3683 9.99824C22.3683 7.12481 21.1509 4.42949 18.931 2.39512C18.6138 2.10449 18.6138 1.62637 18.931 1.33574C19.2532 1.04043 19.7698 1.04043 20.087 1.33574C22.6087 3.65137 24 6.72637 24 9.99824C24.0051 10.4154 23.642 10.7482 23.1867 10.7482Z" fill="white"/>
<path d="M0.818413 10.7484C0.368286 10.7484 0 10.4109 0 9.99839C0 6.72651 1.3913 3.65151 3.91303 1.33589C4.23528 1.04526 4.75191 1.04526 5.06904 1.33589C5.38618 1.6312 5.38618 2.10464 5.06904 2.39526C2.85933 4.42964 1.63683 7.12964 1.63683 9.99839C1.63683 10.4156 1.26854 10.7484 0.818413 10.7484Z" fill="white"/>
<path d="M12.0051 24C9.7494 24 7.91309 22.3172 7.91309 20.25C7.91309 19.8375 8.28137 19.5 8.7315 19.5C9.18163 19.5 9.54991 19.8375 9.54991 20.25C9.54991 21.4922 10.6497 22.5 12.0051 22.5C13.3606 22.5 14.4604 21.4922 14.4604 20.25C14.4604 19.8375 14.8287 19.5 15.2788 19.5C15.7289 19.5 16.0972 19.8375 16.0972 20.25C16.0972 22.3172 14.2609 24 12.0051 24Z" fill="white"/>
<path d="M21.0077 21H3.00265C1.94894 21 1.09473 20.2172 1.09473 19.2516C1.09473 18.7406 1.34025 18.2531 1.7648 17.9203C3.42209 16.6359 4.36838 14.7656 4.36838 12.7875V9.99844C4.36326 6.14062 7.79036 3 12.0052 3C16.2149 3 19.642 6.14062 19.642 9.99844V12.7875C19.642 14.7656 20.5883 16.6359 22.2353 17.9109C22.6701 18.2531 22.9156 18.7359 22.9156 19.2469C22.9156 20.2172 22.0614 21 21.0077 21ZM12.0052 4.5C8.69573 4.5 6.0052 6.96563 6.0052 9.99844V12.7875C6.0052 15.2062 4.84919 17.4938 2.82874 19.0594C2.79293 19.0875 2.73155 19.1531 2.73155 19.2516C2.73155 19.3875 2.85431 19.5 3.00265 19.5H21.0077C21.1561 19.5 21.2788 19.3875 21.2788 19.2516C21.2788 19.1531 21.2174 19.0875 21.1816 19.0594C19.1612 17.4938 18.0052 15.2062 18.0052 12.7875V9.99844C18.0052 6.96563 15.3146 4.5 12.0052 4.5Z" fill="white"/>
<path d="M12.0051 4.5C11.5549 4.5 11.1866 4.1625 11.1866 3.75V0.75C11.1866 0.3375 11.5549 0 12.0051 0C12.4552 0 12.8235 0.3375 12.8235 0.75V3.75C12.8235 4.1625 12.4552 4.5 12.0051 4.5Z" fill="white"/>
</svg>
