<svg height="512" viewBox="0 0 74 74" width="512" xmlns="http://www.w3.org/2000/svg"><g fill="#687089"><path d="M45 50H7a5.006 5.006 0 0 1-5-5V11a5.006 5.006 0 0 1 5-5h48a5.006 5.006 0 0 1 5 5v18h-2V11a3 3 0 0 0-3-3H7a3 3 0 0 0-3 3v34a3 3 0 0 0 3 3h38z"/><path d="M3 40h37v2H3zM28 44h6v2h-6zM20 55h22v2H20z"/><path d="M38 49h2v7h-2zM22 49h2v7h-2zM69 68H47a3 3 0 0 1-3-3V31a3 3 0 0 1 3-3h22a3 3 0 0 1 3 3v34a3 3 0 0 1-3 3zM47 30a1 1 0 0 0-1 1v34a1 1 0 0 0 1 1h22a1 1 0 0 0 1-1V31a1 1 0 0 0-1-1z"/><path d="M56 62h4v2h-4zM45 34h26v2H45zM45 58h26v2H45z"/></g></svg>