<svg width="19" height="18" viewBox="0 0 19 18" fill="none" xmlns="http://www.w3.org/2000/svg">
<path d="M13.2366 4.93118C13.2549 4.89156 13.2795 4.85526 13.3094 4.82367L13.3285 4.80602C13.3671 4.77036 13.4123 4.74265 13.4616 4.72448C13.5109 4.70631 13.5633 4.69803 13.6158 4.70011C13.6683 4.70219 13.7199 4.71459 13.7676 4.73661C13.8153 4.75862 13.8582 4.78982 13.8938 4.82842L17.4938 8.72834L17.494 8.72853C17.5622 8.80244 17.6002 8.89937 17.6002 9C17.6002 9.10063 17.5622 9.19756 17.494 9.27147L17.4938 9.27166L13.8942 13.1712C13.8941 13.1713 13.894 13.1714 13.894 13.1715C13.8219 13.2492 13.7219 13.2951 13.616 13.2992C13.51 13.3033 13.4067 13.2651 13.3288 13.193C13.2509 13.121 13.2049 13.0209 13.2008 12.9149C13.1967 12.8088 13.2348 12.7055 13.3069 12.6276L13.3074 12.6272L15.513 10.238L16.2876 9.3988H15.1456H5.79998C5.69389 9.3988 5.59215 9.35666 5.51713 9.28164C5.44212 9.20663 5.39998 9.10489 5.39998 8.9988C5.39998 8.89271 5.44212 8.79097 5.51713 8.71596C5.59215 8.64094 5.69389 8.5988 5.79998 8.5988H15.1444H16.2864L15.5118 7.75964L13.3062 5.37044L13.306 5.37026C13.2703 5.33167 13.2426 5.28644 13.2245 5.23715L12.7553 5.41009L13.2245 5.23714C13.2063 5.18785 13.198 5.13545 13.2001 5.08295C13.2022 5.03046 13.2146 4.97888 13.2366 4.93118ZM12.0828 17.3828C12.0078 17.4579 11.9061 17.5 11.8 17.5H4.29998C3.31867 17.5 2.37756 17.1102 1.68368 16.4163C0.989796 15.7224 0.599976 14.7813 0.599976 13.8V4.2C0.599976 3.2187 0.989796 2.27759 1.68368 1.5837C2.37757 0.88982 3.31867 0.5 4.29998 0.5H11.8C11.9061 0.5 12.0078 0.542143 12.0828 0.617157C12.1578 0.692172 12.2 0.793914 12.2 0.9C12.2 1.00609 12.1578 1.10783 12.0828 1.18284C12.0078 1.25786 11.9061 1.3 11.8 1.3H4.29998C3.53085 1.3 2.79322 1.60553 2.24937 2.14939C1.70551 2.69325 1.39998 3.43087 1.39998 4.2V13.8C1.39998 14.5691 1.70551 15.3068 2.24937 15.8506C2.79322 16.3945 3.53085 16.7 4.29998 16.7H11.8C11.9061 16.7 12.0078 16.7421 12.0828 16.8172C12.1578 16.8922 12.2 16.9939 12.2 17.1C12.2 17.2061 12.1578 17.3078 12.0828 17.3828Z" fill="#F57921" stroke="#F57921"/>
</svg>
