<svg height="512" width="512" xmlns="http://www.w3.org/2000/svg"><path d="M276 374c0 11.046-8.954 20-20 20H138c-11.046 0-20-8.954-20-20s8.954-20 20-20h118c11.046 0 20 8.954 20 20zm236-253.85v234.183c0 30.708-11.958 59.576-33.672 81.289l-42.706 42.707C413.909 500.042 385.041 512 354.333 512H120.15C53.739 512 0 458.255 0 391.85v-271.7C0 53.739 53.745 0 120.15 0h271.7C458.261 0 512 53.745 512 120.15zm-42.683 254.183h-54.984c-22.056 0-40 17.944-40 40v54.984c12.362-3.4 23.692-9.961 33.004-19.272l42.707-42.708c9.312-9.312 15.873-20.642 19.273-33.004zM472 120.15C472 75.849 436.149 40 391.85 40h-271.7C75.849 40 40 75.851 40 120.15v271.7C40 436.151 75.851 472 120.15 472h214.183v-57.667c0-44.112 35.888-80 80-80H472zM374 236H138c-11.046 0-20 8.954-20 20s8.954 20 20 20h236c11.046 0 20-8.954 20-20s-8.954-20-20-20zm0-118H138c-11.046 0-20 8.954-20 20s8.954 20 20 20h236c11.046 0 20-8.954 20-20s-8.954-20-20-20z"/></svg>