<svg width="17" height="18" viewBox="0 0 17 18" fill="none" xmlns="http://www.w3.org/2000/svg">
<path d="M13.5 1.5H3.5C3.10217 1.5 2.72064 1.65804 2.43934 1.93934C2.15804 2.22064 2 2.60217 2 3V15C2 15.3978 2.15804 15.7794 2.43934 16.0607C2.72065 16.342 3.10218 16.5 3.5 16.5H13.5C13.8978 16.5 14.2794 16.342 14.5607 16.0607C14.842 15.7794 15 15.3978 15 15V3C15 2.60218 14.842 2.22065 14.5607 1.93934C14.2794 1.65804 13.8978 1.5 13.5 1.5ZM1.73223 1.23223C2.20107 0.763392 2.83696 0.5 3.5 0.5H13.5C14.163 0.5 14.7989 0.763392 15.2678 1.23223C15.7366 1.70107 16 2.33696 16 3V15C16 15.663 15.7366 16.2989 15.2678 16.7678C14.7989 17.2366 14.163 17.5 13.5 17.5H3.5C2.83696 17.5 2.20107 17.2366 1.73223 16.7678C1.26339 16.2989 1 15.663 1 15V3C1 2.33696 1.26339 1.70107 1.73223 1.23223Z" fill="#B2B2B2" stroke="#B2B2B2"/>
<path d="M4.5 4H12.5V6H4.5V4ZM4.5 8H12.5V10H4.5V8ZM4.5 12H9.5V14H4.5V12Z" fill="#B2B2B2"/>
</svg>
