<svg width="25" height="26" viewBox="0 0 25 26" fill="none" xmlns="http://www.w3.org/2000/svg">
<path d="M24.1844 13.6781C24.2969 14.0531 24.3531 14.4406 24.3531 14.8344C24.3531 15.7187 24.0625 16.5687 23.5375 17.2625C23.65 17.6375 23.7062 18.025 23.7062 18.4187C23.7062 19.3031 23.4156 20.1531 22.8906 20.8469C23.0031 21.2219 23.0594 21.6094 23.0594 22.0031C23.0594 23.6156 22.1 25.0687 20.6125 25.7031C20.351 25.8158 20.0691 25.8733 19.7844 25.8719H1C0.446875 25.8719 0 25.425 0 24.8719V13.4969C0 12.9437 0.446875 12.4969 1 12.4969H5.04062L7.72188 2.78436C8.15312 1.21874 9.59062 0.124989 11.2156 0.124989C12.1438 0.124989 13.0094 0.493738 13.65 1.16874C14.2906 1.84061 14.6187 2.72186 14.5719 3.64999L14.3844 7.49061H21.8813C22.2594 7.49061 22.6281 7.59061 22.9531 7.78124C24.2156 8.51561 25 9.84686 25 11.25C25 12.1344 24.7094 12.9844 24.1844 13.6781ZM2.25 14.75V23.625H4.78125V14.75H2.25ZM21.85 9.73749H12.025L12.325 3.53749C12.3438 3.16561 12.1781 2.81561 11.8687 2.58436C11.6781 2.44374 11.4438 2.37186 11.2094 2.37499C10.9099 2.37789 10.6195 2.47785 10.3817 2.65985C10.144 2.84185 9.97163 3.09608 9.89062 3.38436L6.78125 14.65V23.625H19.7625C20.0749 23.485 20.3401 23.2578 20.5264 22.9706C20.7127 22.6834 20.812 22.3485 20.8125 22.0062C20.8125 21.7031 20.7406 21.4156 20.5969 21.1531L20.1625 20.3594L20.8469 19.7656C21.0395 19.5988 21.1939 19.3924 21.2996 19.1605C21.4053 18.9286 21.4598 18.6767 21.4594 18.4219C21.4594 18.1187 21.3875 17.8312 21.2437 17.5687L20.8094 16.775L21.4937 16.1812C21.6864 16.0144 21.8408 15.808 21.9465 15.5761C22.0522 15.3443 22.1067 15.0923 22.1063 14.8375C22.1063 14.5344 22.0344 14.2469 21.8906 13.9844L21.4531 13.1875L22.1375 12.5937C22.3301 12.4269 22.4845 12.2205 22.5902 11.9886C22.6959 11.7568 22.7504 11.5048 22.75 11.25C22.75 10.6531 22.4062 10.0781 21.85 9.73749Z" fill="#F57921"/>
</svg>
