<svg width="11" height="12" viewBox="0 0 11 12" fill="none" xmlns="http://www.w3.org/2000/svg">
<path d="M2.23777 7.56692V7.49771L0 8.76655V8.88652L5.05229 11.8118V9.19565L2.23777 7.56692Z" fill="#B2B2B2"/>
<path d="M7.86677 7.49771V7.56692L5.05225 9.19565V11.8118L10.0999 8.88652V8.76655L7.86677 7.49771Z" fill="#B2B2B2"/>
<path d="M7.86677 7.4977L5.05225 5.90588L7.86677 7.4977Z" stroke="white" stroke-width="0.0461397" stroke-miterlimit="10"/>
<path d="M0.02771 2.85604L2.25164 4.20332L5.05232 2.65764V0.0784302L0.02771 2.85604Z" fill="#B2B2B2"/>
<path d="M5.18605 0L5.05225 0.0784375V2.65765L5.12607 2.61612L7.84831 4.20332L5.05225 5.90588L10.0722 2.85143L5.18605 0Z" fill="#B2B2B2"/>
<path d="M2.25159 4.20333L5.05227 5.90589V2.65765L2.25159 4.20333Z" fill="#B2B2B2"/>
<path d="M5.12607 2.61609L5.05225 2.65761V5.90585L7.84831 4.20329L5.12607 2.61609Z" fill="#B2B2B2"/>
<path d="M2.23779 7.4977V7.56691L5.05231 9.19564V5.90588L2.23779 7.4977Z" fill="#B2B2B2"/>
<path d="M5.05225 5.90588V9.19564L7.86677 7.56691V7.4977L5.05225 5.90588Z" fill="#B2B2B2"/>
<path d="M10.0999 2.86987L10.0722 2.85141L7.84827 4.2033L7.86672 4.21253V7.49768L10.0999 8.76652V2.86987Z" fill="#B2B2B2"/>
<path d="M7.84831 4.20331L5.05225 5.90586L7.86677 7.49768V4.21254L7.84831 4.20331Z" fill="#B2B2B2"/>
<path d="M2.23777 4.21256L2.25162 4.20333L1.50877 3.75116L0.0276838 2.85605L0 2.86989V8.76654L2.23777 7.4977V4.21256Z" fill="#B2B2B2"/>
<path d="M2.23779 4.21254V7.49768L5.05231 5.90586L2.25163 4.20331L2.23779 4.21254Z" fill="#B2B2B2"/>
</svg>
