<svg width="19" height="25" viewBox="0 0 19 25" fill="none" xmlns="http://www.w3.org/2000/svg">
<path d="M5.42708 19.25H14.3231V20.9375H5.42708V19.25ZM7.20629 22.625H12.5439V24.3125H7.20629V22.625ZM9.87511 0.6875C7.51573 0.6875 5.25298 1.57645 3.58465 3.15879C1.91631 4.74112 0.979052 6.88724 0.979052 9.125C0.918892 10.3513 1.16656 11.5735 1.70167 12.6913C2.23679 13.809 3.04407 14.7903 4.05709 15.5544C4.94669 16.3391 5.42708 16.7862 5.42708 17.5625H7.20629C7.20629 16.01 6.21883 15.1409 5.25806 14.3056C4.42659 13.7017 3.76394 12.9137 3.32813 12.0105C2.89232 11.1073 2.69665 10.1166 2.75826 9.125C2.75826 7.33479 3.50807 5.6179 4.84274 4.35203C6.17741 3.08616 7.98761 2.375 9.87511 2.375C11.7626 2.375 13.5728 3.08616 14.9075 4.35203C16.2422 5.6179 16.992 7.33479 16.992 9.125C17.0525 10.1173 16.8555 11.1085 16.4181 12.0117C15.9807 12.915 15.3164 13.7026 14.4833 14.3056C13.5314 15.1494 12.5439 15.9931 12.5439 17.5625H14.3231C14.3231 16.7862 14.7946 16.3391 15.6931 15.5459C16.7055 14.7832 17.5124 13.8033 18.0475 12.6871C18.5826 11.5708 18.8306 10.3499 18.7712 9.125C18.7712 8.01697 18.5411 6.91979 18.094 5.89611C17.6469 4.87242 16.9916 3.94228 16.1656 3.15879C15.3395 2.37529 14.3588 1.75379 13.2795 1.32977C12.2002 0.905742 11.0434 0.6875 9.87511 0.6875Z" fill="#F57921"/>
</svg>
