<svg width="22" height="16" viewBox="0 0 22 16" fill="none" xmlns="http://www.w3.org/2000/svg">
<path d="M0 5.99467V12C0 13.0609 0.434597 14.0783 1.20818 14.8284C1.98177 15.5786 3.03098 16 4.125 16H17.875C18.969 16 20.0182 15.5786 20.7918 14.8284C21.5654 14.0783 22 13.0609 22 12V5.99467L11.5637 10.5493C11.3865 10.6266 11.1943 10.6666 11 10.6666C10.8057 10.6666 10.6135 10.6266 10.4363 10.5493L0 5.99467ZM0.10175 3.11467L11 7.872L21.8983 3.11467C21.6912 2.23007 21.1802 1.43997 20.4492 0.874025C19.7182 0.308075 18.8104 -0.000122529 17.875 3.65425e-08H4.125C3.18956 -0.000122529 2.28185 0.308075 1.5508 0.874025C0.819757 1.43997 0.308795 2.23007 0.10175 3.11467Z" fill="#F57921"/>
</svg>
