<?xml version="1.0" encoding="iso-8859-1"?>
<!DOCTYPE svg PUBLIC "-//W3C//DTD SVG 1.1//EN" "http://www.w3.org/Graphics/SVG/1.1/DTD/svg11.dtd">
<svg 
 version="1.1" xmlns="http://www.w3.org/2000/svg" xmlns:xlink="http://www.w3.org/1999/xlink" x="0px" y="0px" width="512px"
	 height="512px" viewBox="0 0 512 512" enable-background="new 0 0 512 512" xml:space="preserve"
><g id="5151e0c8492e5103c096af88a5293c6e"><g></g><g fill="#ffffff"><path display="inline" d="M0.5,165.013h133.304v22.218H0.5V165.013z M67.152,231.665H44.935v22.217h22.217H89.37h44.435v-22.217
		H89.37H67.152z M89.37,320.534h44.435v-22.217H89.37V320.534z M511.5,150.671v210.658c0,16.593-13.543,30.093-30.185,30.093
		H186.202c-16.637,0-30.18-13.5-30.18-30.093V150.671c0-16.594,13.543-30.093,30.18-30.093h295.114
		C497.957,120.578,511.5,134.078,511.5,150.671z M458.252,307.421l-60.073-59.891l58.802-41.883
		c4.521-3.215,5.572-9.486,2.344-13.99c-3.237-4.508-9.517-5.55-14.038-2.33l-111.525,79.427l-111.525-79.427
		c-4.526-3.22-10.805-2.178-14.038,2.33c-3.228,4.504-2.178,10.775,2.343,13.99l58.803,41.883l-60.074,59.891
		c-3.927,3.919-3.927,10.271,0,14.182c1.966,1.965,4.543,2.946,7.117,2.946s5.151-0.981,7.112-2.946l62.443-62.253l47.819,34.056
		l47.819-34.056l62.443,62.253c1.961,1.965,4.539,2.946,7.112,2.946s5.15-0.981,7.116-2.946
		C462.179,317.692,462.179,311.34,458.252,307.421z"></path></g></g></svg>