<svg height="512" viewBox="0 0 91 91" width="512" xmlns="http://www.w3.org/2000/svg" data-name="Layer 1"><g fill="#68708a"><path d="M58.67 28.94C49.82 15.92 38 9 31.81 13.24A7.14 7.14 0 0 0 30.06 15c0 .05-14.33 29.05-14.33 29.05l-8 5.42a11.3 11.3 0 0 0-3 15.7l.36.53a11.32 11.32 0 0 0 15.63 3l12.85 18.93c1.89 2.33 5.52 4.65 10 1.92a6.77 6.77 0 0 0 3-4.6 7.16 7.16 0 0 0-1.11-5.4l-11.32-16.7S60.9 60.72 61 60.68a6.41 6.41 0 0 0 2.33-1c3.18-2.16 4.32-6.69 3.22-12.76-.99-5.59-3.8-11.92-7.88-17.98zM8 63.73l-.36-.53a7.79 7.79 0 0 1 2.08-10.83l6.91-4.7 9.12 13.43-6.91 4.7A7.8 7.8 0 0 1 8 63.73zm34.58 17.79a3.7 3.7 0 0 1-1 5.13 3.71 3.71 0 0 1-5.14-1L23.63 66.78l5.15-3.5 1.36-.11zM29.06 59.74 19.12 45.1l9.48-19.33c.92 5.43 3.61 11.88 7.91 18.21s9.3 11.21 14 14.07zm29.5-2.33C53.78 57.1 46 51.71 39.41 42s-8.73-18.9-7.26-23.47a4.26 4.26 0 0 1 4-3c4.74 0 12.81 5.42 19.59 15.41 3.82 5.62 6.6 11.5 7.36 16.64 1.49 9.83-4.54 9.83-4.54 9.83z"/><path d="M46.17 29.31a9.39 9.39 0 0 0-7.12 1.47 1.75 1.75 0 1 0 2 2.89 6 6 0 1 1 6.74 9.93 1.75 1.75 0 0 0 1 3.19 1.71 1.71 0 0 0 1-.3 9.49 9.49 0 0 0-3.55-17.18zM60.83 16.77H61a1.75 1.75 0 0 0 1.74-1.57l1.35-13.12a1.75 1.75 0 1 0-3.48-.36l-1.34 13.13a1.75 1.75 0 0 0 1.56 1.92zM83.45 14.07a1.76 1.76 0 0 0-2.43-.5l-12.19 8a1.75 1.75 0 0 0 1 3.21 1.78 1.78 0 0 0 1-.28l12.19-8a1.75 1.75 0 0 0 .43-2.43zM87.18 35.43 73 32.88a1.75 1.75 0 0 0-.62 3.45l14.17 2.55h.31a1.75 1.75 0 0 0 .31-3.48z"/></g></svg>