<svg width="18" height="19" viewBox="0 0 18 19" fill="none" xmlns="http://www.w3.org/2000/svg">
<path d="M1.62371 12.2506C1.65433 11.5391 1.70025 10.8276 1.71556 10.116C1.71556 10.0242 1.64667 9.90179 1.57779 9.85588C0.483233 9.15199 -0.0219454 8.16502 0.02398 6.86436C0.0545968 6.06101 0.0622511 5.25766 0.02398 4.4543C-0.0372538 3.32196 0.467925 2.49566 1.33285 1.83768C2.41975 1.01137 3.67504 0.582918 5.00688 0.338087C7.75474 -0.166876 10.4873 -0.12097 13.1433 0.843051C13.8705 1.11083 14.567 1.52399 15.2023 1.98304C15.9983 2.55687 16.3964 3.36787 16.3657 4.38545C16.3351 5.38007 16.4193 6.3747 16.3351 7.36932C16.2892 7.90489 16.4346 8.18032 16.8556 8.49401C17.6287 9.07549 17.9961 9.90944 17.9884 10.8888C17.9808 11.7839 17.9502 12.6714 17.9961 13.5666C18.0497 14.6989 17.5521 15.5252 16.6872 16.1832C15.6003 17.0095 14.3374 17.4456 13.0132 17.6905C10.3572 18.1801 7.71647 18.1266 5.12169 17.285C4.27973 17.0095 3.49134 16.627 2.81012 16.0608C2.06 15.4334 1.6084 14.6607 1.66198 13.6431C1.68495 13.1841 1.66964 12.725 1.66964 12.2659C1.64667 12.2506 1.63137 12.2506 1.62371 12.2506ZM7.86955 1.65405C7.46388 1.69231 6.73673 1.73821 6.01723 1.82237C5.61156 1.86828 5.21354 1.95244 4.82318 2.05955C3.80516 2.32734 2.81012 2.64868 2.03704 3.40612C1.53186 3.88813 1.5089 4.3778 2.04469 4.8139C2.52691 5.21175 3.08567 5.57135 3.66739 5.78557C6.30044 6.7649 8.99473 6.78785 11.712 6.12987C12.6305 5.90799 13.5107 5.56369 14.2455 4.93632C14.8808 4.3931 14.8961 3.81927 14.2455 3.30666C13.8398 2.98532 13.3806 2.71754 12.906 2.51096C11.3981 1.86063 9.80607 1.68466 7.86955 1.65405ZM3.26937 10.8046C3.4148 11.0035 3.5143 11.2637 3.70566 11.3861C4.25676 11.7457 4.80787 12.1282 5.41255 12.3654C7.28018 13.0922 9.23201 13.1764 11.1991 13.0157C12.485 12.9163 13.748 12.6638 14.9038 12.0594C15.3324 11.8375 15.7228 11.5161 16.0902 11.1872C16.3351 10.9653 16.4652 10.621 16.2509 10.3226C16.0213 10.0089 15.7151 9.75642 15.4243 9.50394C15.3783 9.46568 15.2176 9.51924 15.1334 9.5728C14.544 9.89414 13.9853 10.292 13.3729 10.5445C11.291 11.3937 9.10188 11.5927 6.88982 11.4014C5.70341 11.3019 4.52466 11.0188 3.26937 10.8046ZM1.66964 6.68073C1.61606 7.72127 1.76149 8.03495 2.64938 8.55522C3.05505 8.7924 3.48369 8.99898 3.91998 9.15199C6.20093 9.92474 8.53547 9.9936 10.893 9.5728C11.9722 9.38152 13.0132 9.05253 13.9394 8.4328C14.5747 8.012 14.8655 7.45348 14.6818 6.69604C10.3495 8.76945 6.02489 8.76945 1.66964 6.68073ZM16.3198 13.2147C11.9875 15.3034 7.66289 15.3034 3.31529 13.207C3.18517 13.8573 3.30764 14.4388 3.89702 14.8061C4.40219 15.1197 4.91503 15.4411 5.47378 15.64C7.67055 16.4281 9.93619 16.5046 12.2172 16.145C13.4036 15.9614 14.544 15.6247 15.5697 14.9514C16.2127 14.5383 16.4882 13.9721 16.3198 13.2147Z" fill="#F57921"/>
</svg>
