<svg width="25" height="24" fill="none" xmlns="http://www.w3.org/2000/svg"><path d="M24.483.983c.12-.626-.418-1.158-.937-.928L.95 9.98c-.275.122-.45.417-.45.755s.181.633.45.755l6.35 2.82v8.883c0 .374.226.698.538.784.313.086.644-.086.788-.424l2.625-5.992 6.407 5.474c.387.33.95.122 1.094-.418C24.733.056 24.477 1.034 24.483.983Zm-5.575 2.84L7.9 12.844l-4.738-2.107 15.745-6.912ZM8.707 14.175l9.595-7.862c-8.257 10.02-7.826 9.495-7.864 9.545-.056.08.094-.237-1.731 3.935v-5.618Zm8.988 6.877-5.638-4.82L22.258 3.86l-4.563 17.19Z" fill="#f27225"/></svg>