<svg height="512pt" viewBox="0 -91 512 512" width="512pt" xmlns="http://www.w3.org/2000/svg"><path d="M512 288H405.332v-21.332h85.336V256c0-129.332-105.336-234.668-234.668-234.668S21.332 126.668 21.332 256v10.668h85.336V288H0v-32C0 114.8 114.8 0 256 0s256 114.8 256 256zm0 0"/><path d="M245.332 10.668h21.336v64h-21.336zM79.727 85.95l51.664 51.663-15.082 15.086-51.668-51.664zM432.293 85.965l15.086 15.086-51.668 51.664-15.082-15.086zM259.066 330.668c-31.066 0-56.398-25.336-56.398-56.402 0-21.598 12.664-41.598 32.133-50.934l144-68.664-68.668 144c-9.332 19.332-29.332 32-51.067 32zm74.536-130.934L244 242.535c-12.133 5.73-20 18.266-20 31.73 0 19.337 15.734 35.067 35.066 35.067 13.47 0 25.868-7.867 31.735-20zm0 0"/></svg>