<svg width="18" height="25" viewBox="0 0 18 25" fill="none" xmlns="http://www.w3.org/2000/svg">
<path d="M8.99997 3.5C5.69098 3.5 3 6.19098 3 9.49997C3 12.8089 5.69098 15.4999 8.99997 15.4999C12.3089 15.4999 14.9999 12.8089 14.9999 9.49997C14.9999 6.19098 12.3089 3.5 8.99997 3.5ZM8.99997 14.5C6.24298 14.5 3.99998 12.2569 3.99998 9.49997C3.99998 6.74298 6.24298 4.49998 8.99997 4.49998C11.7569 4.49998 14 6.74298 14 9.49997C14 12.2569 11.7569 14.5 8.99997 14.5Z" fill="#F57921"/>
<path d="M15.0769 16.1189C16.8689 14.4719 17.9999 12.1189 17.9999 9.49995C17.9999 4.53798 13.9629 0.5 8.99995 0.5C4.03699 0.5 0 4.53798 0 9.49995C0 12.1179 1.13099 14.4719 2.92198 16.1179L0.0320154 23.8249C-0.0399842 24.0178 0.0130314 24.2338 0.164999 24.3718C0.260014 24.4558 0.378982 24.4999 0.500013 24.4999C0.575997 24.4999 0.652027 24.4828 0.724027 24.4479L4.46402 22.5779L7.22302 24.4169C7.34902 24.5009 7.509 24.5219 7.65403 24.4769C7.79902 24.4299 7.91503 24.3199 7.96805 24.1769L9.06004 21.2639L10.0251 24.1579C10.0751 24.3059 10.191 24.4219 10.338 24.4729C10.485 24.5229 10.647 24.5029 10.777 24.4159L13.536 22.5769L17.276 24.4469C17.348 24.4829 17.424 24.4999 17.5 24.4999C17.621 24.4999 17.74 24.4559 17.834 24.3709C17.987 24.2339 18.039 24.0169 17.967 23.8239L15.0769 16.1189ZM8.53195 19.8249L7.25297 23.2349L4.777 21.5849C4.627 21.4859 4.43402 21.4729 4.27601 21.5539L1.41501 22.9849L3.73901 16.7869C4.99802 17.6979 6.49501 18.2969 8.124 18.4559L8.56397 19.7749C8.55398 19.7919 8.53898 19.8049 8.53195 19.8249ZM8.99995 17.4999C4.58899 17.4999 1.00003 13.9109 1.00003 9.49995C1.00003 5.08899 4.58899 1.49998 8.99995 1.49998C13.4109 1.49998 16.9999 5.08899 16.9999 9.49995C16.9999 13.9109 13.411 17.4999 8.99995 17.4999ZM13.723 21.5529C13.563 21.4719 13.371 21.4839 13.222 21.5839L10.767 23.2209L9.18998 18.4899C11.081 18.4499 12.8269 17.8249 14.2599 16.7869L16.584 22.9839L13.723 21.5529Z" fill="#F57921"/>
</svg>
