<svg height="512" width="512" xmlns="http://www.w3.org/2000/svg"><g fill="#687089"><path d="M0 145.067c0 56.554 45.846 102.4 102.4 102.4s102.4-45.846 102.4-102.4-45.846-102.4-102.4-102.4C45.871 42.728.061 88.538 0 145.067zm102.4-85.334c47.128 0 85.333 38.205 85.333 85.333S149.528 230.4 102.4 230.4s-85.333-38.205-85.333-85.333c.051-47.107 38.226-85.282 85.333-85.334zM102.4 469.333c56.554 0 102.4-45.846 102.4-102.4s-45.846-102.4-102.4-102.4S0 310.379 0 366.933c.061 56.529 45.871 102.339 102.4 102.4zm0-187.733c47.128 0 85.333 38.205 85.333 85.333s-38.205 85.333-85.333 85.333-85.333-38.205-85.333-85.333c.051-47.107 38.226-85.281 85.333-85.333zM452.267 85.333H281.6c-32.99 0-59.733 26.744-59.733 59.733S248.61 204.8 281.6 204.8h170.667c32.99 0 59.733-26.744 59.733-59.733s-26.743-59.734-59.733-59.734zm0 102.4H281.6c-23.564 0-42.667-19.103-42.667-42.667S258.036 102.4 281.6 102.4h170.667c23.564 0 42.667 19.103 42.667 42.667s-19.103 42.666-42.667 42.666zM452.267 307.2H281.6c-32.99 0-59.733 26.744-59.733 59.733s26.744 59.733 59.733 59.733h170.667c32.99 0 59.733-26.744 59.733-59.733S485.257 307.2 452.267 307.2zm0 102.4H281.6c-23.564 0-42.667-19.103-42.667-42.667s19.103-42.667 42.667-42.667h170.667c23.564 0 42.667 19.103 42.667 42.667-.001 23.565-19.103 42.667-42.667 42.667z"/><path d="M102.4 204.8c32.99 0 59.733-26.744 59.733-59.733S135.39 85.333 102.4 85.333s-59.733 26.744-59.733 59.733c.042 32.973 26.761 59.692 59.733 59.734zm0-102.4c23.564 0 42.667 19.103 42.667 42.667s-19.103 42.667-42.667 42.667-42.667-19.103-42.667-42.667c.029-23.553 19.115-42.639 42.667-42.667z"/></g></svg>