<svg width="24" height="22" viewBox="0 0 24 22" fill="none" xmlns="http://www.w3.org/2000/svg">
<path d="M23.9837 1.42216C24.1007 0.877528 23.5668 0.418299 23.0459 0.617047L0.452371 9.24196C0.180452 9.34579 0.000594335 9.60641 3.18407e-05 9.89746C-0.000530654 10.1885 0.178296 10.4499 0.44984 10.5547L6.79679 13.006V20.7269C6.79679 21.0526 7.02043 21.3356 7.3373 21.4109C7.65207 21.4858 7.98028 21.336 8.12784 21.0433L10.7529 15.8342L17.1589 20.5884C17.5486 20.8776 18.1087 20.6936 18.2505 20.2289C24.2316 0.618594 23.9731 1.47143 23.9837 1.42216ZM18.4065 3.8933L7.40026 11.7316L2.66462 9.90266L18.4065 3.8933ZM8.20303 12.8863L17.7967 6.05398C9.54148 14.7628 9.97264 14.3044 9.93664 14.3529C9.88315 14.4248 10.0297 14.1444 8.20303 17.7692V12.8863ZM17.1963 18.8649L11.5575 14.6802L21.7532 3.92423L17.1963 18.8649Z" fill="white"/>
</svg>
