<svg width="22" height="22" viewBox="0 0 22 22" fill="none" xmlns="http://www.w3.org/2000/svg">
<path d="M12.8333 17.4167C16.29 17.4167 18.0188 17.4167 19.0923 16.3423C20.1666 15.2689 20.1666 13.5401 20.1666 10.0833C20.1666 6.62658 20.1666 4.89775 19.0923 3.82433C18.0188 2.75 16.29 2.75 12.8333 2.75H9.16659C5.70984 2.75 3.981 2.75 2.90759 3.82433C1.83325 4.89775 1.83325 6.62658 1.83325 10.0833C1.83325 13.5401 1.83325 15.2689 2.90759 16.3423C3.50617 16.9418 4.30825 17.2068 5.49992 17.3232" stroke="#BBBBC9" stroke-width="2" stroke-linecap="round" stroke-linejoin="round"/>
<path d="M12.8333 17.4167C11.7003 17.4167 10.4518 17.875 9.31239 18.4663C7.48089 19.4169 6.56514 19.8926 6.11414 19.5892C5.66314 19.2867 5.74839 18.3471 5.91981 16.4689L5.95831 16.0417" stroke="#BBBBC9" stroke-width="2" stroke-linecap="round"/>
</svg>
