<svg width="25" height="25" viewBox="0 0 25 25" fill="none" xmlns="http://www.w3.org/2000/svg">
<path d="M14.5833 19.7917C18.5114 19.7917 20.476 19.7917 21.6958 18.5708C22.9166 17.351 22.9166 15.3865 22.9166 11.4583C22.9166 7.53021 22.9166 5.56562 21.6958 4.34583C20.476 3.125 18.5114 3.125 14.5833 3.125H10.4166C6.48852 3.125 4.52394 3.125 3.30415 4.34583C2.08331 5.56562 2.08331 7.53021 2.08331 11.4583C2.08331 15.3865 2.08331 17.351 3.30415 18.5708C3.98435 19.2521 4.89581 19.5531 6.24998 19.6854" stroke="#F57921" stroke-width="2" stroke-linecap="round" stroke-linejoin="round"/>
<path d="M14.5833 19.7917C13.2958 19.7917 11.8771 20.3126 10.5823 20.9845C8.50105 22.0647 7.46042 22.6053 6.94792 22.2605C6.43542 21.9167 6.5323 20.849 6.72709 18.7147L6.77084 18.2292" stroke="#F57921" stroke-width="2" stroke-linecap="round"/>
</svg>
