<svg xml:space="preserve" width="682.667" height="682.667" xmlns="http://www.w3.org/2000/svg"><defs><clipPath clipPathUnits="userSpaceOnUse" id="a"><path d="M0 512h512V0H0Z"/></clipPath></defs><path d="M0 0h238" style="fill:none;stroke:#68708a;stroke-width:15;stroke-linecap:round;stroke-linejoin:round;stroke-miterlimit:10;stroke-dasharray:none;stroke-opacity:1" transform="matrix(1.33333 0 0 -1.33333 275.407 264.862)"/><path d="M0 0h238" style="fill:none;stroke:#68708a;stroke-width:15;stroke-linecap:round;stroke-linejoin:round;stroke-miterlimit:10;stroke-dasharray:none;stroke-opacity:1" transform="matrix(1.33333 0 0 -1.33333 275.407 341.307)"/><path d="M0 0h238" style="fill:none;stroke:#68708a;stroke-width:15;stroke-linecap:round;stroke-linejoin:round;stroke-miterlimit:10;stroke-dasharray:none;stroke-opacity:1" transform="matrix(1.33333 0 0 -1.33333 275.407 417.75)"/><g clip-path="url(#a)" transform="matrix(1.33333 0 0 -1.33333 0 682.667)"><path d="M0 0h285.646c19.949 0 36.122-16.172 36.122-36.122v-179.617c0-19.792-15.921-35.858-35.654-36.11v-83.92c0-5.263-6.643-7.57-9.905-3.44l-64.655 81.854a14.458 14.458 0 0 1-11.343 5.495H0c-19.95 0-36.122 16.172-36.122 36.121v179.617C-36.122-16.172-19.95 0 0 0Z" style="fill:none;stroke:#68708a;stroke-width:15;stroke-linecap:round;stroke-linejoin:round;stroke-miterlimit:10;stroke-dasharray:none;stroke-opacity:1" transform="translate(182.732 378.945)"/><path d="M0 0v28.932c0 17.366-14.078 31.444-31.445 31.444h-248.662c-17.367 0-31.445-14.078-31.445-31.444V-127.43c0-17.23 13.859-31.216 31.037-31.434v-73.055c0-4.582 5.783-6.591 8.623-2.995l56.284 71.256a12.58 12.58 0 0 0 8.104 4.658" style="fill:none;stroke:#68708a;stroke-width:15;stroke-linecap:round;stroke-linejoin:round;stroke-miterlimit:10;stroke-dasharray:none;stroke-opacity:1" transform="translate(319.052 414.008)"/></g></svg>