<svg width="40" height="40" viewBox="0 0 40 40" fill="none" xmlns="http://www.w3.org/2000/svg">
<path d="M21.5625 29.2188C21.5625 30.0817 20.863 30.7812 20 30.7812H10.7812C9.91828 30.7812 9.21875 30.0817 9.21875 29.2188C9.21875 28.3558 9.91828 27.6562 10.7812 27.6562H20C20.863 27.6562 21.5625 28.3558 21.5625 29.2188ZM40 9.38672V27.6823C40 30.0813 39.0658 32.3366 37.3694 34.033L34.033 37.3695C32.3366 39.0658 30.0813 40 27.6823 40H9.38672C4.19836 40 0 35.8012 0 30.6133V9.38672C0 4.19836 4.19883 0 9.38672 0H30.6133C35.8016 0 40 4.19883 40 9.38672ZM36.6654 29.2448H32.3698C30.6466 29.2448 29.2448 30.6466 29.2448 32.3698V36.6654C30.2105 36.3998 31.0957 35.8872 31.8232 35.1598L35.1597 31.8232C35.8872 31.0957 36.3998 30.2105 36.6654 29.2448ZM36.875 9.38672C36.875 5.9257 34.0741 3.125 30.6133 3.125H9.38672C5.9257 3.125 3.125 5.92586 3.125 9.38672V30.6133C3.125 34.0743 5.92586 36.875 9.38672 36.875H26.1198V32.3698C26.1198 28.9235 28.9235 26.1198 32.3698 26.1198H36.875V9.38672ZM29.2188 18.4375H10.7812C9.91828 18.4375 9.21875 19.137 9.21875 20C9.21875 20.863 9.91828 21.5625 10.7812 21.5625H29.2188C30.0817 21.5625 30.7812 20.863 30.7812 20C30.7812 19.137 30.0817 18.4375 29.2188 18.4375ZM29.2188 9.21875H10.7812C9.91828 9.21875 9.21875 9.91828 9.21875 10.7812C9.21875 11.6442 9.91828 12.3438 10.7812 12.3438H29.2188C30.0817 12.3438 30.7812 11.6442 30.7812 10.7812C30.7812 9.91828 30.0817 9.21875 29.2188 9.21875Z" fill="#B2B2B2"/>
</svg>
