<svg width="22" height="23" viewBox="0 0 22 23" fill="none" xmlns="http://www.w3.org/2000/svg">
<path d="M11 22.5999C8.06094 22.5999 5.29948 21.454 3.21979 19.3801C1.14583 17.3004 0 14.5389 0 11.5999C0 8.66079 1.14583 5.89933 3.21979 3.81965C5.29948 1.74569 8.06094 0.599854 11 0.599854C13.9391 0.599854 16.7005 1.74569 18.7802 3.81965C20.8542 5.89933 22 8.66079 22 11.5999C22 14.5389 20.8542 17.3004 18.7802 19.3801C16.7005 21.454 13.9391 22.5999 11 22.5999ZM11 2.3186C5.88385 2.3186 1.71875 6.48371 1.71875 11.5999C1.71875 16.716 5.88385 20.8811 11 20.8811C16.1161 20.8811 20.2812 16.716 20.2812 11.5999C20.2812 6.48371 16.1161 2.3186 11 2.3186ZM15.0276 13.4962C14.6266 13.2384 14.0938 13.3587 13.8417 13.7597C13.8302 13.7769 12.7589 15.4269 10.9599 15.4269C9.16094 15.4269 8.08385 13.7769 8.07812 13.7597C7.82604 13.3587 7.29323 13.2441 6.89219 13.4962C6.49115 13.7483 6.37656 14.2811 6.62865 14.6821C6.69167 14.7853 8.22708 17.14 10.9656 17.14C13.7042 17.14 15.2339 14.7795 15.3026 14.6821C15.549 14.2868 15.4286 13.754 15.0276 13.4962ZM7.21875 7.69256C7.81458 7.69256 8.29583 8.17381 8.29583 8.76965C8.29583 9.36548 7.81458 9.84673 7.21875 9.84673C6.62292 9.84673 6.14167 9.36548 6.14167 8.76965C6.14167 8.17381 6.62292 7.69256 7.21875 7.69256ZM13.6641 8.76392C13.6641 9.35975 14.1453 9.841 14.7411 9.841C15.337 9.841 15.8182 9.35975 15.8182 8.76392C15.8182 8.16808 15.337 7.68683 14.7411 7.68683C14.1453 7.68683 13.6641 8.16808 13.6641 8.76392Z" fill="#B2BFCB"/>
</svg>
