<svg width="19" height="18" viewBox="0 0 19 18" fill="none" xmlns="http://www.w3.org/2000/svg">
<path d="M12.3 18C12.5387 18 12.7676 17.9052 12.9364 17.7364C13.1052 17.5676 13.2 17.3387 13.2 17.1C13.2 16.8613 13.1052 16.6324 12.9364 16.4636C12.7676 16.2948 12.5387 16.2 12.3 16.2H4.80001C4.16349 16.2 3.55304 15.9471 3.10295 15.4971C2.65286 15.047 2.40001 14.4365 2.40001 13.8V4.2C2.40001 3.56348 2.65286 2.95303 3.10295 2.50294C3.55304 2.05286 4.16349 1.8 4.80001 1.8H12.3C12.5387 1.8 12.7676 1.70518 12.9364 1.5364C13.1052 1.36761 13.2 1.13869 13.2 0.9C13.2 0.661305 13.1052 0.432387 12.9364 0.263604C12.7676 0.094821 12.5387 0 12.3 0H4.80001C3.6861 0 2.61781 0.442499 1.83016 1.23015C1.04251 2.0178 0.600006 3.08609 0.600006 4.2V13.8C0.600006 14.9139 1.04251 15.9822 1.83016 16.7698C2.61781 17.5575 3.6861 18 4.80001 18H12.3ZM13.4892 4.4388C13.576 4.35857 13.6778 4.29623 13.7887 4.25534C13.8996 4.21446 14.0175 4.19582 14.1356 4.2005C14.2538 4.20518 14.3698 4.23309 14.4771 4.28262C14.5845 4.33216 14.681 4.40235 14.7612 4.4892L18.3612 8.3892C18.5149 8.55549 18.6002 8.77359 18.6002 9C18.6002 9.22641 18.5149 9.44451 18.3612 9.6108L14.7612 13.5108C14.5991 13.686 14.3739 13.7896 14.1354 13.7988C13.8968 13.8081 13.6644 13.7222 13.4892 13.56C13.314 13.3978 13.2104 13.1727 13.2012 12.9342C13.1919 12.6956 13.2779 12.4632 13.44 12.288L15.6456 9.8988H6.30001C6.06131 9.8988 5.83239 9.80398 5.66361 9.6352C5.49483 9.46641 5.40001 9.23749 5.40001 8.9988C5.40001 8.76011 5.49483 8.53119 5.66361 8.3624C5.83239 8.19362 6.06131 8.0988 6.30001 8.0988H15.6444L13.4388 5.7096C13.3586 5.62278 13.2962 5.521 13.2553 5.41009C13.2145 5.29917 13.1958 5.18128 13.2005 5.06316C13.2052 4.94504 13.2331 4.829 13.2826 4.72166C13.3322 4.61433 13.4024 4.5178 13.4892 4.4376V4.4388Z" fill="white"/>
</svg>
