<svg width="19" height="22" viewBox="0 0 19 22" fill="none" xmlns="http://www.w3.org/2000/svg">
<path d="M5.37561 6.3125V5.1875C5.37561 5.08437 5.45999 5 5.56311 5H14.5631C14.6662 5 14.7506 5.08437 14.7506 5.1875V6.3125C14.7506 6.41563 14.6662 6.5 14.5631 6.5H5.56311C5.45999 6.5 5.37561 6.41563 5.37561 6.3125ZM14.5631 8.375C14.6662 8.375 14.7506 8.45937 14.7506 8.5625V9.6875C14.7506 9.79062 14.6662 9.875 14.5631 9.875H10.2506C10.1475 9.875 10.0631 9.79062 10.0631 9.6875V8.5625C10.0631 8.45937 10.1475 8.375 10.2506 8.375H14.5631ZM11.1881 18.9688H16.6256V2.46875H3.50061V10.5312C3.50061 10.6344 3.41623 10.7188 3.31311 10.7188H2.00061C1.89749 10.7188 1.81311 10.6344 1.81311 10.5312V1.53125C1.81311 1.11641 2.14827 0.78125 2.56311 0.78125H17.5631C17.978 0.78125 18.3131 1.11641 18.3131 1.53125V19.9062C18.3131 20.3211 17.978 20.6562 17.5631 20.6562H11.1881C11.085 20.6562 11.0006 20.5719 11.0006 20.4688V19.1562C11.0006 19.0531 11.085 18.9688 11.1881 18.9688ZM0.742016 20.1758L2.92873 17.9891C2.40608 17.2977 2.09436 16.4352 2.09436 15.5C2.09436 13.2219 3.94124 11.375 6.21936 11.375C8.49749 11.375 10.3444 13.2219 10.3444 15.5C10.3444 17.7781 8.49749 19.625 6.21936 19.625C5.3803 19.625 4.60217 19.3742 3.95061 18.9453L1.73108 21.1648C1.69358 21.2023 1.64671 21.2188 1.59983 21.2188C1.55296 21.2188 1.50373 21.2 1.46858 21.1648L0.742016 20.4383C0.724726 20.4211 0.711006 20.4006 0.701643 20.3781C0.69228 20.3556 0.68746 20.3314 0.68746 20.307C0.68746 20.2826 0.69228 20.2585 0.701643 20.236C0.711006 20.2134 0.724726 20.193 0.742016 20.1758ZM6.21936 18.125C7.67014 18.125 8.84436 16.9508 8.84436 15.5C8.84436 14.0492 7.67014 12.875 6.21936 12.875C4.76858 12.875 3.59436 14.0492 3.59436 15.5C3.59436 16.9508 4.76858 18.125 6.21936 18.125Z" fill="#6D6D77"/>
</svg>
