<svg width="19" height="20" viewBox="0 0 19 20" fill="none" xmlns="http://www.w3.org/2000/svg">
<path d="M18.2633 10.5086C18.3477 10.7898 18.3898 11.0805 18.3898 11.3758C18.3898 12.0391 18.1719 12.6766 17.7781 13.1969C17.8625 13.4781 17.9047 13.7688 17.9047 14.0641C17.9047 14.7273 17.6867 15.3648 17.293 15.8852C17.3773 16.1664 17.4195 16.457 17.4195 16.7523C17.4195 17.9617 16.7 19.0516 15.5844 19.5273C15.3883 19.6119 15.1768 19.655 14.9633 19.6539H0.875C0.460156 19.6539 0.125 19.3188 0.125 18.9039V10.3727C0.125 9.95782 0.460156 9.62266 0.875 9.62266H3.90547L5.91641 2.33829C6.23984 1.16407 7.31797 0.343756 8.53672 0.343756C9.23281 0.343756 9.88203 0.620317 10.3625 1.12657C10.843 1.63047 11.0891 2.29141 11.0539 2.9875L10.9133 5.86797H16.5359C16.8195 5.86797 17.0961 5.94297 17.3398 6.08594C18.2867 6.63672 18.875 7.63516 18.875 8.68751C18.875 9.35079 18.657 9.98829 18.2633 10.5086ZM1.8125 11.3125V17.9688H3.71094V11.3125H1.8125ZM16.5125 7.55313H9.14375L9.36875 2.90313C9.38281 2.62422 9.25859 2.36172 9.02656 2.18829C8.88359 2.08282 8.70781 2.02891 8.53203 2.03126C8.30746 2.03343 8.08965 2.1084 7.91131 2.2449C7.73297 2.3814 7.60372 2.57207 7.54297 2.78829L5.21094 11.2375V17.9688H14.9469C15.1811 17.8638 15.3801 17.6933 15.5198 17.4779C15.6595 17.2626 15.734 17.0114 15.7344 16.7547C15.7344 16.5273 15.6805 16.3117 15.5727 16.1148L15.2469 15.5195L15.7602 15.0742C15.9046 14.9491 16.0204 14.7943 16.0997 14.6204C16.179 14.4465 16.2199 14.2575 16.2195 14.0664C16.2195 13.8391 16.1656 13.6234 16.0578 13.4266L15.732 12.8313L16.2453 12.3859C16.3898 12.2608 16.5056 12.106 16.5849 11.9321C16.6641 11.7582 16.705 11.5693 16.7047 11.3781C16.7047 11.1508 16.6508 10.9352 16.543 10.7383L16.2148 10.1406L16.7281 9.69532C16.8726 9.57019 16.9884 9.4154 17.0677 9.24149C17.147 9.06758 17.1878 8.87863 17.1875 8.68751C17.1875 8.23985 16.9297 7.8086 16.5125 7.55313Z" fill="#6D6D77"/>
</svg>
