<svg width="19" height="20" viewBox="0 0 19 20" fill="none" xmlns="http://www.w3.org/2000/svg">
<path d="M18.2633 9.48908C18.3477 9.20783 18.3898 8.91721 18.3898 8.62189C18.3898 7.95861 18.1719 7.32111 17.7781 6.8008C17.8625 6.51955 17.9047 6.22893 17.9047 5.93361C17.9047 5.27033 17.6867 4.63283 17.293 4.11252C17.3773 3.83127 17.4195 3.54064 17.4195 3.24533C17.4195 2.03596 16.7 0.946113 15.5844 0.470332C15.3883 0.38579 15.1768 0.3427 14.9633 0.343769H0.875C0.460156 0.343769 0.125 0.678926 0.125 1.09377V9.62502C0.125 10.0399 0.460156 10.375 0.875 10.375H3.90547L5.91641 17.6594C6.23984 18.8336 7.31797 19.6539 8.53672 19.6539C9.23281 19.6539 9.88203 19.3774 10.3625 18.8711C10.843 18.3672 11.0891 17.7063 11.0539 17.0102L10.9133 14.1297H16.5359C16.8195 14.1297 17.0961 14.0547 17.3398 13.9117C18.2867 13.361 18.875 12.3625 18.875 11.3102C18.875 10.6469 18.657 10.0094 18.2633 9.48908ZM1.8125 8.68517V2.02893H3.71094V8.68517H1.8125ZM16.5125 12.4446H9.14375L9.36875 17.0946C9.38281 17.3735 9.25859 17.636 9.02656 17.8094C8.88359 17.9149 8.70781 17.9688 8.53203 17.9664C8.30746 17.9642 8.08965 17.8893 7.91131 17.7528C7.73297 17.6163 7.60372 17.4256 7.54297 17.2094L5.21094 8.76018V2.02893H14.9469C15.1811 2.13392 15.3801 2.30435 15.5198 2.51973C15.6595 2.73511 15.734 2.98627 15.7344 3.24299C15.7344 3.47033 15.6805 3.68596 15.5727 3.88283L15.2469 4.47814L15.7602 4.92346C15.9046 5.04858 16.0204 5.20337 16.0997 5.37728C16.179 5.55119 16.2199 5.74014 16.2195 5.93127C16.2195 6.15861 16.1656 6.37424 16.0578 6.57111L15.732 7.16643L16.2453 7.61174C16.3898 7.73687 16.5056 7.89165 16.5849 8.06556C16.6641 8.23948 16.705 8.42843 16.7047 8.61955C16.7047 8.84689 16.6508 9.06252 16.543 9.25939L16.2148 9.85705L16.7281 10.3024C16.8726 10.4275 16.9884 10.5823 17.0677 10.7562C17.147 10.9301 17.1878 11.1191 17.1875 11.3102C17.1875 11.7578 16.9297 12.1891 16.5125 12.4446Z" fill="#6D6D77"/>
</svg>
