<svg width="24" height="24" viewBox="0 0 24 24" fill="none" xmlns="http://www.w3.org/2000/svg">
<path d="M19.9686 24.0001H4.0332C2.84585 24.0001 1.87723 22.9668 1.87723 21.7001V9.60005C1.87723 9.16005 2.21468 8.80005 2.62713 8.80005C3.03958 8.80005 3.37703 9.16005 3.37703 9.60005V21.7001C3.37703 22.0868 3.67074 22.4001 4.0332 22.4001H19.9686C20.3311 22.4001 20.6248 22.0868 20.6248 21.7001V9.60005C20.6248 9.16005 20.9622 8.80005 21.3747 8.80005C21.7871 8.80005 22.1246 9.16005 22.1246 9.60005V21.7001C22.1246 22.9668 21.156 24.0001 19.9686 24.0001Z" fill="white"/>
<path d="M23.2485 12.4C23.0548 12.4 22.8673 12.32 22.7174 12.1667L13.3936 2.21334C12.6249 1.39334 11.3751 1.39334 10.6127 2.21334L1.28265 12.1667C0.988934 12.48 0.513996 12.48 0.220284 12.1667C-0.0734279 11.8534 -0.0734279 11.3467 0.220284 11.0334L9.55032 1.08C10.9001 -0.360001 13.0999 -0.360001 14.4559 1.08L23.7797 11.0267C24.0734 11.34 24.0734 11.8467 23.7797 12.16C23.6297 12.32 23.4423 12.4 23.2485 12.4Z" fill="white"/>
<path d="M15.0005 23.9999H9.00131C8.58886 23.9999 8.2514 23.6399 8.2514 23.1999V16.0999C8.2514 14.7199 9.30127 13.5999 10.5948 13.5999H13.407C14.7006 13.5999 15.7504 14.7199 15.7504 16.0999V23.1999C15.7504 23.6399 15.413 23.9999 15.0005 23.9999ZM9.75121 22.3999H14.2506V16.0999C14.2506 15.6065 13.8694 15.1999 13.407 15.1999H10.5948C10.1324 15.1999 9.75121 15.6065 9.75121 16.0999V22.3999Z" fill="white"/>
</svg>
