<svg width="16" height="21" viewBox="0 0 16 21" fill="none" xmlns="http://www.w3.org/2000/svg">
<path d="M3.75745 16.5H11.2575V18H3.75745V16.5ZM5.25745 19.5H9.75745V21H5.25745V19.5ZM7.50745 0C5.51833 0 3.61067 0.790176 2.20415 2.1967C0.797627 3.60322 0.00745038 5.51088 0.00745038 7.5C-0.0432689 8.59 0.165531 9.67647 0.616672 10.67C1.06781 11.6636 1.7484 12.5358 2.60245 13.215C3.35245 13.9125 3.75745 14.31 3.75745 15H5.25745C5.25745 13.62 4.42495 12.8475 3.61495 12.105C2.91397 11.5682 2.3553 10.8677 1.98789 10.0649C1.62047 9.26205 1.45551 8.38138 1.50745 7.5C1.50745 5.9087 2.13959 4.38258 3.26481 3.25736C4.39003 2.13214 5.91615 1.5 7.50745 1.5C9.09875 1.5 10.6249 2.13214 11.7501 3.25736C12.8753 4.38258 13.5075 5.9087 13.5075 7.5C13.5585 8.38203 13.3924 9.26312 13.0237 10.066C12.6549 10.8689 12.0948 11.569 11.3925 12.105C10.59 12.855 9.75745 13.605 9.75745 15H11.2575C11.2575 14.31 11.655 13.9125 12.4125 13.2075C13.2659 12.5295 13.9462 11.6585 14.3973 10.6663C14.8485 9.67403 15.0576 8.58884 15.0075 7.5C15.0075 6.51509 14.8135 5.53982 14.4365 4.62987C14.0596 3.71993 13.5072 2.89314 12.8108 2.1967C12.1143 1.50026 11.2875 0.947814 10.3776 0.570904C9.46763 0.193993 8.49236 0 7.50745 0Z" fill="#6D6D77"/>
</svg>
