<svg width="16" height="20" viewBox="0 0 16 20" fill="none" xmlns="http://www.w3.org/2000/svg">
<path d="M1.99428 8.10161C1.99428 7.29677 1.99428 6.52512 1.99428 5.75347C2.01199 2.89918 3.96062 0.667195 6.93669 0.102976C10.2493 -0.519325 13.5797 1.75415 13.9429 4.89054C13.9872 5.27222 14.0049 5.66219 14.0137 6.04387C14.0226 6.71596 14.0137 7.39634 14.0137 8.08502C14.1555 8.11821 14.2617 8.1431 14.3769 8.16799C15.2981 8.33394 15.9712 8.98113 15.9801 9.84405C16.0066 12.6486 16.0066 15.4531 15.9801 18.2576C15.9712 19.1703 15.1918 19.8838 14.2086 19.9751C14.0492 19.9917 13.8809 20 13.7214 20C9.90391 20 6.07753 20 2.26 20C1.96771 20 1.66656 19.9834 1.39198 19.9004C0.550527 19.6681 0.019085 18.9877 0.0102276 18.1248C0.00137024 15.4199 -0.00748713 12.7066 0.0102276 10.0017C0.019085 8.98943 0.639101 8.34224 1.7197 8.1514C1.80827 8.1431 1.87913 8.1265 1.99428 8.10161ZM12.632 8.10161C12.632 7.07274 12.7117 6.09366 12.6143 5.12287C12.4194 3.09832 10.6745 1.48033 8.61074 1.29779C6.23696 1.09036 4.21748 2.29347 3.55318 4.34292C3.15459 5.57092 3.39374 6.83212 3.33174 8.10161C6.46725 8.10161 9.54076 8.10161 12.632 8.10161ZM8.02615 11.2629C7.17584 11.2546 6.44068 11.7276 6.14839 12.4577C5.85609 13.1962 6.00667 14.1421 6.7064 14.4989C7.39728 14.8556 7.36185 15.3369 7.34413 15.8928C7.34413 16.0173 7.34413 16.1417 7.35299 16.2662C7.3707 16.6479 7.601 16.847 7.99072 16.8719C8.37159 16.8968 8.63731 16.6562 8.66388 16.2579C8.68159 15.9177 8.6816 15.5692 8.67274 15.2207C8.66388 14.9884 8.7436 14.8556 8.97389 14.7395C9.80648 14.3246 10.1696 13.5032 9.9482 12.632C9.73562 11.8437 8.93846 11.2712 8.02615 11.2629Z" fill="#B2B2B2"/>
</svg>
