<svg width="92" height="57" viewBox="0 0 92 57" fill="none" xmlns="http://www.w3.org/2000/svg">
<path fill-rule="evenodd" clip-rule="evenodd" d="M89.181 16.8564C87.6382 14.8654 85.1887 14.4527 84.4737 14.3744C83.293 14.2493 81.4167 14.1573 79.042 14.0439C77.9992 13.993 76.8703 13.9402 75.6552 13.8777C69.6138 5.99935 58.8555 0.73999 46.6138 0.73999C34.4487 0.73999 23.7557 5.927 17.6932 13.7134C15.721 13.7838 12.7962 13.9011 10.7185 14.0224C8.82865 14.1319 7.15923 14.703 5.88848 15.6692C4.23248 16.9327 3.23965 18.8261 2.9349 21.3002C2.7509 22.8043 2.46915 24.6741 2.1759 26.6554C1.64882 30.178 1.10257 33.8198 0.920484 36.476C0.759484 38.8366 1.15432 40.5578 2.13182 41.7352C3.02307 42.813 4.35898 43.431 6.34082 43.6853C9.06248 44.0335 13.3999 44.3425 18.874 44.7063C25.0915 51.6966 35.202 56.2597 46.6138 56.2597C58.089 56.2597 68.2568 51.638 74.461 44.5713C76.9048 44.407 79.0208 44.2486 80.5215 44.1391C82.7602 43.9767 84.516 43.2276 85.7387 41.9153C86.6415 40.9412 87.2452 39.6815 87.5883 38.0544C89.0545 31.103 90.0302 23.6394 90.2965 21.5193C90.5285 19.6787 90.151 18.1121 89.181 16.8564Z" fill="#FEFEFE"/>
<path fill-rule="evenodd" clip-rule="evenodd" d="M49.5905 36.1505C48.7183 36.1546 47.8463 36.1584 46.9723 36.1584C46.9723 36.1584 48.6072 23.9499 48.7873 22.5534C49.6403 22.5534 51.4228 22.5611 51.4228 22.5611C51.12 24.916 49.8568 34.2201 49.5905 36.1505ZM51.8175 21.8375C51.8175 21.8375 49.441 21.8296 48.4922 21.8238C48.3178 21.8238 48.174 21.9587 48.149 22.1386C48.0685 22.7861 46.2363 36.4773 46.2363 36.4773C46.2248 36.5789 46.2535 36.6845 46.3168 36.7648C46.382 36.8429 46.4758 36.888 46.5793 36.888C47.6795 36.888 48.7873 36.8822 49.8913 36.8763C50.0562 36.8704 50.196 36.7432 50.2287 36.5653C50.3513 35.7262 51.9863 23.6623 52.155 22.2482C52.1645 22.1426 52.1395 22.035 52.0705 21.9587C52.0073 21.8845 51.9153 21.8375 51.8175 21.8375ZM56.571 19.8895C55.858 25.5594 55.0223 31.6325 53.949 39.0081C53.7343 40.4809 52.6398 41.6526 51.4553 41.6681C48.8947 41.7092 46.2343 41.723 43.6085 41.7092C43.0182 41.7072 42.495 41.4179 42.1327 40.9054C41.757 40.3694 41.598 39.6634 41.6975 38.8751C42.4777 32.6575 44.9272 14.366 45.3105 11.4498C45.3105 11.4498 46.75 11.4498 47.2905 11.4498C47.8635 11.4537 48.3733 11.7314 48.728 12.2341C49.1093 12.77 49.2645 13.4995 49.161 14.2819C49.161 14.2819 48.9522 15.9424 48.8678 16.5957C48.8545 16.6974 48.885 16.8011 48.9503 16.8852C49.0173 16.9615 49.1093 17.0084 49.2052 17.0084C51.024 17.0182 52.841 17.0378 54.662 17.0671C55.237 17.073 55.7563 17.3605 56.1205 17.8592C56.5058 18.4029 56.6648 19.1208 56.571 19.8895ZM56.6687 17.421C56.1742 16.7365 55.463 16.3512 54.6677 16.3414C52.9772 16.316 51.2905 16.2964 49.6 16.2827C49.667 15.7723 49.8453 14.3758 49.8453 14.3758C49.968 13.4096 49.7668 12.4864 49.278 11.7979C48.795 11.1075 48.0858 10.7261 47.2962 10.7202H45.0115C44.8428 10.7202 44.699 10.8513 44.6742 11.0292C44.2755 14.0511 41.7992 32.5595 41.0095 38.8145C40.8965 39.7553 41.0938 40.651 41.5788 41.3396C42.077 42.0417 42.794 42.4309 43.6028 42.4388C44.2468 42.4427 49.5233 42.4251 51.465 42.3957C52.9753 42.3781 54.3668 40.9308 54.6313 39.1157C55.7045 31.7342 56.5365 25.6573 57.2495 19.9833C57.3702 19.0288 57.167 18.1154 56.6687 17.421ZM41.3545 19.8229C40.5265 25.9214 39.6448 32.4715 38.838 39.0492C38.6597 40.4809 37.6208 41.6075 36.4728 41.6075H36.4248C33.8738 41.5469 31.2288 41.4569 28.5665 41.3396C27.9762 41.3082 27.4395 41.0051 27.0562 40.4809C26.6652 39.9509 26.4927 39.2624 26.5732 38.5466C27.2095 32.6868 28.0145 26.5687 29.017 19.8288C29.2412 18.3619 30.3663 17.1903 31.5815 17.161C34.2092 17.0983 36.8733 17.0554 39.5183 17.026C40.0857 17.026 40.5898 17.296 40.9385 17.783C41.3105 18.3169 41.4618 19.0445 41.3545 19.8229ZM41.4887 17.3447C41.0057 16.6759 40.308 16.3043 39.4935 16.3043C36.8618 16.3277 34.1938 16.3727 31.5642 16.4314C30.027 16.4685 28.6105 17.9139 28.3385 19.7193C27.334 26.4592 26.533 32.5929 25.885 38.4565C25.7893 39.3719 26.0135 40.2443 26.508 40.9308C27.0217 41.6291 27.7405 42.0281 28.5415 42.0671C31.2077 42.1845 33.8545 42.2705 36.4133 42.3292L36.4728 42.335C37.9582 42.335 39.296 40.9308 39.5183 39.1471C40.3253 32.5674 41.205 26.0171 42.035 19.9247C42.169 18.9545 41.9735 18.0391 41.4887 17.3447ZM34.3433 36.0625C33.4713 36.0431 32.5953 36.0293 31.7233 36.002C31.98 33.7254 33.1953 24.517 33.4732 22.6062C34.349 22.5963 35.2308 22.5845 36.1048 22.5807C35.7675 24.9609 34.5753 34.0481 34.3433 36.0625ZM36.5053 21.8511C35.3975 21.861 34.2878 21.8668 33.18 21.8786C33.015 21.8786 32.8752 22.0057 32.8465 22.172C32.6778 23.1302 31.1272 34.9048 31.0007 36.3306C30.9892 36.4263 31.0218 36.5261 31.083 36.6005C31.1483 36.6768 31.2383 36.7237 31.3342 36.7237C32.4343 36.749 33.5403 36.7745 34.6462 36.7921H34.65C34.8283 36.7921 34.974 36.6493 34.995 36.4656C35.0793 35.5209 36.6185 23.7249 36.8465 22.2756C36.8618 22.17 36.835 22.0623 36.766 21.9842C36.7008 21.8942 36.605 21.8434 36.5053 21.8511ZM10.7204 22.348C10.5594 22.3498 10.4253 22.4633 10.3869 22.6315C10.1818 23.4882 8.6581 34.2535 8.6006 35.5696C8.5891 35.7732 8.7386 35.951 8.9341 35.9589C9.3845 35.9883 11.8685 36.1408 12.5355 36.174C12.7118 36.174 12.869 36.0528 12.9035 35.8671C13.076 34.8226 13.5283 32.2858 13.5973 31.7812C13.6146 31.6677 13.5878 31.5661 13.5207 31.4858C13.4555 31.3998 13.3654 31.3548 13.2638 31.3548L12.6045 31.3332C12.363 31.3235 12.1158 31.1905 11.9356 30.9597C11.7113 30.6859 11.6098 30.3201 11.6558 29.9681C11.7976 28.9627 11.9375 28.0435 12.087 27.048L16.9822 27.0401C17.4325 27.0401 17.7508 27.1477 17.9175 27.3511C18.0805 27.5585 18.1322 27.885 18.0708 28.3389C18.0057 28.9157 17.1968 35.9023 16.7733 38.4565C16.5107 40.0545 15.8494 40.7137 14.4924 40.7293H14.3698C12.6812 40.7293 8.73475 40.4007 6.54593 40.0193C5.86743 39.9 5.19468 39.7239 4.8075 39.2448C4.41268 38.7578 4.27275 37.8718 4.27275 37.2067C4.27275 35.38 5.21768 27.2886 6.37918 20.7676C6.6226 19.4142 8.22493 18.2249 9.442 18.0978C12.0774 17.8259 15.4661 17.6792 17.4518 17.6792C17.8888 17.6792 18.4925 17.7986 18.9008 18.3463C19.261 18.8333 19.3953 19.5139 19.2765 20.265C19.0425 21.722 18.8125 23.1792 18.594 24.6285L15.6079 24.6481C15.0463 24.6481 14.5768 24.1297 14.5653 23.496C14.5691 23.3963 14.7416 22.3146 14.7416 22.3146C14.7416 22.3146 11.3338 22.3304 10.7204 22.348ZM15.6213 25.3972L18.9008 25.3717C19.0733 25.3658 19.215 25.2367 19.2458 25.0568C19.4758 23.5116 19.721 21.9508 19.974 20.3882C20.1235 19.4298 19.9415 18.5359 19.4547 17.8846C18.9985 17.2607 18.3028 16.9322 17.4518 16.9322C15.4508 16.9322 12.0353 17.0789 9.3711 17.3526C7.87993 17.5072 5.98625 18.9427 5.68343 20.6288C4.59475 26.7506 3.56168 35.1609 3.56168 37.2067C3.56168 37.6996 3.63068 38.9417 4.27275 39.7318C4.80175 40.3929 5.66235 40.6217 6.42325 40.7567C8.65043 41.1518 12.6543 41.4804 14.3698 41.4804H14.502C16.204 41.4569 17.149 40.5395 17.4748 38.5856C17.8965 36.0117 18.7072 29.0078 18.7723 28.4463C18.8663 27.7677 18.755 27.2396 18.4523 26.8621C18.1437 26.4865 17.6492 26.2911 16.9745 26.2911L11.7861 26.2969C11.6155 26.2969 11.4679 26.4299 11.4353 26.6176C11.4353 26.6176 11.0999 28.8297 10.9581 29.8645C10.8853 30.4277 11.0424 31.0046 11.3951 31.4447C11.7075 31.836 12.1407 32.0667 12.5853 32.0824L12.8364 32.0883C12.7828 32.4442 12.4052 34.5586 12.2595 35.4094C11.6788 35.376 9.68735 35.2548 9.33468 35.2333C9.5436 33.1346 10.7128 24.8359 11.0175 23.0892C11.5542 23.0815 13.5207 23.058 13.9059 23.0501C13.8695 23.2907 13.8599 23.5058 13.8599 23.5058C13.881 24.5464 14.663 25.3972 15.6213 25.3972ZM69.1347 38.48C68.895 39.8805 67.7375 41.0735 66.5548 41.1439C63.9558 41.2789 61.307 41.4002 58.6908 41.4862L58.6218 41.4921C58.064 41.4921 57.5887 41.2418 57.2495 40.7645C56.893 40.2502 56.7568 39.5597 56.8718 38.8145C58.1023 30.5 59.0415 23.6037 59.81 17.1669C60.4752 17.1845 61.1365 17.198 61.8035 17.2177C62.388 17.2333 62.915 17.5189 63.2812 18.0254C63.6703 18.5476 63.8313 19.2557 63.743 20.0127C63.1087 25.139 62.3727 30.4257 61.4872 36.1839C61.47 36.2895 61.5005 36.399 61.5677 36.4773C61.6348 36.5613 61.7345 36.6005 61.8322 36.6005C62.8805 36.5692 63.929 36.5437 64.9698 36.5105C65.1345 36.5046 65.2745 36.3775 65.3013 36.2074C66.2137 30.4179 66.9593 25.0959 67.5822 19.9247C67.7528 18.5359 68.7628 17.4934 69.934 17.4934L72.1438 17.5853C71.3963 24.1904 70.413 31.0301 69.1347 38.48ZM72.7878 16.9985C72.7265 16.9204 72.6307 16.8773 72.5405 16.8676L69.934 16.7619C68.4217 16.7619 67.1165 18.0822 66.9018 19.8366C66.2903 24.9063 65.5563 30.1303 64.667 35.7926C63.8562 35.8181 63.0473 35.8416 62.2347 35.8671C63.0915 30.2693 63.8063 25.1096 64.4197 20.1045C64.5347 19.152 64.3238 18.2562 63.8235 17.5776C63.3272 16.8988 62.6142 16.5116 61.8225 16.4881C61.052 16.4705 60.2835 16.449 59.515 16.4314C59.331 16.4314 59.1853 16.5664 59.1642 16.7522C58.3898 23.2751 57.443 30.2497 56.1895 38.703C56.0495 39.6438 56.2317 40.5219 56.6975 41.1987C57.167 41.8559 57.8532 42.2197 58.6218 42.2197L58.7138 42.2159C61.3377 42.1278 63.9865 42.0105 66.595 41.8676C68.0997 41.7796 69.5123 40.3479 69.8075 38.6052C71.1165 31.0008 72.119 24.0221 72.8703 17.2802C72.878 17.1746 72.8492 17.073 72.7878 16.9985ZM86.9827 20.926C86.8063 22.1993 86.628 23.457 86.446 24.6775C85.482 24.6617 84.5235 24.65 83.5575 24.6402C83.0037 24.6344 82.5225 24.1259 82.4938 23.5136C82.4862 23.2945 82.626 22.8369 82.626 22.8369C82.6548 22.7235 82.6395 22.6062 82.5725 22.5103C82.5092 22.4144 82.4018 22.3597 82.2925 22.3539C82.2925 22.3539 79.822 22.2932 79.0765 22.2756C78.8848 22.2756 78.739 22.4144 78.716 22.6062C78.6643 22.9758 78.1525 26.0719 78.0913 26.5041C78.074 26.6118 78.1047 26.7233 78.1718 26.8074C78.2408 26.8934 78.3405 26.9404 78.44 26.9404H83.8528C84.4393 26.9404 84.9568 27.1848 85.3113 27.623C85.6525 28.0455 85.8173 28.4483 85.712 29.3578C85.2653 33.2246 84.861 35.2059 84.3128 37.332C83.962 38.6971 82.7008 39.9607 81.5623 40.0898C77.8958 40.5142 73.6427 40.7431 73.6427 40.7431C73.0543 40.7724 72.554 40.5553 72.23 40.1074C71.889 39.6477 71.7682 38.9945 71.8908 38.2864C72.1458 36.8117 72.3873 35.3507 72.623 33.8897C73.6255 33.8563 74.626 33.8251 75.6628 33.7859C76.1975 33.7859 76.6135 34.267 76.6173 34.8831C76.6212 35.1257 76.5158 35.6617 76.5158 35.6617C76.5043 35.7732 76.533 35.8865 76.6058 35.9745C76.6768 36.0567 76.7803 36.1056 76.8895 36.0939C77.9648 36.0372 79.0247 35.9785 80.098 35.9237C80.261 35.912 80.399 35.7888 80.4315 35.6186C80.5503 34.9594 80.928 32.8432 81.0908 31.8496C81.1062 31.7381 81.0793 31.6227 81.0103 31.5347C80.9395 31.4506 80.832 31.4076 80.7285 31.4076C79.774 31.4447 75.4482 31.4546 75.4482 31.4546C74.2368 31.4546 73.361 30.5744 73.4893 29.2561C73.7175 27.0146 74.716 20.6229 74.7697 20.1671C74.9268 18.8333 75.9465 17.8259 77.1405 17.8259C80.6347 17.8945 83.4503 18.1174 84.88 18.309C85.4628 18.3853 86.1795 18.8234 86.5055 19.2675C86.8773 19.7721 87.0593 20.2747 86.9827 20.926ZM87.0862 18.8351C86.6665 18.2562 85.777 17.6733 84.9683 17.558C83.571 17.3623 79.7243 17.1141 77.1405 17.073C75.5862 17.073 74.2675 18.3619 74.0605 20.0772C74.0125 20.5211 73.0178 26.9345 72.782 29.2131C72.5732 31.1964 73.9685 32.2016 75.4482 32.2134C75.4482 32.2134 78.948 32.2016 80.3145 32.1704C80.1535 33.0994 79.914 34.4665 79.7818 35.1883C78.9518 35.2334 78.118 35.2783 77.2863 35.3155C77.2863 35.3155 77.3303 35.0339 77.3303 34.8831C77.3303 33.8446 76.5943 33.033 75.6628 33.033L72.3087 33.1445C72.138 33.1542 71.9963 33.2813 71.9713 33.4593C71.7203 35.0201 71.4595 36.5809 71.1932 38.1514C71.0283 39.0785 71.2028 39.9392 71.6665 40.5689C72.1055 41.1694 72.763 41.5 73.5277 41.5C73.5795 41.5 77.9495 41.2671 81.637 40.8408C83.088 40.6745 84.5638 39.2233 85.0028 37.5294C85.5605 35.3722 85.965 33.3596 86.4173 29.4458C86.5342 28.4366 86.379 27.7853 85.8557 27.132C85.3593 26.5217 84.652 26.1834 83.8528 26.1834H78.8598C78.923 25.7982 79.3065 23.496 79.3735 23.0404C80.0175 23.0501 81.8192 23.0991 81.8192 23.0991C81.8192 23.0991 81.7713 23.2769 81.7808 23.545C81.8268 24.5542 82.6223 25.3854 83.5557 25.3933C84.6098 25.405 85.664 25.4168 86.7393 25.4344C86.9405 25.4285 87.069 25.2954 87.0977 25.1155C87.3008 23.7973 87.4963 22.4203 87.6842 21.0278C87.803 20.0655 87.4868 19.3731 87.0862 18.8351ZM27.1233 14.589C25.565 24.3116 24.4112 32.9802 23.6062 41.0852C22.9507 41.0442 22.299 41.0051 21.6455 40.9699C21.059 40.9308 20.526 40.6316 20.1447 40.1211C19.746 39.5949 19.5697 38.9065 19.6445 38.1789C20.4878 30.0893 21.7068 21.5518 23.3628 12.0952C24.0317 12.058 25.471 11.9798 25.471 11.9798C26.004 11.9798 26.4543 12.2086 26.763 12.6507C27.1213 13.1357 27.246 13.8281 27.1233 14.589ZM27.311 12.2067C26.8453 11.5573 26.161 11.2151 25.3388 11.2522C24.576 11.2952 23.819 11.3363 23.0542 11.3833C22.897 11.3911 22.7648 11.5123 22.736 11.6786C21.0513 21.2683 19.817 29.9074 18.962 38.1006C18.8663 39.0198 19.0943 39.9 19.608 40.5768C20.112 41.2457 20.825 41.6447 21.6033 41.6936C22.37 41.7464 23.1328 41.7875 23.8937 41.8286H23.9148C24.0853 41.8286 24.2348 41.6916 24.254 41.5059C25.061 33.3126 26.2243 24.5542 27.8018 14.7141C27.9532 13.7499 27.7825 12.8619 27.311 12.2067Z" fill="#C64C27"/>
<path fill-rule="evenodd" clip-rule="evenodd" d="M51.8188 21.8347C51.8188 21.8347 49.4441 21.8269 48.4934 21.823C48.3209 21.823 48.1753 21.9559 48.1503 22.136C48.0698 22.7833 46.2394 36.4745 46.2394 36.4745C46.2261 36.5781 46.2548 36.6819 46.3181 36.764C46.3831 36.8403 46.4791 36.8873 46.5806 36.8873C47.6808 36.8873 48.7886 36.8794 49.8926 36.8735C50.0593 36.8697 50.1993 36.7406 50.2299 36.5645C50.3546 35.7235 51.9876 23.6616 52.1581 22.2455C52.1676 22.1419 52.1408 22.0342 52.0718 21.9559C52.0086 21.8817 51.9186 21.8347 51.8188 21.8347ZM56.5721 19.8867C55.8591 25.5568 55.0254 31.6299 53.9521 39.0055C53.7356 40.4801 52.6431 41.6498 51.4566 41.6674C48.8959 41.7085 46.2356 41.7202 43.6098 41.7085C43.0194 41.7046 42.4961 41.4151 42.1358 40.9046C41.7583 40.3668 41.5991 39.6627 41.6988 38.8724C42.4789 32.6567 44.9284 14.3652 45.3118 11.447C45.3118 11.447 46.7511 11.447 47.2936 11.447C47.8648 11.4509 48.3766 11.7287 48.7291 12.2313C49.1106 12.7692 49.2658 13.4988 49.1643 14.2791C49.1643 14.2791 48.9553 15.9397 48.8691 16.5929C48.8576 16.6966 48.8863 16.8003 48.9516 16.8845C49.0186 16.9607 49.1106 17.0077 49.2083 17.0077C51.0253 17.0154 52.8423 17.035 54.6631 17.0663C55.2401 17.0702 55.7596 17.3577 56.1218 17.8565C56.507 18.4022 56.6681 19.118 56.5721 19.8867ZM41.3558 19.8221C40.5278 25.9186 39.6461 32.4689 38.8391 39.0484C38.6609 40.4801 37.6241 41.6048 36.4741 41.6048H36.4281C33.8769 41.5442 31.2319 41.4541 28.5696 41.3368C27.9793 41.3074 27.4408 41.0043 27.0574 40.4801C26.6664 39.9482 26.4958 39.2596 26.5744 38.5438C27.2126 32.684 28.0176 26.5661 29.0181 19.828C29.2424 18.3611 30.3676 17.1896 31.5826 17.1582C34.2104 17.0957 36.8766 17.0526 39.5196 17.0233C40.0869 17.0233 40.5911 17.2952 40.9418 17.7822C41.3116 18.3162 41.4651 19.0417 41.3558 19.8221ZM36.5086 21.8485C35.3988 21.8602 34.2891 21.8641 33.1811 21.8758C33.0163 21.8758 32.8764 22.0029 32.8496 22.1692C32.6809 23.1295 31.1303 34.904 31.0019 36.3278C30.9904 36.4237 31.0249 36.5253 31.0863 36.5997C31.1496 36.674 31.2396 36.721 31.3354 36.721C32.4376 36.7483 33.5434 36.7738 34.6493 36.7894H34.6513C34.8296 36.7894 34.9751 36.6467 34.9963 36.4628C35.0826 35.5201 36.6216 23.7221 36.8478 22.2748C36.8651 22.1672 36.8381 22.0597 36.7673 21.9814C36.7021 21.8934 36.6063 21.8406 36.5086 21.8485ZM10.7217 22.3472C10.5626 22.3472 10.4284 22.4606 10.3882 22.6307C10.1831 23.4856 8.65933 34.2507 8.60374 35.567C8.59224 35.7704 8.73983 35.9503 8.93533 35.9582C9.38574 35.9855 11.8697 36.138 12.5367 36.1733C12.7131 36.1733 12.8702 36.05 12.9047 35.8663C13.0792 34.8218 13.5296 32.283 13.6005 31.7784C13.6177 31.6651 13.589 31.5653 13.5219 31.4832C13.4587 31.399 13.3667 31.3521 13.2651 31.3521L12.6057 31.3306C12.3642 31.3207 12.1189 31.1878 11.9368 30.9569C11.7126 30.6831 11.611 30.3173 11.6589 29.9673C11.8007 28.9601 11.9387 28.0407 12.0882 27.0472L16.9834 27.0393C17.4338 27.0393 17.7521 27.147 17.9188 27.3503C18.0816 27.5557 18.1353 27.8843 18.0741 28.3381C18.0069 28.9131 17.1981 35.8995 16.7764 38.4558C16.5138 40.0518 15.8507 40.713 14.4956 40.7265H14.371C12.6824 40.7265 8.73599 40.398 6.54716 40.0166C5.86866 39.8974 5.19591 39.7213 4.81066 39.242C4.41391 38.755 4.27399 37.869 4.27399 37.2041C4.27399 35.3793 5.21891 27.2878 6.38041 20.7648C6.62383 19.4134 8.22616 18.2223 9.44516 18.095C12.0787 17.8251 15.4692 17.6784 17.4549 17.6784C17.8901 17.6784 18.4956 17.7978 18.9021 18.3435C19.2643 18.8305 19.3966 19.5132 19.2776 20.2642C19.0438 21.7194 18.8138 23.1784 18.5953 24.6257L15.6092 24.6453C15.0476 24.6453 14.5799 24.127 14.5665 23.4933C14.5703 23.3935 14.7428 22.3139 14.7428 22.3139C14.7428 22.3139 11.335 22.3276 10.7217 22.3472ZM69.1359 38.4774C68.8983 39.8798 67.7386 41.0709 66.5561 41.1413C63.9571 41.2763 61.3101 41.3975 58.6921 41.4835L58.6231 41.4893C58.0671 41.4893 57.5918 41.239 57.2506 40.7618C56.8941 40.2494 56.7581 39.557 56.8751 38.8118C58.1036 30.4974 59.0446 23.6009 59.8113 17.1641C60.4783 17.1817 61.1376 17.1954 61.8046 17.2169C62.3911 17.2306 62.9163 17.5161 63.2824 18.0246C63.6716 18.5468 63.8344 19.255 63.7463 20.0099C63.1118 25.1362 62.3758 30.425 61.4884 36.1811C61.4731 36.2867 61.5038 36.3962 61.5689 36.4745C61.6361 36.5605 61.7356 36.5997 61.8353 36.5997C62.8818 36.5684 63.9303 36.5411 64.9729 36.5077C65.1358 36.5018 65.2758 36.3748 65.3026 36.2046C66.2149 30.4171 66.9606 25.0951 67.5853 19.9219C67.7541 18.5351 68.7661 17.4927 69.9351 17.4927L72.1451 17.5827C71.3976 24.1877 70.4143 31.0293 69.1359 38.4774ZM86.9839 20.9232C86.8096 22.1965 86.6293 23.4542 86.4473 24.6747C85.4831 24.6609 84.5248 24.6473 83.5588 24.6375C83.0049 24.6336 82.5238 24.1231 82.4951 23.5109C82.4874 23.2938 82.6293 22.8361 82.6293 22.8361C82.6581 22.7228 82.6426 22.6054 82.5736 22.5095C82.5104 22.4118 82.4051 22.357 82.2938 22.3511C82.2938 22.3511 79.8233 22.2904 79.0796 22.2748C78.8861 22.2728 78.7403 22.4118 78.7173 22.6054C78.6656 22.9731 78.1558 26.0692 78.0926 26.5034C78.0771 26.609 78.1078 26.7225 78.1731 26.8046C78.2439 26.8906 78.3416 26.9376 78.4433 26.9376H83.8559C84.4406 26.9376 84.9581 27.1822 85.3126 27.6202C85.6556 28.0427 85.8206 28.4476 85.7131 29.355C85.2666 33.2218 84.8641 35.2032 84.3159 37.3292C83.9633 38.6945 82.7041 39.9599 81.5656 40.089C77.8971 40.5135 73.6458 40.7423 73.6458 40.7423C73.0574 40.7716 72.5571 40.5525 72.2313 40.1046C71.8901 39.6451 71.7713 38.9917 71.8921 38.2856C72.1471 36.811 72.3886 35.3479 72.6243 33.8889C73.6266 33.8537 74.6271 33.8223 75.6641 33.7833C76.1988 33.7833 76.6148 34.2644 76.6186 34.8805C76.6224 35.1229 76.5171 35.6589 76.5171 35.6589C76.5056 35.7704 76.5361 35.8857 76.6091 35.9719C76.6799 36.0541 76.7816 36.1028 76.8926 36.0911C77.9679 36.0364 79.0278 35.9758 80.0993 35.923C80.2621 35.9092 80.4021 35.788 80.4328 35.6158C80.5516 34.9568 80.9291 32.8404 81.0921 31.8488C81.1093 31.7355 81.0826 31.62 81.0116 31.5319C80.9406 31.4498 80.8333 31.4049 80.7298 31.4069C79.7753 31.4421 75.4494 31.4518 75.4494 31.4518C74.2401 31.4518 73.3641 30.5717 73.4926 29.2535C73.7186 27.012 74.7191 20.6201 74.7728 20.1645C74.9281 18.8305 75.9496 17.8251 77.1418 17.8251C80.6378 17.8917 83.4516 18.1167 84.8813 18.3063C85.4659 18.3825 86.1828 18.8208 86.5086 19.2667C86.8786 19.7713 87.0626 20.2739 86.9839 20.9232ZM27.1246 14.5862C25.5663 24.3089 24.4143 32.9774 23.6093 41.0826C22.9519 41.0434 22.3003 41.0043 21.6486 40.9671C21.0601 40.9301 20.5273 40.6288 20.1478 40.1203C19.7491 39.5941 19.5728 38.9037 19.6476 38.1761C20.4891 30.0885 21.7099 21.5492 23.3659 12.0925C24.0329 12.0553 25.4723 11.9771 25.4723 11.9771C26.0051 11.9771 26.4576 12.2079 26.7661 12.6479C27.1226 13.135 27.2491 13.8273 27.1246 14.5862Z" fill="#F27921"/>
<path fill-rule="evenodd" clip-rule="evenodd" d="M37.9012 52.8065C40.5404 53.3892 43.3177 53.7119 46.1851 53.7394V48.0497C42.2597 48.0849 38.5222 48.5935 35.4114 49.4795C36.5097 51.0794 37.4239 52.2333 37.9012 52.8065ZM31.6969 50.8682C33.2419 51.5039 34.8576 52.0455 36.5384 52.4818C36.0037 51.7952 35.3176 50.8682 34.5529 49.7377C33.5121 50.0702 32.5557 50.4477 31.6969 50.8682ZM31.8734 45.3467C27.2464 45.1668 23.6009 44.9908 22.2364 44.9242C24.6092 47.107 27.4497 48.965 30.6352 50.4066C31.6299 49.8648 32.7779 49.3857 34.0411 48.965C33.3472 47.8971 32.6036 46.6845 31.8734 45.3467ZM47.0284 48.0497V53.7336C49.7827 53.7002 52.4469 53.3951 54.9884 52.8476C55.4809 52.2471 56.4201 51.0638 57.5414 49.4209C54.4977 48.5739 50.8637 48.0889 47.0284 48.0497ZM34.3592 45.4426C33.8532 45.425 33.3569 45.4074 32.8699 45.3878C33.5542 46.6121 34.2442 47.727 34.8882 48.703C38.1389 47.7387 42.0642 47.1833 46.1851 47.1461V45.6186C45.7232 45.6186 45.2574 45.6205 44.7936 45.6205C40.9679 45.6205 37.5524 45.5618 34.3592 45.4426ZM58.9156 48.9005C60.2362 49.327 61.4264 49.8257 62.4614 50.385C65.6852 48.9221 68.5526 47.0327 70.9446 44.8069C67.7667 45.0084 64.3091 45.2059 61.0431 45.3388C60.3262 46.6493 59.6017 47.8443 58.9156 48.9005ZM30.8269 13.2663C30.8977 13.2663 30.9744 13.2643 31.0549 13.2643C32.0189 11.3378 33.0424 9.60879 33.9951 8.13797C32.7204 7.70376 31.5629 7.20111 30.5527 6.63781C29.3951 7.1659 28.2854 7.74874 27.2292 8.37658C27.9864 8.62108 28.6534 9.03181 29.2054 9.60684C30.0851 10.5124 30.6504 11.8092 30.8269 13.2663ZM56.3454 52.5267C58.1049 52.0789 59.7992 51.5136 61.4129 50.8427C60.5122 50.4085 59.5002 50.0173 58.4057 49.6732C57.6104 50.8526 56.8934 51.8167 56.3454 52.5267ZM61.9189 13.2917C65.7524 13.4091 69.8157 13.5479 72.4224 13.6946C69.8502 10.8977 66.5669 8.5272 62.7796 6.76298C61.6889 7.34584 60.4412 7.86023 59.0689 8.29836C59.9909 9.72614 60.9817 11.4121 61.9189 13.2917ZM51.6149 9.81221C52.2801 10.6904 52.6979 11.7818 52.8436 13.0296C53.5547 13.0512 54.6299 13.0785 55.7952 13.1157C57.2826 13.1568 59.0727 13.2057 60.9529 13.2643C60.0484 11.4904 59.0977 9.90413 58.2199 8.56435C56.2131 9.13938 53.9782 9.56381 51.6149 9.81221ZM60.0444 45.3819C58.6684 45.4309 57.3382 45.4719 56.0847 45.4934C53.3726 45.5442 50.2542 45.5951 47.0284 45.6146V47.1501C51.0554 47.1891 54.8772 47.7152 58.0646 48.6364C58.6989 47.6723 59.3756 46.5789 60.0444 45.3819ZM41.5352 13.0883C41.6311 12.4448 41.7557 11.5666 41.8362 10.8625C41.8784 10.4753 41.9589 10.1291 42.0662 9.82395C39.4576 9.55794 37.0024 9.07679 34.8384 8.41179C33.9319 9.79265 32.9504 11.4278 32.0152 13.2526C34.8212 13.2096 39.5784 13.1216 41.5352 13.0883ZM35.3809 7.59424C37.5256 8.22989 39.9559 8.68757 42.5396 8.92227C43.5649 7.55511 45.3571 7.55511 46.0682 7.55511H46.1851V3.26782C43.3177 3.29129 40.5424 3.61401 37.9012 4.19882C37.3722 4.84622 36.4561 6.02171 35.3809 7.59424ZM57.6697 7.73506C56.4297 5.9063 55.4099 4.65845 54.9922 4.16167C52.4507 3.61205 49.7827 3.30303 47.0284 3.26978V7.57271C48.4697 7.60792 49.7827 8.0832 50.7927 8.94184C53.2576 8.72277 55.5902 8.314 57.6697 7.73506ZM61.6794 6.2701C59.9947 5.5523 58.2179 4.95574 56.3664 4.48243C56.9261 5.19632 57.6832 6.21925 58.5322 7.48275C59.6764 7.12873 60.7326 6.72387 61.6794 6.2701ZM36.5442 4.52154C34.8422 4.96161 33.2054 5.50926 31.6414 6.16057C32.5116 6.59282 33.4794 6.98204 34.5259 7.32627C35.2984 6.18795 35.9904 5.23348 36.5442 4.52154Z" fill="#06AA4D"/>
</svg>
