<svg width="24" height="24" viewBox="0 0 24 24" fill="none" xmlns="http://www.w3.org/2000/svg">
<path d="M23.839 22.4999C22.1381 19.4237 19.4155 17.1149 16.1932 16.0161C17.7377 15.0519 18.938 13.582 19.6096 11.8321C20.2812 10.0823 20.387 8.14939 19.9107 6.33032C19.4345 4.51125 18.4025 2.90664 16.9734 1.76302C15.5442 0.61939 13.797 0 12 0C10.203 0 8.45578 0.61939 7.02664 1.76302C5.5975 2.90664 4.56554 4.51125 4.08929 6.33032C3.61303 8.14939 3.71883 10.0823 4.39043 11.8321C5.06203 13.582 6.26228 15.0519 7.80679 16.0161C4.58452 17.1149 1.86194 19.4237 0.161029 22.4999C0.089687 22.6085 0.0405222 22.7315 0.0166244 22.8611C-0.00727338 22.9906 -0.00538783 23.124 0.0221625 23.2527C0.0497129 23.3815 0.102333 23.5029 0.176715 23.6093C0.251098 23.7157 0.345636 23.8048 0.454388 23.8709C0.563141 23.9371 0.683757 23.979 0.808659 23.9939C0.93356 24.0088 1.06005 23.9964 1.18017 23.9575C1.3003 23.9186 1.41146 23.8541 1.50668 23.7679C1.6019 23.6818 1.67912 23.5759 1.73348 23.4569C2.77538 21.5667 4.2724 19.9975 6.07437 18.9066C7.87634 17.8156 9.91988 17.2414 12 17.2414C14.0801 17.2414 16.1237 17.8156 17.9256 18.9066C19.7276 19.9975 21.2246 21.5667 22.2665 23.4569C22.3209 23.5759 22.3981 23.6818 22.4933 23.7679C22.5885 23.8541 22.6997 23.9186 22.8198 23.9575C22.94 23.9964 23.0664 24.0088 23.1913 23.9939C23.3162 23.979 23.4369 23.9371 23.5456 23.8709C23.6544 23.8048 23.7489 23.7157 23.8233 23.6093C23.8977 23.5029 23.9503 23.3815 23.9778 23.2527C24.0054 23.124 24.0073 22.9906 23.9834 22.8611C23.9595 22.7315 23.9103 22.6085 23.839 22.4999ZM5.61903 8.62324C5.61903 7.2983 5.99327 6.0031 6.69442 4.90145C7.39557 3.7998 8.39214 2.94116 9.55811 2.43413C10.7241 1.92709 12.0071 1.79443 13.2449 2.05291C14.4827 2.31139 15.6196 2.94942 16.512 3.8863C17.4044 4.82318 18.0121 6.01683 18.2584 7.31632C18.5046 8.61581 18.3782 9.96277 17.8952 11.1869C17.4123 12.411 16.5944 13.4572 15.5451 14.1933C14.4957 14.9294 13.262 15.3223 12 15.3223C10.3077 15.3223 8.68464 14.6165 7.48798 13.3602C6.29131 12.1039 5.61903 10.3999 5.61903 8.62324Z" fill="white"/>
</svg>
