<?xml version="1.0" encoding="iso-8859-1"?>
<!DOCTYPE svg PUBLIC "-//W3C//DTD SVG 1.1//EN" "http://www.w3.org/Graphics/SVG/1.1/DTD/svg11.dtd">
<svg 
 version="1.1" xmlns="http://www.w3.org/2000/svg" xmlns:xlink="http://www.w3.org/1999/xlink" x="0px" y="0px" width="512px"
	 height="512px" viewBox="0 0 512 512" style="enable-background:new 0 0 512 512;" xml:space="preserve"
><g id="afcae5a789ccd549f9c6e2a2f8128af9"><g></g><g fill="#ffffff"><path style="display: inline; fill-rule: evenodd; clip-rule: evenodd;" d="M340.323,293.443l-14.188-14.188
		c0,0,69.659-57.929,111.606-120.839C487.98,83.072,512,0.5,512,0.5s-82.576,24.02-157.92,74.25
		c-62.906,41.951-120.839,111.606-120.839,111.606l-14.188-14.189l-79.923,1.709L1,312.007l124.074,0.591l50.227-50.227
		l-28.295,72.158l15.478,15.482l15.486,15.482l72.159-28.299l-50.227,50.23l0.591,124.074l138.13-138.13L340.323,293.443z
		 M177.089,329.955c0,0,2.969-37.119,26.972-75.66c9.436-15.141,21.021-30.661,32.541-44.896l30.523,30.52L177.089,329.955z
		 M276.964,230.08l-31.459-31.459c22.498-26.706,42.45-46.617,42.45-46.617s51.981-47.191,101.726-79.981
		c48.639-32.054,95.061-49.719,95.061-49.719L276.964,230.08z"></path></g></g></svg>