<svg xmlns="http://www.w3.org/2000/svg" width="1024" height="331" style="shape-rendering:geometricPrecision;text-rendering:geometricPrecision;image-rendering:optimizeQuality;fill-rule:evenodd;clip-rule:evenodd"><path style="opacity:.974" fill="#ffffff" d="M163.5 59.5c19.495-1.36 28.662 7.64 27.5 27-5.149 13.992-14.982 19.159-29.5 15.5-14.314-7.615-17.814-18.782-10.5-33.5 3.222-4.357 7.389-7.357 12.5-9Z"/><path style="opacity:.949" fill="#ffffff" d="M347.5 104.5c14.337-.167 28.671 0 43 .5 25.385 2.389 36.219 16.223 32.5 41.5-3.059 12.059-10.559 19.892-22.5 23.5a2063.474 2063.474 0 0 1 32 52 60.713 60.713 0 0 1-19-.5l-27-46a133.155 133.155 0 0 0-23-1v48h-16v-118Zm16 14c8.673-.166 17.34 0 26 .5 11.598 1.599 17.598 8.266 18 20-.032 12.698-6.365 19.698-19 21-8.327.5-16.66.666-25 .5v-42Z"/><path style="opacity:.975" fill="#ffffff" d="M542.5 104.5h67v14h-51v41h47v13h-47v50h-16v-118Z"/><path style="opacity:.974" fill="#ffffff" d="M75.5 123.5c18.784-1.381 27.951 7.286 27.5 26-6.733 17.649-18.566 22.149-35.5 13.5-8.8-9.032-10.3-19.199-4.5-30.5 3.26-4.369 7.427-7.369 12.5-9ZM250.5 123.5c17.031-2.443 26.697 4.723 29 21.5-.686 13.686-7.852 21.186-21.5 22.5-18.192-2.712-25.192-13.045-21-31 3.076-5.911 7.576-10.245 13.5-13Z"/><path style="opacity:.963" fill="#ffffff" d="M472.5 132.5c23.095-3.884 38.262 5.116 45.5 27a118.112 118.112 0 0 1 1.5 22h-60c-.106 18.226 8.894 28.226 27 30a112.213 112.213 0 0 0 29-6 43.117 43.117 0 0 1-1 13c-18.602 8.432-36.935 7.932-55-1.5-8.383-6.931-13.55-15.764-15.5-26.5-3.477-18.312.523-34.646 12-49 5.066-3.947 10.566-6.947 16.5-9Zm7 12c16.076.412 24.076 8.745 24 25h-44c.795-13.35 7.461-21.684 20-25Z"/><path style="opacity:.965" fill="#ffffff" d="M651.5 132.5c26.458-3.978 43.291 6.689 50.5 32 3.46 16.461.793 31.795-8 46-10.54 10.848-23.374 15.348-38.5 13.5-16.838-3.169-27.671-13.002-32.5-29.5-3-13.385-2.333-26.718 2-40 5.479-11.475 14.313-18.808 26.5-22Zm3 13c16.298-2.946 26.798 3.388 31.5 19 2.857 12.83 1.524 25.164-4 37-9.958 10.948-21.458 12.781-34.5 5.5-7.913-7.936-11.58-17.603-11-29-.076-8.771 2.091-16.938 6.5-24.5 3.482-3.339 7.315-6.006 11.5-8Z"/><path style="opacity:.961" fill="#ffffff" d="M751.5 132.5a106.469 106.469 0 0 1 30 2.5c1.723.523 3.056 1.523 4 3-1.198 4.227-3.032 8.06-5.5 11.5-11.315-5.421-22.481-5.255-33.5.5-5.41 4.986-8.577 11.153-9.5 18.5-3.947 37.09 11.553 49.423 46.5 37 1.333 4.667 1.333 9.333 0 14-16.976 7.411-33.309 6.244-49-3.5-10.227-10.139-14.894-22.472-14-37-1.609-23.827 8.725-39.327 31-46.5Z"/><path style="opacity:.963" fill="#ffffff" d="M922.5 132.5c13.908-1.434 27.241.566 40 6a136.15 136.15 0 0 1-6 12c-11.622-5.832-23.622-6.998-36-3.5-7.495 4.838-7.828 10.172-1 16a509.532 509.532 0 0 0 33 15c10.162 6.471 13.662 15.637 10.5 27.5-3.72 9.958-10.887 15.791-21.5 17.5-13.681 2.655-27.014 1.488-40-3.5-1.333-5-1.333-10 0-15 13.053 7.258 26.719 8.758 41 4.5 5.609-3.277 7.442-8.11 5.5-14.5l-4.5-4.5a1206.437 1206.437 0 0 1-36-17c-6.592-6.886-8.759-15.052-6.5-24.5 1.717-5.049 4.884-8.882 9.5-11.5 4.071-1.63 8.071-3.13 12-4.5ZM803.5 133.5h15a790.99 790.99 0 0 0 1.5 67c3.592 7.468 9.592 11.135 18 11 16.075-1.077 24.408-9.744 25-26 .5-17.33.667-34.663.5-52h15v89h-13a93.497 93.497 0 0 0-1.5-11c-7.674 9.064-17.507 13.397-29.5 13-14.103.71-23.936-5.29-29.5-18l-1-5a2311.03 2311.03 0 0 1-.5-68Z"/><path style="opacity:.976" fill="#ffffff" d="M110.5 226.5c21.306.79 29.473 11.457 24.5 32-8.535 12.55-19.701 15.384-33.5 8.5-12.128-12.652-11.795-24.985 1-37a102.128 102.128 0 0 0 8-3.5ZM219.5 226.5c19.507.325 28.007 9.992 25.5 29-5.217 12.028-14.384 16.861-27.5 14.5-11.661-4.479-16.828-12.979-15.5-25.5 2.692-9.191 8.525-15.191 17.5-18Z"/></svg>