<svg width="23" height="23" viewBox="0 0 23 23" fill="none" xmlns="http://www.w3.org/2000/svg">
<path d="M19.6197 0.827005L2.00796 6.87042C0.849814 7.26765 0.240788 8.53243 0.64988 9.70084C0.859098 10.2958 1.30776 10.7751 1.88451 11.0273L9.1354 14.1632L12.2743 21.411C12.7664 22.546 14.0862 23.0759 15.2162 22.5893C15.4741 22.4798 15.7041 22.324 15.9001 22.1281C16.1389 21.8893 16.3159 21.6009 16.4282 21.2845L22.4716 3.67273C22.8688 2.51458 22.2499 1.24047 21.0846 0.828317C20.6098 0.665875 20.0928 0.66324 19.6197 0.827005ZM2.46533 9.66085C2.1816 9.54247 2.00167 9.25843 2.01241 8.95075C2.017 8.64303 2.21257 8.37322 2.50751 8.27625L19.9564 2.28432L9.52501 12.7157L2.46533 9.66085ZM15.0193 20.788C14.8858 21.1751 14.4653 21.3791 14.0768 21.2417C13.8795 21.173 13.7187 21.0245 13.6347 20.8302L10.5798 13.7705L21.0112 3.33908L15.0193 20.788Z" fill="#F57921"/>
</svg>
