<svg width="25" height="25" viewBox="0 0 25 25" fill="none" xmlns="http://www.w3.org/2000/svg">
<path d="M23.8768 7.79661C22.2123 3.22034 19.2161 0 16.5528 0C16.1367 0 15.8037 0.0847458 15.4708 0.169492C14.7218 0.423729 14.056 1.01695 13.6398 1.77966C8.64618 7.54237 1.7383 10.1695 1.65507 10.1695C-0.0094776 10.7627 -0.508842 13.4746 0.573115 16.4407C1.48862 18.9831 3.15317 20.5932 4.65126 20.5932C4.81772 20.5932 5.0674 20.5932 5.23385 20.5085C5.40031 20.4237 6.31581 20.2542 7.98036 20L9.64491 23.5593C9.72814 23.7288 9.89459 23.8983 10.1443 23.9831L12.8076 24.9153C12.8908 24.9153 12.974 25 13.0572 25C13.2237 25 13.3901 24.9153 13.5566 24.8305C13.8063 24.661 13.8895 24.322 13.8895 24.0678L13.3069 19.2373C15.3876 19.0678 17.718 18.9831 20.0483 19.1525H20.2148C20.5477 19.2373 20.8806 19.322 21.2135 19.322C21.6297 19.322 21.9626 19.2373 22.2955 19.1525C23.7104 18.6441 24.7091 17.0339 24.9588 14.7458C25.1252 12.7119 24.7923 10.1695 23.8768 7.79661ZM10.9765 22.4576L9.72814 19.661L11.6424 19.4068L12.0585 22.7966L10.9765 22.4576ZM16.9689 14.322C16.3863 13.3898 15.8037 12.2881 15.3044 10.9322C14.8882 9.66102 14.5553 8.47458 14.4721 7.28814C14.7218 7.28814 15.0547 7.54237 15.3876 7.79661C15.9702 8.38983 16.5528 9.32203 16.8857 10.339C17.5515 12.2881 17.3851 13.8136 16.9689 14.322ZM4.81772 18.8983C4.73449 18.8983 4.73449 18.8983 4.73449 18.8983C4.1519 19.0678 2.90348 17.9661 2.07121 15.8475C1.32216 13.7288 1.65507 11.9492 2.15444 11.7797C2.40412 11.6949 7.8139 9.66102 12.7243 5.08475C12.6411 7.0339 12.974 9.32203 13.7231 11.5254C14.6386 13.9831 15.887 16.017 17.3018 17.4576C10.8101 17.3729 5.0674 18.8136 4.81772 18.8983ZM23.211 14.5763C23.0445 16.1864 22.4619 17.2034 21.6297 17.5424C21.4632 17.6271 21.2968 17.6271 21.1303 17.6271C20.2148 17.6271 19.1328 16.9492 17.9677 15.5932C19.1328 14.5763 19.3825 12.2881 18.467 9.74576C17.9677 8.47458 17.3018 7.37288 16.5528 6.61017C15.887 5.9322 15.1379 5.59322 14.3889 5.59322C14.3889 5.25424 14.3889 5 14.4721 4.74576C14.6386 3.13559 15.2212 2.11864 16.0534 1.77966C16.2199 1.69492 16.3863 1.69492 16.5528 1.69492C18.2173 1.69492 20.7974 4.23729 22.2955 8.38983C23.1278 10.5085 23.4607 12.7966 23.211 14.5763Z" fill="#F57921"/>
</svg>
