<svg width="24" height="24" viewBox="0 0 24 24" fill="none" xmlns="http://www.w3.org/2000/svg">
<path fill-rule="evenodd" clip-rule="evenodd" d="M12 24C18.6274 24 24 18.6274 24 12C24 5.37258 18.6274 0 12 0C5.37258 0 0 5.37258 0 12C0 18.6274 5.37258 24 12 24ZM12.8622 7.44044C12.6826 6.88765 11.9005 6.88765 11.7209 7.44044L10.7318 10.4847H7.53082C6.94959 10.4847 6.70792 11.2285 7.17815 11.5701L9.76777 13.4516L8.77862 16.4959C8.59901 17.0487 9.2317 17.5083 9.70193 17.1667L12.2916 15.2852L14.8812 17.1667C15.3514 17.5083 15.9841 17.0487 15.8045 16.4959L14.8153 13.4516L17.405 11.5701C17.8752 11.2285 17.6335 10.4847 17.0523 10.4847H13.8513L12.8622 7.44044Z" fill="#0ED039"/>
</svg>
