<svg width="12" height="13" viewBox="0 0 12 13" fill="none" xmlns="http://www.w3.org/2000/svg">
<g clip-path="url(#clip0_503_567)">
<path d="M3.18779 8.16101V8.0918L0.950012 9.36064V9.4806L6.00231 12.4059V9.78974L3.18779 8.16101Z" fill="#A27025"/>
<path d="M8.81678 8.0918V8.16101L6.00226 9.78974V12.4059L11.0499 9.4806V9.36064L8.81678 8.0918Z" fill="#AE8C35"/>
<path d="M8.81678 8.09182L6.00226 6.5L8.81678 8.09182Z" stroke="white" stroke-width="0.0461397" stroke-miterlimit="10"/>
<path d="M0.977722 3.45016L3.20165 4.79743L6.00233 3.25175V0.672546L0.977722 3.45016Z" fill="#E6A23D"/>
<path d="M6.13606 0.594116L6.00226 0.672554V3.25176L6.07608 3.21024L8.79832 4.79744L6.00226 6.5L11.0223 3.44555L6.13606 0.594116Z" fill="#F5BD89"/>
<path d="M3.2016 4.79745L6.00228 6.5V3.25177L3.2016 4.79745Z" fill="#F5BD89"/>
<path d="M6.07608 3.21021L6.00226 3.25173V6.49996L8.79832 4.79741L6.07608 3.21021Z" fill="#F2D261"/>
<path d="M3.18774 8.09182V8.16103L6.00226 9.78976V6.5L3.18774 8.09182Z" fill="#F5BD89"/>
<path d="M6.00226 6.5V9.78976L8.81678 8.16103V8.09182L6.00226 6.5Z" fill="#F2D261"/>
<path d="M11.05 3.46401L11.0223 3.44556L8.79834 4.79745L8.8168 4.80668V8.09182L11.05 9.36066V3.46401Z" fill="#E6A23D"/>
<path d="M8.79832 4.79742L6.00226 6.49998L8.81678 8.0918V4.80665L8.79832 4.79742Z" fill="#F2D261"/>
<path d="M3.18779 4.8067L3.20163 4.79747L2.45878 4.34531L0.977696 3.4502L0.950012 3.46404V9.36069L3.18779 8.09185V4.8067Z" fill="#AE8C35"/>
<path d="M3.18774 4.80665V8.0918L6.00226 6.49998L3.20159 4.79742L3.18774 4.80665Z" fill="#F5BD89"/>
</g>
<defs>
<clipPath id="clip0_503_567">
<rect width="10.1" height="11.8118" fill="white" transform="translate(0.950012 0.594116)"/>
</clipPath>
</defs>
</svg>
