<svg width="25" height="24" viewBox="0 0 25 24" fill="none" xmlns="http://www.w3.org/2000/svg">
<g clip-path="url(#clip0_534_195)">
<path d="M24.5 24C16.4843 24 8.50626 24 0.5 24C0.5 15.9937 0.5 8.01566 0.5 0C8.48747 0 16.4749 0 24.5 0C24.5 7.97807 24.5 15.9655 24.5 24ZM16.4937 20.2976C16.4937 14.7345 16.4937 9.21848 16.4937 3.68363C15.3661 3.68363 14.2666 3.61785 13.186 3.71182C12.6034 3.75881 11.9832 3.98434 11.4851 4.29444C8.80697 5.95771 8.20556 10.177 10.3011 12.545C10.7803 13.0901 11.3818 13.5223 11.9644 14.0392C10.8367 16.0689 9.69029 18.1551 8.48747 20.3258C9.14526 20.3258 9.70908 20.307 10.2635 20.3352C10.6018 20.354 10.7616 20.2224 10.8931 19.9311C11.7013 18.1081 12.5282 16.285 13.3645 14.4714C13.4303 14.3211 13.5901 14.1425 13.7216 14.1237C14.0505 14.0767 14.3982 14.1049 14.7835 14.1049C14.7835 16.2099 14.7835 18.2584 14.7835 20.3352C15.2345 20.3352 15.6386 20.3352 16.0427 20.3352C16.1836 20.3164 16.3246 20.307 16.4937 20.2976Z" fill="#FF3D00"/>
<path d="M14.6801 5.05554C14.6801 7.62093 14.6801 10.1111 14.6801 12.6295C14.2103 12.6295 13.7686 12.6671 13.3364 12.6201C12.2651 12.5168 11.6073 11.859 11.2878 10.8817C10.8649 9.58491 10.8367 8.26932 11.2502 6.96314C11.6825 5.60996 12.4812 5.04614 13.8814 5.04614C14.1445 5.05554 14.3888 5.05554 14.6801 5.05554Z" fill="#FF3D00"/>
</g>
<defs>
<clipPath id="clip0_534_195">
<rect x="0.5" width="24" height="24" rx="12" fill="white"/>
</clipPath>
</defs>
</svg>
