<?xml version="1.0" encoding="utf-8"?><svg xmlns="http://www.w3.org/2000/svg" xmlns:xlink="http://www.w3.org/1999/xlink"><symbol viewBox="0 0 512 512" id="active" xmlns="http://www.w3.org/2000/svg"><path d="M73.309 32.617c0-30.716 20.467-41.269 45.492-23.451l301.121 214.439c25.025 17.818 25.025 46.972 0 64.789l-301.121 214.44c-25.025 17.818-45.492 7.261-45.492-23.451V32.617z"/></symbol><symbol viewBox="0 0 512 512" id="add" xmlns="http://www.w3.org/2000/svg"><path d="M256 8C119 8 8 119 8 256s111 248 248 248 248-111 248-248S393 8 256 8zm144 276c0 6.6-5.4 12-12 12h-92v92c0 6.6-5.4 12-12 12h-56c-6.6 0-12-5.4-12-12v-92h-92c-6.6 0-12-5.4-12-12v-56c0-6.6 5.4-12 12-12h92v-92c0-6.6 5.4-12 12-12h56c6.6 0 12 5.4 12 12v92h92c6.6 0 12 5.4 12 12v56z"/></symbol><symbol viewBox="0 0 50.8 50.8" id="app" xmlns="http://www.w3.org/2000/svg"><path d="M27.071 31.527a4.456 4.456 0 014.456-4.456h8.912a4.456 4.456 0 014.456 4.456v8.912a4.456 4.456 0 01-4.456 4.456h-8.912a4.456 4.456 0 01-4.456-4.456z"/><path fill-rule="evenodd" d="M19.686 11.658a3.163 3.163 0 013.134-2.783h2.932c1.595 0 2.946 1.2 3.134 2.783l.227 1.901c.035.296.278.693.778.99.508.304.972.321 1.264.196l1.767-.757a3.163 3.163 0 013.977 1.323l1.467 2.539a3.163 3.163 0 01-.844 4.106l-1.626 1.216h-3.693c.214-.987.73-1.958 1.65-2.645l1.536-1.15-1.302-2.253-1.613.692h-.002c-1.513.65-3.107.31-4.292-.395-1.143-.681-2.196-1.87-2.386-3.466l-.207-1.738h-2.602l-.169 1.415c-.205 1.728-1.383 2.99-2.63 3.692-1.223.69-2.85 1.023-4.395.36l-1.306-.56-1.301 2.254 1.006.753c1.403 1.049 1.926 2.703 1.926 4.154 0 1.452-.523 3.106-1.926 4.155l-1.006.753 1.3 2.254 1.307-.56c1.546-.664 3.172-.33 4.396.36 1.246.702 2.424 1.964 2.63 3.692l.168 1.415h.187v3.342h-.352a3.163 3.163 0 01-3.134-2.783l-.188-1.58c-.044-.368-.353-.837-.952-1.175-.572-.323-1.094-.347-1.438-.2l-1.457.625a3.163 3.163 0 01-3.978-1.323l-1.466-2.539a3.163 3.163 0 01.844-4.106l1.138-.851c.326-.244.585-.765.585-1.478 0-.714-.259-1.235-.585-1.479l-1.138-.851a3.163 3.163 0 01-.844-4.106l1.466-2.54a3.163 3.163 0 013.978-1.322l1.457.625c.344.147.866.123 1.438-.2.6-.338.908-.807.952-1.176z" clip-rule="evenodd"/><path fill-rule="evenodd" d="M24.286 18.716a5.57 5.57 0 00-1.114 11.029v-.446a6.1 6.1 0 01.689-2.825 2.229 2.229 0 112.613-2.613 6.1 6.1 0 012.825-.689h.446a5.572 5.572 0 00-5.459-4.456z" clip-rule="evenodd"/><path fill-rule="evenodd" d="M7.575 9.246c0-.922.749-1.67 1.671-1.67h30.08c.922 0 1.67.748 1.67 1.67v13.925h1.672c.579 0 1.14.08 1.67.231V9.246a5.013 5.013 0 00-5.012-5.013H9.246a5.013 5.013 0 00-5.013 5.013v30.08a5.013 5.013 0 005.014 5.012h14.156a6.132 6.132 0 01-.231-1.67v-1.672H9.247a1.671 1.671 0 01-1.671-1.671z" clip-rule="evenodd"/><path d="M33.198 32.084h2.785a3.9 3.9 0 010 7.798h-2.785z"/></symbol><symbol viewBox="0 0 512 512" id="arrow-big" xmlns="http://www.w3.org/2000/svg"><path d="M.5 207.773h347.969L225.443 68.588 285.667.45l165.609 187.362L511.5 255.95l-60.224 68.138L285.667 511.45l-60.224-68.138 123.025-139.186H.5v-96.353z"/></symbol><symbol viewBox="0 0 48 48" id="arrow-double" xmlns="http://www.w3.org/2000/svg"><path d="M24 12v6l8-8-8-8v6C15.16 8 8 15.16 8 24c0 3.14.92 6.05 2.48 8.52l2.92-2.92c-.89-1.67-1.4-3.57-1.4-5.6 0-6.63 5.37-12 12-12zm13.52 3.48L34.6 18.4c.89 1.67 1.4 3.57 1.4 5.6 0 6.63-5.37 12-12 12v-6l-8 8 8 8v-6c8.84 0 16-7.16 16-16 0-3.14-.92-6.05-2.48-8.52z"/></symbol><symbol viewBox="0 0 48 48" id="arrow-down" xmlns="http://www.w3.org/2000/svg"><path d="M14.83 16.42L24 25.59l9.17-9.17L36 19.25l-12 12-12-12z"/></symbol><symbol viewBox="0 0 512 512" id="arrow-lines" xmlns="http://www.w3.org/2000/svg"><path d="M187.298 395.314l-79.984 80.002c-6.248 6.247-16.383 6.245-22.627 0L4.705 395.314C-5.365 385.244 1.807 368 16.019 368H64V48c0-8.837 7.163-16 16-16h32c8.837 0 16 7.163 16 16v320h47.984c14.241 0 21.363 17.264 11.314 27.314zM240 96h256c8.837 0 16-7.163 16-16V48c0-8.837-7.163-16-16-16H240c-8.837 0-16 7.163-16 16v32c0 8.837 7.163 16 16 16zm-16 112v-32c0-8.837 7.163-16 16-16h192c8.837 0 16 7.163 16 16v32c0 8.837-7.163 16-16 16H240c-8.837 0-16-7.163-16-16zm0 256v-32c0-8.837 7.163-16 16-16h64c8.837 0 16 7.163 16 16v32c0 8.837-7.163 16-16 16h-64c-8.837 0-16-7.163-16-16zm0-128v-32c0-8.837 7.163-16 16-16h128c8.837 0 16 7.163 16 16v32c0 8.837-7.163 16-16 16H240c-8.837 0-16-7.163-16-16z"/></symbol><symbol viewBox="0 0 48 48" id="arrow-right" xmlns="http://www.w3.org/2000/svg"><path d="M24 8l-2.83 2.83L32.34 22H8v4h24.34L21.17 37.17 24 40l16-16z"/></symbol><symbol viewBox="0 0 512 512" id="arrow-round" xmlns="http://www.w3.org/2000/svg"><path d="M284.391 28.89C158.958 28.89 57.28 130.572 57.28 256c0 .236.009.472.009.708H.5l79.49 78.782 78.778-78.782h-56.049c0-.236-.018-.472-.018-.708 0-100.345 81.345-181.69 181.69-181.69C384.73 74.31 466.08 155.656 466.08 256s-81.351 181.689-181.689 181.689c-50.257 0-95.745-20.414-128.64-53.386l-32.782 31.416c41.165 41.604 98.271 67.391 161.421 67.391 125.427 0 227.11-101.682 227.11-227.11S409.817 28.89 284.391 28.89zm76.649 305.18l-62.46-75.23-8.51-141.237-12.775.712-7.813 151.881 84.462 71.682 7.096-7.808z" fill-rule="evenodd" clip-rule="evenodd"/></symbol><symbol viewBox="0 0 512 512" id="arrow-up" xmlns="http://www.w3.org/2000/svg"><path d="M68.635 417.817L.5 349.683l187.365-187.365L256 94.183l68.135 68.135L511.5 349.683l-68.135 68.135L256 230.453 68.635 417.817z"/></symbol><symbol viewBox="0 0 448 512" id="attach" xmlns="http://www.w3.org/2000/svg"><path d="M43.246 466.142c-58.43-60.289-57.341-157.511 1.386-217.581L254.392 34c44.316-45.332 116.351-45.336 160.671 0 43.89 44.894 43.943 117.329 0 162.276L232.214 383.128c-29.855 30.537-78.633 30.111-107.982-.998-28.275-29.97-27.368-77.473 1.452-106.953l143.743-146.835c6.182-6.314 16.312-6.422 22.626-.241l22.861 22.379c6.315 6.182 6.422 16.312.241 22.626L171.427 319.927c-4.932 5.045-5.236 13.428-.648 18.292 4.372 4.634 11.245 4.711 15.688.165l182.849-186.851c19.613-20.062 19.613-52.725-.011-72.798-19.189-19.627-49.957-19.637-69.154 0L90.39 293.295c-34.763 35.56-35.299 93.12-1.191 128.313 34.01 35.093 88.985 35.137 123.058.286l172.06-175.999c6.177-6.319 16.307-6.433 22.626-.256l22.877 22.364c6.319 6.177 6.434 16.307.256 22.626l-172.06 175.998c-59.576 60.938-155.943 60.216-214.77-.485z" class="akst0"/></symbol><symbol viewBox="0 0 24 24" id="bell" xmlns="http://www.w3.org/2000/svg"><path d="M23.187 10.748c-.45 0-.819-.337-.819-.75 0-2.873-1.217-5.569-3.437-7.603a.709.709 0 010-1.06.865.865 0 011.156 0C22.609 3.652 24 6.727 24 9.999c.005.417-.358.75-.813.75zm-22.369 0c-.45 0-.818-.337-.818-.75 0-3.271 1.391-6.346 3.913-8.662a.875.875 0 011.156 0 .709.709 0 010 1.06C2.859 4.43 1.637 7.13 1.637 9.997c0 .418-.368.75-.819.75zM12.005 24c-2.256 0-4.092-1.683-4.092-3.75 0-.413.368-.75.819-.75.45 0 .818.337.818.75 0 1.242 1.1 2.25 2.455 2.25 1.356 0 2.455-1.008 2.455-2.25 0-.413.369-.75.819-.75.45 0 .818.337.818.75 0 2.067-1.836 3.75-4.092 3.75z"/><path d="M21.008 21H3.003c-1.054 0-1.908-.783-1.908-1.748 0-.511.245-.999.67-1.332 1.657-1.284 2.603-3.154 2.603-5.133V9.998C4.363 6.141 7.79 3 12.005 3c4.21 0 7.637 3.14 7.637 6.998v2.79c0 1.978.946 3.848 2.593 5.123.435.342.68.825.68 1.336 0 .97-.854 1.753-1.907 1.753zM12.005 4.5c-3.31 0-6 2.466-6 5.498v2.79c0 2.418-1.156 4.706-3.176 6.271a.249.249 0 00-.097.193c0 .136.122.248.27.248h18.006c.148 0 .27-.113.27-.248a.249.249 0 00-.096-.193c-2.02-1.565-3.177-3.853-3.177-6.272V9.998c0-3.032-2.69-5.498-6-5.498z"/><path d="M12.005 4.5c-.45 0-.818-.338-.818-.75v-3c0-.412.368-.75.818-.75.45 0 .818.338.818.75v3c0 .412-.368.75-.818.75z"/></symbol><symbol viewBox="0 0 48 48" id="blocks" xmlns="http://www.w3.org/2000/svg"><path d="M32 2H8C5.79 2 4 3.79 4 6v28h4V6h24V2zm6 8H16c-2.21 0-4 1.79-4 4v28c0 2.21 1.79 4 4 4h22c2.21 0 4-1.79 4-4V14c0-2.21-1.79-4-4-4zm0 32H16V14h22v28z"/></symbol><symbol viewBox="0 0 32 32" id="cancel" xmlns="http://www.w3.org/2000/svg"><g clip-rule="evenodd" fill-rule="evenodd"><path d="M11.06 3.94a1.5 1.5 0 010 2.12L6.122 11l4.94 4.94a1.5 1.5 0 01-2.122 2.12l-6-6a1.5 1.5 0 010-2.12l6-6a1.5 1.5 0 012.122 0z"/><path d="M2.5 11A1.5 1.5 0 014 9.5h17a8.5 8.5 0 110 17H10a1.5 1.5 0 010-3h11a5.5 5.5 0 000-11H4A1.5 1.5 0 012.5 11z"/></g></symbol><symbol viewBox="0 0 48 48" id="check" xmlns="http://www.w3.org/2000/svg"><path d="M18 32.34L9.66 24l-2.83 2.83L18 38l24-24-2.83-2.83z"/></symbol><symbol viewBox="0 0 24 25" id="checked" xmlns="http://www.w3.org/2000/svg"><circle cx="12" cy="12.5" r="12"/><path d="M7.5 12.5l3 3 6-6"/></symbol><symbol viewBox="0 0 512 512" id="close-round" xmlns="http://www.w3.org/2000/svg"><path d="M256 .5C114.893.5.5 114.893.5 256S114.893 511.5 256 511.5 511.5 397.107 511.5 256 397.107.5 256 .5zm91.084 316.477l-30.107 30.107-60.224-60.22-60.22 60.22-30.112-30.111 60.22-60.22-61.725-61.729 30.112-30.108 61.725 61.725 60.224-60.22 30.107 30.112-60.22 60.219 60.22 60.225z"/></symbol><symbol viewBox="0 0 48 48" id="comment" xmlns="http://www.w3.org/2000/svg"><path d="M43.98 8c0-2.21-1.77-4-3.98-4H8C5.79 4 4 5.79 4 8v24c0 2.21 1.79 4 4 4h28l8 8-.02-36z"/></symbol><symbol viewBox="0 0 48 48" id="computer" xmlns="http://www.w3.org/2000/svg"><path d="M42 4H6C3.79 4 2 5.79 2 8v24c0 2.21 1.79 4 4 4h14v4h-4v4h16v-4h-4v-4h14c2.21 0 4-1.79 4-4V8c0-2.21-1.79-4-4-4zm0 28H6V8h36v24z"/></symbol><symbol viewBox="0 0 512 512" id="cup" xmlns="http://www.w3.org/2000/svg"><path d="M410.248 33.618L409.3.5H102.699l-.943 33.118H6.178s1.976 97.229 39.612 156.554c39.27 61.902 105.169 59.202 105.169 59.202s13.569 22.32 33.835 42.824c20.424 20.66 47.548 39.508 47.548 39.508v118.601H99.861V511.5h312.278v-61.193H279.656V331.706s27.126-18.848 47.549-39.508c20.267-20.504 33.835-42.824 33.835-42.824s65.898 2.7 105.17-59.202c37.64-59.325 39.612-156.554 39.612-156.554h-95.574zM64.429 167.329C38.089 126.846 34.567 64.846 34.567 64.846l68.132-.944s4.095 43.492 13.504 85.844c7.372 33.164 20.562 67.458 20.562 67.458s-39.783.15-72.336-49.875zm383.142 0c-32.554 50.025-72.336 49.875-72.336 49.875s13.189-34.294 20.562-67.458c9.412-42.352 13.503-85.844 13.503-85.844l68.133.944s-3.522 62-29.862 102.483z" fill-rule="evenodd" clip-rule="evenodd"/></symbol><symbol viewBox="0 0 74 74" id="device" xmlns="http://www.w3.org/2000/svg"><path d="M45 50H7a5.006 5.006 0 01-5-5V11a5.006 5.006 0 015-5h48a5.006 5.006 0 015 5v18h-2V11a3 3 0 00-3-3H7a3 3 0 00-3 3v34a3 3 0 003 3h38z"/><path d="M3 40h37v2H3zm25 4h6v2h-6zm-8 11h22v2H20z"/><path d="M38 49h2v7h-2zm-16 0h2v7h-2zm47 19H47a3 3 0 01-3-3V31a3 3 0 013-3h22a3 3 0 013 3v34a3 3 0 01-3 3zM47 30a1 1 0 00-1 1v34a1 1 0 001 1h22a1 1 0 001-1V31a1 1 0 00-1-1z"/><path d="M56 62h4v2h-4zM45 34h26v2H45zm0 24h26v2H45z"/></symbol><symbol viewBox="0 0 25 25" id="discuss" xmlns="http://www.w3.org/2000/svg"><path d="M14.583 19.792c3.928 0 5.893 0 7.113-1.221 1.22-1.22 1.22-3.185 1.22-7.113 0-3.928 0-5.892-1.22-7.112-1.22-1.221-3.185-1.221-7.113-1.221h-4.166c-3.928 0-5.893 0-7.113 1.22-1.22 1.22-1.22 3.185-1.22 7.113 0 3.928 0 5.893 1.22 7.113.68.681 1.592.982 2.946 1.114"/><path d="M14.583 19.792c-1.287 0-2.706.52-4 1.192-2.082 1.08-3.123 1.621-3.635 1.276-.513-.343-.416-1.411-.22-3.545l.043-.486"/></symbol><symbol viewBox="0 0 682.667 682.667" id="discuss-double" xmlns="http://www.w3.org/2000/svg"><defs><clipPath clipPathUnits="userSpaceOnUse" id="awa"><path d="M0 512h512V0H0z"/></clipPath></defs><path d="M275.407 264.862H592.74m-317.333 76.445H592.74M275.407 417.75H592.74"/><g clip-path="url(#awa)" transform="matrix(1.33333 0 0 -1.33333 0 682.667)" stroke-width="15" stroke-linecap="round" stroke-linejoin="round" stroke-miterlimit="10"><path d="M182.732 378.945h285.646c19.949 0 36.122-16.172 36.122-36.122V163.206c0-19.792-15.921-35.858-35.654-36.11v-83.92c0-5.263-6.643-7.57-9.905-3.44l-64.655 81.854a14.458 14.458 0 01-11.343 5.495H182.732c-19.95 0-36.122 16.172-36.122 36.121v179.617c0 19.95 16.172 36.122 36.122 36.122z"/><path d="M319.052 414.008v28.932c0 17.366-14.078 31.444-31.445 31.444H38.945c-17.367 0-31.445-14.078-31.445-31.444V286.578c0-17.23 13.859-31.216 31.037-31.434v-73.055c0-4.582 5.783-6.591 8.623-2.995l56.284 71.256a12.58 12.58 0 008.104 4.658"/></g></symbol><symbol viewBox="0 0 22 22" id="discuss-gray" xmlns="http://www.w3.org/2000/svg"><path d="M12.833 17.417c3.457 0 5.186 0 6.26-1.075 1.074-1.073 1.074-2.802 1.074-6.259 0-3.456 0-5.185-1.075-6.259C18.02 2.75 16.29 2.75 12.833 2.75H9.167c-3.457 0-5.186 0-6.26 1.074-1.074 1.074-1.074 2.803-1.074 6.26 0 3.456 0 5.185 1.075 6.258.598.6 1.4.865 2.592.981"/><path d="M12.833 17.417c-1.133 0-2.381.458-3.52 1.05-1.832.95-2.748 1.426-3.199 1.122-.45-.302-.366-1.242-.194-3.12l.038-.427"/></symbol><symbol viewBox="0 0 3 15" id="dots" xmlns="http://www.w3.org/2000/svg"><circle cx="1.5" cy="1.5" r="1.5"/><circle cx="1.5" cy="7.5" r="1.5"/><circle cx="1.5" cy="13.5" r="1.5"/></symbol><symbol viewBox="0 0 48 48" id="dots-hor" xmlns="http://www.w3.org/2000/svg"><path d="M12 20c-2.21 0-4 1.79-4 4s1.79 4 4 4 4-1.79 4-4-1.79-4-4-4zm24 0c-2.21 0-4 1.79-4 4s1.79 4 4 4 4-1.79 4-4-1.79-4-4-4zm-12 0c-2.21 0-4 1.79-4 4s1.79 4 4 4 4-1.79 4-4-1.79-4-4-4z"/></symbol><symbol viewBox="0 0 24 24" id="draft" xmlns="http://www.w3.org/2000/svg"><path d="M14.25 0H2.75C1.23 0 0 1.23 0 2.75v15.5C0 19.77 1.23 21 2.75 21h7.38l.22-1.23c.1-.56.36-1.06.76-1.47L17 12.42V2.75C17 1.23 15.77 0 14.25 0zM4 4h4c.55 0 1 .45 1 1s-.45 1-1 1H4c-.55 0-1-.45-1-1s.45-1 1-1zm5 10H4c-.55 0-1-.45-1-1s.45-1 1-1h5c.55 0 1 .45 1 1s-.45 1-1 1zm4-4H4c-.55 0-1-.45-1-1s.45-1 1-1h9c.55 0 1 .45 1 1s-.45 1-1 1zm-.472 14a.748.748 0 01-.738-.881l.53-3.005a.753.753 0 01.208-.4l7.425-7.424c.912-.914 1.808-.667 2.298-.177l1.237 1.237a1.75 1.75 0 010 2.475l-7.425 7.425a.739.739 0 01-.4.208l-3.005.53a.715.715 0 01-.13.012zm3.005-1.28h.01z"/></symbol><symbol viewBox="0 0 576 512" id="edit" xmlns="http://www.w3.org/2000/svg"><path d="M402.6 83.2l90.2 90.2c3.8 3.8 3.8 10 0 13.8L274.4 405.6l-92.8 10.3c-12.4 1.4-22.9-9.1-21.5-21.5l10.3-92.8L388.8 83.2c3.8-3.8 10-3.8 13.8 0zm162-22.9l-48.8-48.8c-15.2-15.2-39.9-15.2-55.2 0l-35.4 35.4c-3.8 3.8-3.8 10 0 13.8l90.2 90.2c3.8 3.8 10 3.8 13.8 0l35.4-35.4c15.2-15.3 15.2-40 0-55.2zM384 346.2V448H64V128h229.8c3.2 0 6.2-1.3 8.5-3.5l40-40c7.6-7.6 2.2-20.5-8.5-20.5H48C21.5 64 0 85.5 0 112v352c0 26.5 21.5 48 48 48h352c26.5 0 48-21.5 48-48V306.2c0-10.7-12.9-16-20.5-8.5l-40 40c-2.2 2.3-3.5 5.3-3.5 8.5z"/></symbol><symbol viewBox="0 0 52 52" id="end" xmlns="http://www.w3.org/2000/svg"><path d="M26 0C11.664 0 0 11.663 0 26s11.664 26 26 26 26-11.663 26-26S40.336 0 26 0zm14.495 17.329l-16 18a1.997 1.997 0 01-2.745.233l-10-8a2 2 0 012.499-3.124l8.517 6.813L37.505 14.67a2.001 2.001 0 012.99 2.659z"/></symbol><symbol viewBox="0 0 19 18" id="exit" xmlns="http://www.w3.org/2000/svg"><path d="M13.237 4.931a.401.401 0 01.072-.107l.02-.018a.4.4 0 01.565.022l3.6 3.9a.4.4 0 010 .543l-3.6 3.9a.4.4 0 01-.587-.543l2.206-2.39.775-.84H5.8a.4.4 0 110-.8h10.486l-.774-.838-2.206-2.39a.398.398 0 01-.081-.133l-.47.173.47-.173a.4.4 0 01.012-.306zm-1.154 12.452a.4.4 0 01-.283.117H4.3a3.7 3.7 0 01-3.7-3.7V4.2A3.7 3.7 0 014.3.5h7.5a.4.4 0 110 .8H4.3a2.9 2.9 0 00-2.9 2.9v9.6a2.9 2.9 0 002.9 2.9h7.5a.4.4 0 01.283.683z"/></symbol><symbol viewBox="0 0 576 512" id="eye" xmlns="http://www.w3.org/2000/svg"><path d="M569.354 231.631C512.969 135.949 407.81 72 288 72 168.14 72 63.004 135.994 6.646 231.631a47.999 47.999 0 000 48.739C63.031 376.051 168.19 440 288 440c119.86 0 224.996-63.994 281.354-159.631a47.997 47.997 0 000-48.738zM288 392c-75.162 0-136-60.827-136-136 0-75.162 60.826-136 136-136 75.162 0 136 60.826 136 136 0 75.162-60.826 136-136 136zm104-136c0 57.438-46.562 104-104 104s-104-46.562-104-104c0-17.708 4.431-34.379 12.236-48.973l-.001.032c0 23.651 19.173 42.823 42.824 42.823s42.824-19.173 42.824-42.823c0-23.651-19.173-42.824-42.824-42.824l-.032.001C253.621 156.431 270.292 152 288 152c57.438 0 104 46.562 104 104z"/></symbol><symbol viewBox="0 0 512 512" id="eye-close" xmlns="http://www.w3.org/2000/svg"><path d="M411.703 178.71l14.797-14.796c29.716 15.686 47.694 29.567 47.694 29.567s-25.035-7.074-62.491-14.771zm-65.629 10.67l42.97-42.97 94.977-94.977-27.48-27.479-108.325 108.325c-28.79-8.147-60.873-13.338-94.474-12.005-135.232 5.364-220.273 92.295-220.273 92.295s23.096-17.708 70.75-32.662c-29.738 19.794-54.527 43.166-73.494 65.554C18.677 259.685.5 262.887.5 262.887s1.202 14.813 8.629 18.422c7.748 3.759 21.737-3.676 21.737-3.676s72.545-86.639 162.619-115.466c3.227-.316 6.513-.607 9.839-.873-39.876 18.805-67.485 59.351-67.485 106.367 0 22.062 6.092 42.693 16.669 60.328l-44.258 44.26c-23.227-9.656-38.344-17.401-38.344-17.401s13.272 9.204 34.995 20.75l-84.967 84.969 27.475 27.479 94.698-94.698 5.984-5.984 29.705-29.704L343.38 192.076l2.694-2.696zm-133.56 188.518l151.104-151.104a117.185 117.185 0 017.336 40.867c0 64.922-52.634 117.553-117.558 117.553-14.375 0-28.148-2.592-40.882-7.316zM511.5 268.094s-1.692 5.43-10.293 8.965c-14.218 5.839-38.292 10.987-38.292 10.987s-70.902 114.293-165.954 130.419c-38.931 6.604-79.049.313-114.55-10.462l8.063-8.061c31.713 7.855 64.84 12.23 92.802 7.577 77.959-12.966 158.817-134.22 158.817-134.22s-26.672-30.406-64.324-60.656l31.896-31.896c60.807 39.356 101.835 87.347 101.835 87.347z" fill-rule="evenodd" clip-rule="evenodd"/></symbol><symbol viewBox="0 0 17 18" id="file" xmlns="http://www.w3.org/2000/svg"><path d="M13.5 1.5h-10A1.5 1.5 0 002 3v12a1.5 1.5 0 001.5 1.5h10A1.5 1.5 0 0015 15V3a1.5 1.5 0 00-1.5-1.5zM1.732 1.232A2.5 2.5 0 013.5.5h10A2.5 2.5 0 0116 3v12a2.5 2.5 0 01-2.5 2.5h-10A2.5 2.5 0 011 15V3a2.5 2.5 0 01.732-1.768z"/><path d="M4.5 4h8v2h-8V4zm0 4h8v2h-8V8zm0 4h5v2h-5v-2z"/></symbol><symbol viewBox="0 0 512 512" id="file-write" xmlns="http://www.w3.org/2000/svg"><path d="M.5.5v306.6l25.55 25.551 153.3 153.3 25.55 25.55h306.6V.5H.5zm485.45 485.45H204.9V307.1H26.05V26.05h459.9v459.9zm-76.65-357.7H102.7v-51.1h306.6v51.1zm0 102.2H102.7v-51.1h306.6v51.1zM256 281.55h153.3v51.101H256V281.55zm0 102.2h153.3v51.1H256v-51.1z"/></symbol><symbol viewBox="0 0 25 26" id="finger" xmlns="http://www.w3.org/2000/svg"><path d="M24.184 13.678a4.022 4.022 0 01-.647 3.584 4.022 4.022 0 01-.647 3.584 4.018 4.018 0 01-2.278 4.856 2.05 2.05 0 01-.828.17H1a1 1 0 01-1-1V13.497a1 1 0 011-1h4.04l2.682-9.713A3.633 3.633 0 0111.216.125c.928 0 1.793.369 2.434 1.044.64.672.969 1.553.922 2.481l-.188 3.84h7.497c.378 0 .747.1 1.072.291C24.216 8.516 25 9.847 25 11.25c0 .884-.29 1.734-.816 2.428zM2.25 14.75v8.875h2.531V14.75H2.25zm19.6-5.013h-9.825l.3-6.2a1.11 1.11 0 00-.456-.953 1.09 1.09 0 00-.66-.209 1.384 1.384 0 00-1.318 1.01L6.78 14.65v8.975h12.982a1.776 1.776 0 00.834-2.472l-.434-.794.684-.593a1.774 1.774 0 00.612-1.344c0-.303-.072-.59-.215-.853l-.435-.794.685-.594a1.773 1.773 0 00.612-1.344c0-.303-.072-.59-.215-.853l-.438-.796.684-.594a1.774 1.774 0 00.613-1.344c0-.597-.344-1.172-.9-1.513z"/></symbol><symbol viewBox="0 0 512 512" id="finger-gray" xmlns="http://www.w3.org/2000/svg"><path d="M510.276 252.508c-6.134-22.888-32.47-50.8-32.47-50.8s-18.548-1.631-45.827 1.443c-21.084 2.383-49.078 9.806-67.219 8.908-22.697-1.123-27.699-17.316-27.699-17.316s11.294-27.455 21.1-54.276c13.337-36.471 17.916-75.324 17.916-75.324s-4.022-36.421-23.101-53.246c-16.229-14.322-39.606-9.46-39.606-9.46s-3.796 46.808-24.186 84.734c-17.749 33.014-48.272 56.202-48.272 58.797 0 2.134-18.859 22.431-32.836 49.096-11.315 21.6-16.546 48.343-28.686 65.426-12.022 16.917-30.448 19.25-30.448 19.25v199.272s35.921 1.293 66.511 7.63c26.207 5.44 47.751 16.053 47.751 16.053s46.872 11.354 89.159 10.234c36.75-.966 69.701-14.41 69.701-14.41s22.992-6.969 34.836-22.298c11.839-15.329 12.542-39.014 12.542-39.014s18.48-13.466 25.218-34.8c5.723-18.114-.138-44.634-.138-44.634s13.49-17.669 14.48-36.195c1.094-20.406-10.296-41.839-10.296-41.839s15.208-13.633 11.57-27.231zM-.162 265.803l16.726 227.143 103.115 1.395-2.791-234.109-117.05 5.571z" fill-rule="evenodd" clip-rule="evenodd"/></symbol><symbol viewBox="0 0 48 48" id="folder" xmlns="http://www.w3.org/2000/svg"><path d="M40 12H24l-4-4H8c-2.21 0-3.98 1.79-3.98 4L4 36c0 2.21 1.79 4 4 4h32c2.21 0 4-1.79 4-4V16c0-2.21-1.79-4-4-4zm0 24H8V16h32v20z"/></symbol><symbol viewBox="0 0 512 512" id="hand" xmlns="http://www.w3.org/2000/svg"><path d="M448.489 139.969c-.2-.22-.416-.437-.641-.641-.974-.894-6.329-5.344-15.77-5.344-8.624 0-17.932 3.647-27.646 10.841-21.101 15.616-29.759 41.203-37.394 63.775-3.701 10.937-7.194 21.267-11.693 29.43-2.828 5.136-5.848 9.282-8.667 12.554L311.241 71.839c-.042-.183-.075-.366-.125-.549-2.637-10.296-14.048-29.775-38.35-29.775l-1.239.017c-9.682.258-19.496 3.855-26.973 7.439-.075-.071-.158-.133-.241-.204l-5.764-23.833C236.579 16.485 226.49.5 202.412.5c-7.086 0-15.021 1.385-23.587 4.117-29.684 9.473-31.688 33.276-28.694 44.159l3.435 14.738c-8.142-1.817-18.755-1.555-29.126 1.709-23.829 7.502-29.725 28.977-29.966 29.888a10.231 10.231 0 00-.2 4.262l5.131 31.193c-2.628-.42-5.389-.69-8.175-.69-6.005 0-11.245 1.264-15.578 3.759-19.329 11.145-19.77 47.844-19.653 55.466.333 6.371 8.792 157.255 69.198 259.883 30.407 51.67 71.452 62.52 100.528 62.516 22.106 0 39.98-6.184 47.366-9.198 4.524 1.035 11.419 2.087 19.611 2.087 24.36 0 68.957-9.631 93.958-74.121 92.736-239.308 67.776-283.808 61.829-290.299zm-80.925 282.9c-19.554 50.455-51.5 61.047-74.862 61.047-10.271 0-17.324-2.146-17.391-2.166v.004a10.292 10.292 0 00-7.552.549c-.175.088-18.364 8.725-42.035 8.725-34.524 0-62.411-17.641-82.888-52.427-57.828-98.253-66.312-249.05-66.378-250.172-.191-14.846 3.626-33.717 9.415-37.053 1.148-.661 3.052-1.027 5.356-1.027 4.757 0 10.205 1.493 13.756 2.715l25.982 128.935a10.239 10.239 0 0012.06 8.014c5.539-1.114 9.132-6.513 8.009-12.056L114.909 98.674c1.48-3.41 5.755-10.799 15.677-13.922 4.134-1.302 8.134-1.963 11.894-1.963 11.952 0 18.223 6.633 18.381 6.795.199.229.424.42.64.628l35.339 162.079c1.04 4.791 5.281 8.059 9.989 8.059.724 0 1.456-.074 2.188-.236 5.531-1.206 9.024-6.658 7.826-12.185l-46.875-204.18c-.382-1.397-3.202-13.793 15.079-19.624 6.554-2.092 12.392-3.152 17.366-3.152 13.024 0 15.836 7.381 16.218 8.695l45.079 216.963c.939 4.903 5.231 8.309 10.039 8.309.64 0 1.297-.058 1.945-.183 5.548-1.069 9.19-6.429 8.126-11.985L250.443 68.949c6.121-3.227 14.505-6.762 21.633-6.953l.69-.008c13.647 0 17.848 12.151 18.464 14.21l38.782 195.605a10.242 10.242 0 005.655 7.256 10.235 10.235 0 009.199-.207c1.646-.878 16.417-9.183 28.41-30.94 5.382-9.76 9.157-20.926 13.158-32.749 7.003-20.693 14.238-42.084 30.174-53.878 8.026-5.938 13.133-6.824 15.47-6.824.707 0 1.256.075 1.672.17 2.472 6.883 14.723 59.459-66.186 268.238z"/></symbol><symbol viewBox="0 0 512 512" id="heart" xmlns="http://www.w3.org/2000/svg"><path fill-rule="evenodd" clip-rule="evenodd" d="M511.5 177.232c0 114.47-117.341 183.772-239.548 298.244 0 0-8.559 8.334-16.248 8.334-7.685 0-15.811-8.492-15.811-8.492C117.924 361.058.5 291.511.5 177.232.5 91.489 64.375 28.19 128.25 28.19 234.708 28.19 256 92.065 256 92.065S277.292 28.19 383.725 28.19c63.9 0 127.775 64.145 127.775 149.042z"/></symbol><symbol viewBox="0 0 512 512" id="heart-gray" xmlns="http://www.w3.org/2000/svg"><path d="M362.438 66.158c53.25 0 106.479 53.454 106.479 124.203 0 95.395-97.788 153.145-199.626 248.538 0 0-7.128 6.943-13.536 6.943-6.404 0-13.174-7.078-13.174-7.078-101.643-95.213-199.498-153.17-199.498-248.403 0-71.454 53.229-124.203 106.458-124.203C238.26 66.158 256 119.387 256 119.387s17.74-53.229 106.438-53.229m0-42.583c-48.131 0-82.738 13.501-106.439 30.784-23.706-17.283-58.319-30.784-106.457-30.784C68.752 23.575.5 99.955.5 190.361c0 93.944 69.161 153.688 149.243 222.862 20.539 17.744 41.771 36.084 63.112 56.045 6.535 6.52 21.913 19.158 42.899 19.158 20.963 0 36.711-12.758 42.87-18.66 21.554-20.182 42.986-38.682 63.713-56.576C442.377 344.078 511.5 284.396 511.5 190.361c0-90.406-68.263-166.786-149.062-166.786z"/></symbol><symbol viewBox="0 0 11 12" id="hexagon" xmlns="http://www.w3.org/2000/svg"><path d="M2.238 7.567v-.07L0 8.768v.12l5.052 2.925V9.196l-2.814-1.63zm5.629-.069v.069L5.052 9.196v2.616L10.1 8.887v-.12l-2.233-1.27z"/><path d="M7.867 7.498L5.052 5.906l2.815 1.592z"/><path d="M.028 2.856l2.224 1.347 2.8-1.545V.078L.028 2.856zM5.186 0l-.134.078v2.58l.074-.042 2.722 1.587-2.796 1.703 5.02-3.055L5.186 0z"/><path d="M2.252 4.203l2.8 1.703V2.658l-2.8 1.545zm2.874-1.587l-.074.042v3.248l2.796-1.703-2.722-1.587z"/><path d="M2.238 7.498v.069l2.814 1.629v-3.29L2.238 7.498zm2.814-1.592v3.29l2.815-1.63v-.068L5.052 5.906zM10.1 2.87l-.028-.019-2.224 1.352.019.01v3.285L10.1 8.767V2.87z"/><path d="M7.848 4.203L5.052 5.906l2.815 1.592V4.213l-.019-.01zm-5.61.01l.014-.01-.743-.452-1.481-.895L0 2.87v5.897l2.238-1.27V4.214z"/><path d="M2.238 4.213v3.285l2.814-1.592-2.8-1.703-.014.01z"/></symbol><symbol viewBox="0 0 448 512" id="hteg" xmlns="http://www.w3.org/2000/svg"><path d="M440.667 182.109l7.143-40c1.313-7.355-4.342-14.109-11.813-14.109h-74.81l14.623-81.891C377.123 38.754 371.468 32 363.997 32h-40.632a12 12 0 00-11.813 9.891L296.175 128H197.54l14.623-81.891C213.477 38.754 207.822 32 200.35 32h-40.632a12 12 0 00-11.813 9.891L132.528 128H53.432a12 12 0 00-11.813 9.891l-7.143 40C33.163 185.246 38.818 192 46.289 192h74.81L98.242 320H19.146a12 12 0 00-11.813 9.891l-7.143 40C-1.123 377.246 4.532 384 12.003 384h74.81L72.19 465.891C70.877 473.246 76.532 480 84.003 480h40.632a12 12 0 0011.813-9.891L151.826 384h98.634l-14.623 81.891C234.523 473.246 240.178 480 247.65 480h40.632a12 12 0 0011.813-9.891L315.472 384h79.096a12 12 0 0011.813-9.891l7.143-40c1.313-7.355-4.342-14.109-11.813-14.109h-74.81l22.857-128h79.096a12 12 0 0011.813-9.891zM261.889 320h-98.634l22.857-128h98.634l-22.857 128z"/></symbol><symbol viewBox="0 0 20 20" id="ico-close" xmlns="http://www.w3.org/2000/svg"><path d="M20 2.357L17.643 0 10 7.643 2.357 0 0 2.357 7.643 10 0 17.643 2.357 20 10 12.357 17.643 20 20 17.643 12.357 10 20 2.357z"/></symbol><symbol viewBox="0 0 48 48" id="import" xmlns="http://www.w3.org/2000/svg"><path d="M38 18h-8V6H18v12h-8l14 14 14-14zM10 36v4h28v-4H10z"/></symbol><symbol viewBox="0 0 19 25" id="lamp" xmlns="http://www.w3.org/2000/svg"><path d="M5.427 19.25h8.896v1.688H5.427V19.25zm1.78 3.375h5.337v1.688H7.206v-1.688zM9.874.687c-2.36 0-4.622.89-6.29 2.472C1.916 4.74.979 6.887.979 9.125a7.409 7.409 0 00.723 3.566 7.828 7.828 0 002.355 2.863c.89.785 1.37 1.232 1.37 2.008h1.78c0-1.552-.988-2.421-1.949-3.256a6.142 6.142 0 01-1.93-2.295 5.803 5.803 0 01-.57-2.886c0-1.79.75-3.507 2.085-4.773 1.334-1.266 3.145-1.977 5.032-1.977 1.888 0 3.698.711 5.033 1.977 1.334 1.266 2.084 2.983 2.084 4.773a5.804 5.804 0 01-.574 2.887 6.144 6.144 0 01-1.935 2.294c-.952.843-1.94 1.687-1.94 3.257h1.78c0-.777.472-1.224 1.37-2.017a7.819 7.819 0 002.354-2.859 7.402 7.402 0 00.724-3.562c0-1.108-.23-2.205-.677-3.229a8.424 8.424 0 00-1.928-2.737 8.943 8.943 0 00-2.886-1.83 9.317 9.317 0 00-3.405-.64z"/></symbol><symbol viewBox="0 0 48 48" id="line-plus" xmlns="http://www.w3.org/2000/svg"><path d="M28 20H4v4h24v-4zm0-8H4v4h24v-4zm8 16v-8h-4v8h-8v4h8v8h4v-8h8v-4h-8zM4 32h16v-4H4v4z"/></symbol><symbol viewBox="0 0 512 512" id="link" xmlns="http://www.w3.org/2000/svg"><path d="M276 374c0 11.046-8.954 20-20 20H138c-11.046 0-20-8.954-20-20s8.954-20 20-20h118c11.046 0 20 8.954 20 20zm236-253.85v234.183c0 30.708-11.958 59.576-33.672 81.289l-42.706 42.707C413.909 500.042 385.041 512 354.333 512H120.15C53.739 512 0 458.255 0 391.85v-271.7C0 53.739 53.745 0 120.15 0h271.7C458.261 0 512 53.745 512 120.15zm-42.683 254.183h-54.984c-22.056 0-40 17.944-40 40v54.984c12.362-3.4 23.692-9.961 33.004-19.272l42.707-42.708c9.312-9.312 15.873-20.642 19.273-33.004zM472 120.15C472 75.849 436.149 40 391.85 40h-271.7C75.849 40 40 75.851 40 120.15v271.7C40 436.151 75.851 472 120.15 472h214.183v-57.667c0-44.112 35.888-80 80-80H472zM374 236H138c-11.046 0-20 8.954-20 20s8.954 20 20 20h236c11.046 0 20-8.954 20-20s-8.954-20-20-20zm0-118H138c-11.046 0-20 8.954-20 20s8.954 20 20 20h236c11.046 0 20-8.954 20-20s-8.954-20-20-20z"/></symbol><symbol viewBox="0 0 512 512" id="links" xmlns="http://www.w3.org/2000/svg"><path d="M324.301 187.699l-.05.05c14.48 15.499 14.2 39.783-.913 54.892-15.433 15.438-40.461 15.443-55.898.006l-.182-.182c-23.394-23.394-62.402-21.655-87.358 3.301l-84.937 84.938c-24.967 24.962-26.288 65.818-2.883 89.223 23.394 23.399 64.25 22.073 89.218-2.889l31.471-31.47s14.37 5.551 42.26 8.385c26.909 2.729 53.086-5.381 53.086-5.381l-80.525 80.524c-54.094 54.094-139.906 56.801-190.693 6.008-50.793-50.787-48.086-136.599 6.008-190.688l90.703-90.708c53.351-53.351 137.534-56.68 188.559-8.022.391.358.798.683 1.177 1.057.116.11.204.231.319.352.208.208.429.395.638.604zm-135.962 137.21c.11.11.204.237.319.353.374.374.781.698 1.172 1.057 51.024 48.652 135.208 45.323 188.564-8.027l90.703-90.703c54.088-54.094 56.801-139.906 6.008-190.693-50.787-50.79-136.6-48.083-190.693 6.008l-80.524 80.525s26.172-8.11 53.081-5.381c27.888 2.833 42.259 8.385 42.259 8.385l31.471-31.471c24.967-24.961 65.818-26.276 89.218-2.877 23.399 23.399 22.084 64.256-2.884 89.218l-84.932 84.932c-24.961 24.962-63.97 26.7-87.368 3.296 0 0-.11-.11-.177-.171-15.438-15.438-40.46-15.438-55.898 0-15.113 15.113-15.394 39.398-.913 54.892l-.044.056c.21.206.424.392.638.601z"/></symbol><symbol viewBox="0 0 512 512" id="list" xmlns="http://www.w3.org/2000/svg"><path d="M96 96c0 26.51-21.49 48-48 48S0 122.51 0 96s21.49-48 48-48 48 21.49 48 48zM48 208c-26.51 0-48 21.49-48 48s21.49 48 48 48 48-21.49 48-48-21.49-48-48-48zm0 160c-26.51 0-48 21.49-48 48s21.49 48 48 48 48-21.49 48-48-21.49-48-48-48zm96-236h352c8.837 0 16-7.163 16-16V76c0-8.837-7.163-16-16-16H144c-8.837 0-16 7.163-16 16v40c0 8.837 7.163 16 16 16zm0 160h352c8.837 0 16-7.163 16-16v-40c0-8.837-7.163-16-16-16H144c-8.837 0-16 7.163-16 16v40c0 8.837 7.163 16 16 16zm0 160h352c8.837 0 16-7.163 16-16v-40c0-8.837-7.163-16-16-16H144c-8.837 0-16 7.163-16 16v40c0 8.837 7.163 16 16 16z"/></symbol><symbol viewBox="0 0 16 20" id="lock" xmlns="http://www.w3.org/2000/svg"><path d="M1.994 8.102V5.753C2.012 2.9 3.961.667 6.937.103c3.312-.622 6.643 1.651 7.006 4.788.044.381.062.771.07 1.153.01.672 0 1.352 0 2.041.143.033.249.058.364.083.921.166 1.594.813 1.603 1.676.027 2.805.027 5.61 0 8.414-.009.912-.788 1.626-1.771 1.717-.16.017-.328.025-.488.025H2.26c-.292 0-.593-.017-.868-.1-.841-.232-1.373-.912-1.382-1.775a827.75 827.75 0 010-8.123c.01-1.013.63-1.66 1.71-1.85.088-.009.16-.025.274-.05zm10.638 0c0-1.03.08-2.008-.018-2.98-.195-2.024-1.94-3.642-4.003-3.824-2.374-.208-4.394.995-5.058 3.045-.398 1.228-.16 2.49-.221 3.759h9.3zm-4.606 3.16c-.85-.007-1.585.466-1.878 1.196-.292.738-.141 1.684.558 2.04.691.358.656.839.638 1.395 0 .124 0 .249.009.373.018.382.248.581.638.606.38.025.646-.216.673-.614.018-.34.018-.689.009-1.037-.01-.233.07-.365.3-.482.833-.414 1.197-1.236.975-2.107-.212-.788-1.01-1.36-1.922-1.37z"/></symbol><symbol viewBox="0 0 22 16" id="mail" xmlns="http://www.w3.org/2000/svg"><path d="M0 5.995V12a3.94 3.94 0 001.208 2.828A4.191 4.191 0 004.125 16h13.75a4.191 4.191 0 002.917-1.172A3.94 3.94 0 0022 12V5.995l-10.436 4.554a1.41 1.41 0 01-1.128 0L0 5.995zm.102-2.88L11 7.872l10.898-4.757A3.987 3.987 0 0020.45.874 4.207 4.207 0 0017.875 0H4.125C3.19 0 2.282.308 1.551.874A3.986 3.986 0 00.1 3.114z"/></symbol><symbol viewBox="0 0 48 48" id="mail-account" xmlns="http://www.w3.org/2000/svg"><path d="M40 8H8c-2.21 0-3.98 1.79-3.98 4L4 36c0 2.21 1.79 4 4 4h32c2.21 0 4-1.79 4-4V12c0-2.21-1.79-4-4-4zm0 8L24 26 8 16v-4l16 10 16-10v4z"/></symbol><symbol viewBox="0 0 512 512" id="mail-restore" xmlns="http://www.w3.org/2000/svg"><path d="M.5 165.013h133.304v22.218H.5v-22.218zm66.652 66.652H44.935v22.217h88.87v-22.217H67.152zm22.218 88.869h44.435v-22.217H89.37v22.217zM511.5 150.671v210.658c0 16.593-13.543 30.093-30.185 30.093H186.202c-16.637 0-30.18-13.5-30.18-30.093V150.671c0-16.594 13.543-30.093 30.18-30.093h295.114c16.641 0 30.184 13.5 30.184 30.093zm-53.248 156.75l-60.073-59.891 58.802-41.883c4.521-3.215 5.572-9.486 2.344-13.99-3.237-4.508-9.517-5.55-14.038-2.33l-111.525 79.427-111.525-79.427c-4.526-3.22-10.805-2.178-14.038 2.33-3.228 4.504-2.178 10.775 2.343 13.99l58.803 41.883-60.074 59.891c-3.927 3.919-3.927 10.271 0 14.182 1.966 1.965 4.543 2.946 7.117 2.946s5.151-.981 7.112-2.946l62.443-62.253 47.819 34.056 47.819-34.056 62.443 62.253c1.961 1.965 4.539 2.946 7.112 2.946s5.15-.981 7.116-2.946c3.927-3.911 3.927-10.263 0-14.182z"/></symbol><symbol viewBox="0 0 512 512" id="man-delete" xmlns="http://www.w3.org/2000/svg"><path d="M351.809 479.563l-53.226-53.229 53.226-53.225-53.226-53.225 53.226-53.229 53.229 53.229 53.229-53.229 53.233 53.229-53.233 53.225 53.233 53.225-53.233 53.229-53.229-53.229-53.229 53.229zm-77.316-77.32l29.139-29.135-29.139-29.135c-13.304-13.303-13.304-34.873 0-48.177l25.749-25.754a43230.126 43230.126 0 01-35.193-15.249V235.64c0-1.443.445-3.782 1.368-7.023a412.599 412.599 0 013.02-9.979c1.26-4.002 2.636-8.3 4.096-12.823 5.281-9.893 9.444-20.967 12.463-33.304 3.011-12.338 4.521-25.315 4.521-39.021 0-18.607-1.95-34.393-5.889-47.235-3.946-12.889-9.314-23.286-16.172-31.239-6.846-7.937-14.775-13.671-23.824-17.239-9.032-3.588-18.651-5.339-28.881-5.339-10.417 0-20.127 1.805-29.156 5.477-9.053 3.639-16.946 9.496-23.683 17.535-6.774 8.022-12.105 18.418-16.052 31.208-3.909 12.769-5.888 28.382-5.888 46.833 0 14.054 1.567 27.344 4.67 39.853 3.102 12.511 7.311 23.67 12.6 33.528 1.452 4.213 2.753 8.145 3.826 11.767.927 3.117 1.775 6.169 2.62 9.184.811 3.013 1.41 5.265 1.763 6.704v18.36c-5.66 2.549-125.151 53.212-128.989 54.477-7.489 2.757-13.586 6.898-18.343 12.492-4.741 5.568-8.496 11.215-11.236 17.104-3.287 6.756-5.728 13.88-7.383 21.36v63.497h264.354c.952-7.157 4.137-14.072 9.639-19.574z"/></symbol><symbol viewBox="0 0 512 512" id="man-minus" xmlns="http://www.w3.org/2000/svg"><path d="M511.5 430.367H298.583v-70.974H511.5v70.974zm-246.983 0v-70.974c0-18.813 15.254-34.066 34.066-34.066h63.011a442.227 442.227 0 00-6.176-2.607c-7.29-3.049-84.522-36.508-90.369-39.053v-19.154c0-1.443.445-3.782 1.368-7.023a412.599 412.599 0 013.02-9.979c1.26-4.003 2.636-8.301 4.096-12.823 5.281-9.893 9.444-20.967 12.463-33.304 3.011-12.338 4.521-25.314 4.521-39.021 0-18.607-1.95-34.393-5.889-47.234-3.946-12.89-9.314-23.286-16.172-31.239-6.846-7.937-14.775-13.671-23.824-17.238-9.032-3.589-18.651-5.34-28.881-5.34-10.417 0-20.127 1.805-29.156 5.477-9.053 3.639-16.946 9.496-23.683 17.534-6.774 8.022-12.105 18.418-16.052 31.208-3.909 12.769-5.888 28.382-5.888 46.833 0 14.054 1.567 27.345 4.67 39.854 3.102 12.511 7.311 23.67 12.6 33.528 1.452 4.213 2.753 8.145 3.826 11.767.927 3.116 1.775 6.169 2.62 9.184.811 3.013 1.41 5.265 1.763 6.704v18.359c-5.66 2.549-125.151 53.213-128.989 54.477-7.489 2.757-13.586 6.899-18.343 12.492-4.741 5.568-8.496 11.216-11.236 17.104-3.285 6.758-5.726 13.881-7.381 21.362v63.496h270.791c-4.239-5.677-6.776-12.697-6.776-20.324z"/></symbol><symbol viewBox="0 0 512 512" id="man-plus" xmlns="http://www.w3.org/2000/svg"><path d="M511.5 408.593h-70.97v70.97h-70.978v-70.97h-70.97v-70.978h70.97v-70.97h70.978v70.97h70.97v70.978zm-246.983 0v-70.978c0-18.813 15.254-34.066 34.066-34.066h36.903V285.28a52226.79 52226.79 0 01-70.438-30.486V235.64c0-1.443.445-3.782 1.368-7.023a412.599 412.599 0 013.02-9.979c1.26-4.002 2.636-8.3 4.096-12.823 5.281-9.893 9.444-20.967 12.463-33.304 3.011-12.338 4.521-25.315 4.521-39.021 0-18.607-1.95-34.393-5.889-47.235-3.946-12.889-9.314-23.286-16.172-31.239-6.846-7.937-14.775-13.671-23.824-17.239-9.032-3.588-18.651-5.339-28.881-5.339-10.417 0-20.127 1.805-29.156 5.477-9.053 3.639-16.946 9.496-23.683 17.535-6.774 8.022-12.105 18.418-16.052 31.208-3.909 12.769-5.888 28.382-5.888 46.833 0 14.054 1.567 27.344 4.67 39.853 3.102 12.511 7.311 23.67 12.6 33.528 1.452 4.213 2.753 8.145 3.826 11.767.927 3.117 1.775 6.169 2.62 9.184.811 3.013 1.41 5.265 1.763 6.704v18.36c-5.66 2.549-125.151 53.212-128.989 54.477-7.489 2.757-13.586 6.898-18.343 12.492-4.741 5.568-8.496 11.215-11.236 17.104-3.286 6.756-5.727 13.88-7.382 21.36v63.497h266.683a33.893 33.893 0 01-2.666-13.224z"/></symbol><symbol viewBox="0 0 91 91" id="megaphone" xmlns="http://www.w3.org/2000/svg"><path d="M58.67 28.94C49.82 15.92 38 9 31.81 13.24A7.14 7.14 0 0030.06 15c0 .05-14.33 29.05-14.33 29.05l-8 5.42a11.3 11.3 0 00-3 15.7l.36.53a11.32 11.32 0 0015.63 3l12.85 18.93c1.89 2.33 5.52 4.65 10 1.92a6.77 6.77 0 003-4.6 7.16 7.16 0 00-1.11-5.4l-11.32-16.7S60.9 60.72 61 60.68a6.41 6.41 0 002.33-1c3.18-2.16 4.32-6.69 3.22-12.76-.99-5.59-3.8-11.92-7.88-17.98zM8 63.73l-.36-.53a7.79 7.79 0 012.08-10.83l6.91-4.7 9.12 13.43-6.91 4.7A7.8 7.8 0 018 63.73zm34.58 17.79a3.7 3.7 0 01-1 5.13 3.71 3.71 0 01-5.14-1L23.63 66.78l5.15-3.5 1.36-.11zM29.06 59.74L19.12 45.1l9.48-19.33c.92 5.43 3.61 11.88 7.91 18.21s9.3 11.21 14 14.07zm29.5-2.33C53.78 57.1 46 51.71 39.41 42s-8.73-18.9-7.26-23.47a4.26 4.26 0 014-3c4.74 0 12.81 5.42 19.59 15.41 3.82 5.62 6.6 11.5 7.36 16.64 1.49 9.83-4.54 9.83-4.54 9.83z"/><path d="M46.17 29.31a9.39 9.39 0 00-7.12 1.47 1.75 1.75 0 102 2.89 6 6 0 116.74 9.93 1.75 1.75 0 001 3.19 1.71 1.71 0 001-.3 9.49 9.49 0 00-3.55-17.18zm14.66-12.54H61a1.75 1.75 0 001.74-1.57l1.35-13.12a1.75 1.75 0 10-3.48-.36l-1.34 13.13a1.75 1.75 0 001.56 1.92zm22.62-2.7a1.76 1.76 0 00-2.43-.5l-12.19 8a1.75 1.75 0 001 3.21 1.78 1.78 0 001-.28l12.19-8a1.75 1.75 0 00.43-2.43zm3.73 21.36L73 32.88a1.75 1.75 0 00-.62 3.45l14.17 2.55h.31a1.75 1.75 0 00.31-3.48z"/></symbol><symbol viewBox="0 0 512 512" id="mobile" xmlns="http://www.w3.org/2000/svg"><path d="M382.303.5H129.697c-7.172 0-12.992 5.816-12.992 12.988v485.017c0 7.179 5.819 12.995 12.992 12.995h252.606c7.176 0 12.992-5.816 12.992-12.995V13.488C395.295 6.316 389.479.5 382.303.5zM227.919 41.854h56.163v11.812h-56.163V41.854zm28.083 448.949c-15.545-.234-28.083-12.028-28.083-26.562 0-14.541 12.538-26.332 28.083-26.563 15.545.23 28.08 12.021 28.08 26.563 0 14.533-12.535 26.327-28.08 26.562zm115.67-61.026H140.328V82.219h231.344v347.558zm-102.858 33.907c0 7.075-5.734 12.809-12.813 12.809-7.076 0-12.81-5.733-12.81-12.809s5.733-12.81 12.81-12.81c7.079 0 12.813 5.733 12.813 12.81z" fill-rule="evenodd" clip-rule="evenodd"/></symbol><symbol viewBox="0 0 512 512" id="monets" xmlns="http://www.w3.org/2000/svg"><path d="M319.875 75.021c-105.834 0-191.625 52.431-191.625 117.104v42.583c0 64.674 85.791 117.104 191.625 117.104 105.835 0 191.625-52.431 191.625-117.104v-42.583c0-64.674-85.79-117.104-191.625-117.104zm122.178 178.107c-32.237 19.702-75.627 30.551-122.178 30.551s-89.94-10.849-122.178-30.551c-16.393-10.02-43.897-31.268-43.897-61.003s27.505-50.983 43.897-61.004c32.237-19.701 75.627-30.551 122.178-30.551s89.94 10.85 122.178 30.551c16.393 10.021 43.897 31.269 43.897 61.004s-27.505 50.983-43.897 61.003zM319.875 373.104c15.641 0 30.818-1.069 45.42-3.057-30.753 39.568-96.72 66.932-173.17 66.932C86.291 436.979.5 384.549.5 319.875v-42.583c0-46.52 44.388-86.702 108.696-105.598-1.456 6.655-2.237 13.474-2.237 20.431v7.055c-13.437 4.605-25.899 10.317-37.011 17.108-16.393 10.02-43.897 31.268-43.897 61.004 0 29.733 27.505 50.983 43.897 61.005 32.237 19.699 75.627 30.549 122.178 30.549 17.732 0 35.002-1.584 51.378-4.624 23.612 5.73 49.315 8.882 76.371 8.882zM334.334 227.1h28.124v18.254H275.99V227.1h28.315v-65.203l-29.076 4.817v-18.692l59.104-9.126V227.1z"/></symbol><symbol viewBox="0 0 18 19" id="money" xmlns="http://www.w3.org/2000/svg"><path d="M1.624 12.25c.03-.71.076-1.422.092-2.134a.366.366 0 00-.138-.26C.483 9.152-.022 8.165.024 6.864c.03-.803.038-1.606 0-2.41-.061-1.132.444-1.958 1.309-2.616C2.42 1.01 3.675.583 5.007.338c2.748-.505 5.48-.459 8.136.505.727.268 1.424.681 2.06 1.14.795.574 1.193 1.385 1.163 2.402-.03.995.053 1.99-.03 2.984-.047.536.099.811.52 1.125.773.581 1.14 1.415 1.132 2.395-.007.895-.038 1.782.008 2.678.054 1.132-.444 1.958-1.309 2.616-1.087.826-2.35 1.263-3.674 1.508-2.656.49-5.297.436-7.891-.406-.842-.276-1.63-.658-2.312-1.224-.75-.628-1.202-1.4-1.148-2.418.023-.459.008-.918.008-1.377-.023-.015-.039-.015-.046-.015zM7.87 1.655c-.406.038-1.133.084-1.853.168-.405.046-.803.13-1.194.238-1.018.267-2.013.589-2.786 1.346-.505.482-.528.972.008 1.408.482.398 1.04.757 1.622.972 2.633.979 5.328 1.002 8.045.344.918-.222 1.799-.566 2.534-1.194.635-.543.65-1.117 0-1.63a6.07 6.07 0 00-1.34-.795c-1.508-.65-3.1-.826-5.036-.857zm-4.6 9.15c.145.2.244.46.436.582.55.36 1.102.742 1.707.98 1.867.726 3.819.81 5.786.65 1.286-.1 2.549-.352 3.705-.957.428-.221.819-.543 1.186-.872.245-.222.375-.566.16-.864-.229-.314-.535-.567-.826-.82-.046-.037-.206.016-.29.07-.59.321-1.149.719-1.761.971-2.082.85-4.271 1.049-6.483.857-1.187-.1-2.365-.382-3.62-.596zm-1.6-4.123c-.054 1.04.091 1.354.98 1.874a7.38 7.38 0 001.27.597c2.28.773 4.615.842 6.973.42 1.08-.19 2.12-.52 3.046-1.14.636-.42.927-.979.743-1.736C10.35 8.769 6.025 8.769 1.67 6.681zm14.65 6.534c-4.332 2.088-8.657 2.088-13.005-.008-.13.65-.007 1.232.582 1.6.505.313 1.018.634 1.577.833 2.197.788 4.462.865 6.743.505 1.187-.184 2.327-.52 3.353-1.194.643-.413.918-.979.75-1.736z"/></symbol><symbol viewBox="0 0 48 48" id="pallete" xmlns="http://www.w3.org/2000/svg"><path d="M24 6C14.06 6 6 14.06 6 24s8.06 18 18 18c1.66 0 3-1.34 3-3 0-.78-.29-1.48-.78-2.01-.47-.53-.75-1.22-.75-1.99 0-1.66 1.34-3 3-3H32c5.52 0 10-4.48 10-10 0-8.84-8.06-16-18-16zM13 24c-1.66 0-3-1.34-3-3s1.34-3 3-3 3 1.34 3 3-1.34 3-3 3zm6-8c-1.66 0-3-1.34-3-3s1.34-3 3-3 3 1.34 3 3-1.34 3-3 3zm10 0c-1.66 0-3-1.34-3-3s1.34-3 3-3 3 1.34 3 3-1.34 3-3 3zm6 8c-1.66 0-3-1.34-3-3s1.34-3 3-3 3 1.34 3 3-1.34 3-3 3z"/></symbol><symbol viewBox="0 0 512 512" id="people" xmlns="http://www.w3.org/2000/svg"><path d="M437.76 195.421c14.561-14.261 23.04-33.742 23.04-54.621 0-42.346-34.45-76.8-76.8-76.8-13.992 0-27.758 3.846-39.825 11.125a8.54 8.54 0 00-2.9 11.717c2.433 4.038 7.683 5.325 11.717 2.9 9.408-5.675 20.125-8.675 31.008-8.675 32.933 0 59.733 26.796 59.733 59.733 0 20.283-10.158 38.979-27.208 50.037-14.317 9.392-32.467 12.1-49.042 7.379-4.483-1.292-9.25 1.325-10.55 5.858a8.538 8.538 0 005.867 10.55 77.026 77.026 0 0021.2 2.975c13.418 0 26.388-3.66 37.903-10.27 43.806 15.873 73.03 57.232 73.03 104.137v42.667h-77.812c-6.044-56.996-41.902-106.872-94.205-130.555 16.644-16.946 26.95-40.138 26.95-65.711C349.867 106.108 307.758 64 256 64s-93.867 42.108-93.867 93.867c0 25.581 10.312 48.78 26.965 65.728-17.602 7.997-33.927 19.185-47.773 32.952-26.543 26.619-42.695 60.784-46.529 97.588H17.067v-42.667c0-29.55 11.542-57.412 32.467-78.425 11.519-11.446 25.543-20.178 40.643-25.666C101.694 213.96 114.625 217.6 128 217.6c7.167 0 14.3-1 21.2-2.975a8.54 8.54 0 005.867-10.55c-1.3-4.533-6.067-7.146-10.55-5.858-16.567 4.729-34.708 2.025-49.083-7.4-17.008-11.038-27.167-29.733-27.167-50.017 0-32.937 26.8-59.733 59.733-59.733 10.883 0 21.6 3 31.008 8.675a8.552 8.552 0 0011.717-2.9c2.433-4.037 1.133-9.279-2.9-11.717C155.758 67.846 141.992 64 128 64c-42.35 0-76.8 34.454-76.8 76.8 0 20.863 8.465 40.329 22.984 54.577a129.985 129.985 0 00-36.717 25.59C13.308 245.233 0 277.371 0 311.467v51.2a8.53 8.53 0 008.533 8.533h85.333v68.267a8.53 8.53 0 008.533 8.533h307.2a8.53 8.53 0 008.533-8.533V371.2h85.333a8.53 8.53 0 008.533-8.533v-51.2c.002-50.455-29.32-95.339-74.238-116.046zM179.2 157.867c0-42.346 34.45-76.8 76.8-76.8 42.35 0 76.8 34.454 76.8 76.8s-34.45 76.8-76.8 76.8c-42.35 0-76.8-34.455-76.8-76.8zm221.867 273.066H110.933V371.2c0-38.692 15.083-75.129 42.45-102.579 14.417-14.34 31.895-25.463 50.634-32.659 14.895 9.947 32.767 15.771 51.983 15.771 19.248 0 37.151-5.841 52.06-15.818 55.778 21.431 93.007 75.205 93.007 135.285v59.733z"/></symbol><symbol viewBox="0 0 48 48" id="person" xmlns="http://www.w3.org/2000/svg"><path d="M24 24c4.42 0 8-3.59 8-8 0-4.42-3.58-8-8-8s-8 3.58-8 8c0 4.41 3.58 8 8 8zm0 4c-5.33 0-16 2.67-16 8v4h32v-4c0-5.33-10.67-8-16-8z"/></symbol><symbol viewBox="0 0 25 24" id="plane" xmlns="http://www.w3.org/2000/svg"><path d="M24.483.983c.12-.626-.418-1.158-.937-.928L.95 9.98c-.275.122-.45.417-.45.755s.181.633.45.755l6.35 2.82v8.883c0 .374.226.698.538.784.313.086.644-.086.788-.424l2.625-5.992 6.407 5.474c.387.33.95.122 1.094-.418C24.733.056 24.477 1.034 24.483.983zm-5.575 2.84L7.9 12.844l-4.738-2.107 15.745-6.912zM8.707 14.175l9.595-7.862c-8.257 10.02-7.826 9.495-7.864 9.545-.056.08.094-.237-1.731 3.935v-5.618zm8.988 6.877l-5.638-4.82L22.258 3.86l-4.563 17.19z"/></symbol><symbol viewBox="0 0 48 48" id="plus-round" xmlns="http://www.w3.org/2000/svg"><path d="M24 4C12.95 4 4 12.95 4 24s8.95 20 20 20 20-8.95 20-20S35.05 4 24 4zm10 22h-8v8h-4v-8h-8v-4h8v-8h4v8h8v4z"/></symbol><symbol viewBox="0 0 50 50" id="search" xmlns="http://www.w3.org/2000/svg"><path d="M21 3C11.602 3 4 10.602 4 20s7.602 17 17 17c3.355 0 6.46-.984 9.094-2.656l12.281 12.281 4.25-4.25L34.5 30.281C36.68 27.421 38 23.88 38 20c0-9.398-7.602-17-17-17zm0 4c7.2 0 13 5.8 13 13s-5.8 13-13 13S8 27.2 8 20 13.8 7 21 7z"/></symbol><symbol viewBox="0 0 512 512" id="segment" xmlns="http://www.w3.org/2000/svg"><path d="M511.5 242.917H269.079V.505C392.965 21.3 490.705 119.042 511.5 242.917zM224.316 63.864C100.706 63.864.5 164.069.5 287.68s100.206 223.815 223.816 223.815c123.611 0 223.816-100.205 223.816-223.815H224.316V63.864z"/></symbol><symbol viewBox="0 -91 512 512" id="speedometer" xmlns="http://www.w3.org/2000/svg"><path d="M512 288H405.332v-21.332h85.336V256c0-129.332-105.336-234.668-234.668-234.668S21.332 126.668 21.332 256v10.668h85.336V288H0v-32C0 114.8 114.8 0 256 0s256 114.8 256 256zm0 0"/><path d="M245.332 10.668h21.336v64h-21.336zM79.727 85.95l51.664 51.663-15.082 15.086-51.668-51.664zm352.566.015l15.086 15.086-51.668 51.664-15.082-15.086zM259.066 330.668c-31.066 0-56.398-25.336-56.398-56.402 0-21.598 12.664-41.598 32.133-50.934l144-68.664-68.668 144c-9.332 19.332-29.332 32-51.067 32zm74.536-130.934L244 242.535c-12.133 5.73-20 18.266-20 31.73 0 19.337 15.734 35.067 35.066 35.067 13.47 0 25.868-7.867 31.735-20zm0 0"/></symbol><symbol viewBox="0 0 20 20" id="star" xmlns="http://www.w3.org/2000/svg"><path d="M6.58 15.25l.92-3.89-3-2.58 3.95-.37L10 4.8l1.55 3.65 3.95.33-3 2.58.92 3.89L10 13.19l-3.42 2.06zM10 0a10 10 0 110 20 10 10 0 010-20zm0 2a8 8 0 100 16 8 8 0 000-16z"/></symbol><symbol viewBox="0 0 512 512" id="star-round" xmlns="http://www.w3.org/2000/svg"><path d="M256 .5C114.892.5.5 114.891.5 256 .5 397.108 114.892 511.5 256 511.5c141.109 0 255.5-114.392 255.5-255.5C511.5 114.891 397.109.5 256 .5zm109.52 425.834L256 368.142l-109.519 58.192 20.918-123.252-88.601-87.291 122.445-17.987L256 85.666l54.756 112.138 122.446 17.987-88.601 87.291 20.919 123.252z"/></symbol><symbol viewBox="0 0 18 25" id="state" xmlns="http://www.w3.org/2000/svg"><path d="M9 3.5c-3.309 0-6 2.691-6 6s2.691 6 6 6 6-2.691 6-6-2.691-6-6-6zm0 11c-2.757 0-5-2.243-5-5s2.243-5 5-5 5 2.243 5 5-2.243 5-5 5z"/><path d="M15.077 16.119C16.869 14.472 18 12.119 18 9.5c0-4.962-4.037-9-9-9s-9 4.038-9 9a8.968 8.968 0 002.922 6.618l-2.89 7.707a.501.501 0 00.692.623l3.74-1.87 2.759 1.839a.498.498 0 00.745-.24l1.092-2.913.965 2.894a.5.5 0 00.752.258l2.759-1.84 3.74 1.87a.498.498 0 00.691-.622l-2.89-7.705zm-6.545 3.706l-1.279 3.41-2.476-1.65a.5.5 0 00-.501-.031l-2.861 1.43 2.324-6.197a8.95 8.95 0 004.385 1.669l.44 1.319c-.01.017-.025.03-.032.05zM9 17.5c-4.411 0-8-3.59-8-8 0-4.411 3.589-8 8-8 4.41 0 8 3.589 8 8 0 4.41-3.589 8-8 8zm4.723 4.053a.497.497 0 00-.501.03l-2.455 1.638L9.19 18.49a8.935 8.935 0 005.07-1.703l2.324 6.197-2.861-1.431z"/></symbol><symbol viewBox="0 0 512 512" id="stop" xmlns="http://www.w3.org/2000/svg"><path d="M256 8C119 8 8 119 8 256s111 248 248 248 248-111 248-248S393 8 256 8zm96 328c0 8.8-7.2 16-16 16H176c-8.8 0-16-7.2-16-16V176c0-8.8 7.2-16 16-16h160c8.8 0 16 7.2 16 16v160z"/></symbol><symbol viewBox="0 0 512 512" id="survey" xmlns="http://www.w3.org/2000/svg"><path d="M0 145.067c0 56.554 45.846 102.4 102.4 102.4s102.4-45.846 102.4-102.4-45.846-102.4-102.4-102.4C45.871 42.728.061 88.538 0 145.067zm102.4-85.334c47.128 0 85.333 38.205 85.333 85.333S149.528 230.4 102.4 230.4s-85.333-38.205-85.333-85.333c.051-47.107 38.226-85.282 85.333-85.334zm0 409.6c56.554 0 102.4-45.846 102.4-102.4s-45.846-102.4-102.4-102.4S0 310.379 0 366.933c.061 56.529 45.871 102.339 102.4 102.4zm0-187.733c47.128 0 85.333 38.205 85.333 85.333s-38.205 85.333-85.333 85.333-85.333-38.205-85.333-85.333c.051-47.107 38.226-85.281 85.333-85.333zM452.267 85.333H281.6c-32.99 0-59.733 26.744-59.733 59.733S248.61 204.8 281.6 204.8h170.667c32.99 0 59.733-26.744 59.733-59.733s-26.743-59.734-59.733-59.734zm0 102.4H281.6c-23.564 0-42.667-19.103-42.667-42.667S258.036 102.4 281.6 102.4h170.667c23.564 0 42.667 19.103 42.667 42.667s-19.103 42.666-42.667 42.666zm0 119.467H281.6c-32.99 0-59.733 26.744-59.733 59.733s26.744 59.733 59.733 59.733h170.667c32.99 0 59.733-26.744 59.733-59.733S485.257 307.2 452.267 307.2zm0 102.4H281.6c-23.564 0-42.667-19.103-42.667-42.667s19.103-42.667 42.667-42.667h170.667c23.564 0 42.667 19.103 42.667 42.667-.001 23.565-19.103 42.667-42.667 42.667z"/><path d="M102.4 204.8c32.99 0 59.733-26.744 59.733-59.733S135.39 85.333 102.4 85.333s-59.733 26.744-59.733 59.733c.042 32.973 26.761 59.692 59.733 59.734zm0-102.4c23.564 0 42.667 19.103 42.667 42.667s-19.103 42.667-42.667 42.667-42.667-19.103-42.667-42.667c.029-23.553 19.115-42.639 42.667-42.667z"/></symbol><symbol viewBox="0 0 48 48" id="tags" xmlns="http://www.w3.org/2000/svg"><path d="M35.27 11.69A4.015 4.015 0 0032 10l-22 .02c-2.21 0-4 1.77-4 3.98v20c0 2.21 1.79 3.98 4 3.98L32 38c1.35 0 2.54-.67 3.27-1.69L44 24l-8.73-12.31z"/></symbol><symbol viewBox="0 0 448 512" id="unread" xmlns="http://www.w3.org/2000/svg"><path d="M224 32C15.9 32-77.5 278 84.6 400.6V480l75.7-42c142.2 39.8 285.4-59.9 285.4-198.7C445.8 124.8 346.5 32 224 32zm23.4 278.1L190 250.5 79.6 311.6l121.1-128.5 57.4 59.6 110.4-61.1-121.1 128.5z"/></symbol><symbol viewBox="0 0 48 48" id="upload" xmlns="http://www.w3.org/2000/svg"><path d="M38 18h-8V6H18v12h-8l14 14 14-14zM10 36v4h28v-4H10z"/></symbol><symbol viewBox="0 0 48 48" id="urn" xmlns="http://www.w3.org/2000/svg"><path d="M12 38c0 2.21 1.79 4 4 4h16c2.21 0 4-1.79 4-4V14H12v24zM38 8h-7l-2-2H19l-2 2h-7v4h28V8z"/></symbol><symbol viewBox="0 0 25 14" id="vk" xmlns="http://www.w3.org/2000/svg"><path fill-rule="evenodd" clip-rule="evenodd" d="M23.95.948c.166-.546 0-.948-.795-.948H20.53c-.668 0-.976.347-1.143.73 0 0-1.335 3.196-3.226 5.272-.612.602-.89.793-1.224.793-.167 0-.418-.191-.418-.738V.948c0-.656-.184-.948-.74-.948H9.651c-.417 0-.668.304-.668.593 0 .621.946.765 1.043 2.513v3.798c0 .833-.153.984-.487.984-.89 0-3.055-3.211-4.34-6.885C4.95.288 4.698 0 4.027 0H1.4C.65 0 .5.347.5.73c0 .682.89 4.07 4.145 8.551C6.815 12.341 9.87 14 12.653 14c1.669 0 1.875-.368 1.875-1.003v-2.313c0-.737.158-.884.687-.884.39 0 1.057.192 2.615 1.667C19.61 13.216 19.903 14 20.905 14h2.625c.75 0 1.126-.368.91-1.096-.238-.724-1.088-1.775-2.215-3.022-.612-.71-1.53-1.475-1.809-1.858-.389-.491-.278-.71 0-1.147 0 0 3.2-4.426 3.533-5.929h.001z"/></symbol><symbol viewBox="0 0 512.001 512.001" id="vote" xmlns="http://www.w3.org/2000/svg"><path d="M504.501 187.277a7.499 7.499 0 00-7.5 7.5v18.475c0 7.984-6.496 14.481-14.481 14.481-8.08 0-14.482-6.628-14.482-14.481.028-114.853-.066-107.866.073-109.267.716-7.205 6.825-13.05 14.41-13.05 7.984 0 14.481 6.496 14.481 14.481v54.358a7.497 7.497 0 007.498 7.501c4.143 0 7.5-3.357 7.5-7.5v-54.359c0-16.257-13.226-29.482-29.482-29.482-12.079 0-22.479 7.303-27.03 17.725-7.44-.631-17.363 2.274-28.066-5.66-13.617-10.098-30.634-15.889-46.685-15.889l-96.292.001c-23.526 0-35.747 27.545-20.444 45.177-11.927 9.325-13.916 26.33-4.824 38.087-.078.1-15.358 9.181-11.938 27.708a27.116 27.116 0 007.595 14.433c-18.376 16.6-6.663 47.322 18.19 47.322h50.598c-17.674 32.319-16.502 64.987-16.295 68.817 1.58 29.247 35.414 39.715 49.492 13.898 3.776-6.925 5.022-15.144 6.226-22.962 2.632-10.81 10.651-30.265 34.886-41.765 8.693-2.797 17.38-7.34 25.156-13.159 5.602-4.193 10.199-9.854 13.295-16.369 5.128-10.796 17.077-8.031 19.044-8.423 4.519 10.493 14.96 17.859 27.092 17.859 16.257 0 29.482-13.226 29.482-29.482v-18.475a7.497 7.497 0 00-7.499-7.5zm-54.792 22.597c-11.426 0-21.975 6.668-26.877 16.987-2.054 4.323-5.074 8.057-8.734 10.796-11.26 8.427-20.75 10.754-22.085 11.376-30.502 14.242-40.427 38.924-43.63 52.369-.5 2.093-1.458 12.963-4.734 18.97-6.901 12.66-20.594 6.332-21.342-7.526-.194-3.592-1.348-35.967 17.682-66.275 4.542-7.234-.645-16.734-9.267-16.734h-57.698c-6.707 0-12.164-5.456-12.164-12.163s5.456-12.164 12.164-12.164c16.668-.034-4.538-.104 7.692-.104 4.143 0 7.5-3.357 7.5-7.5s-3.357-7.5-7.5-7.5h-6.709c-5.394 0-10.664-3.533-12.025-10.097-.773-4.397 1.221-7.585 1.53-8.367l1.248-1.726 1.188-1.198c.636-.551 2.203-1.559 2.103-1.491 2.334-.9 3.43-1.551 5.955-1.551h6.708a7.5 7.5 0 007.5-7.5 7.5 7.5 0 00-7.499-7.5c-13.096-.002-17.006-18.134-4.891-23.41 3.221-1.405 5.358-.923 8.617-1.021a7.5 7.5 0 00.175-14.998c-1.375-.027-.652-.026-1.485-.073l-2.157-.432-.623-.202-3.012-1.577-1.575-1.341-1.516-1.865c-.048-.109-2.484-3.492-1.932-8.161.916-6.621 6.269-10.781 12.128-10.781l96.292-.001c12.713 0 26.825 4.836 37.75 12.939 15.16 11.239 29.562 8.06 34.547 8.611v101.214h-3.324zM257.164 314.486c18.377-16.594 6.669-47.322-18.188-47.322h-50.598c17.674-32.319 16.502-64.987 16.295-68.818-1.588-29.362-35.458-39.63-49.492-13.897-3.776 6.925-5.021 15.144-6.226 22.962-2.632 10.81-10.651 30.265-34.886 41.765-8.692 2.796-17.378 7.338-25.157 13.159-5.602 4.193-10.199 9.855-13.294 16.369-5.128 10.796-17.077 8.031-19.044 8.424-4.519-10.494-14.96-17.86-27.091-17.86C13.226 269.265 0 282.492 0 298.749v11.596c0 4.143 3.357 7.5 7.5 7.5s7.5-3.357 7.5-7.5v-11.596c0-7.985 6.496-14.482 14.482-14.482 8.146 0 14.482 6.704 14.482 14.482v107.836c0 7.804-6.359 14.481-14.482 14.481-7.984 0-14.482-6.496-14.482-14.481v-61.238c0-4.143-3.357-7.5-7.5-7.5s-7.5 3.357-7.5 7.5v61.238c0 16.257 13.226 29.482 29.483 29.482 12.079 0 22.479-7.303 27.03-17.725 7.44.631 17.363-2.274 28.066 5.66 13.617 10.098 30.634 15.889 46.685 15.889h42.084c4.143 0 7.5-3.357 7.5-7.5s-3.357-7.5-7.5-7.5h-42.084c-12.713 0-26.825-4.836-37.75-12.939-15.16-11.239-29.562-8.06-34.547-8.611V302.126h3.325c11.426 0 21.975-6.668 26.877-16.987 2.054-4.323 5.074-8.057 8.733-10.797 11.263-8.427 20.751-10.753 22.086-11.375 30.502-14.242 40.427-38.924 43.63-52.369a7.1 7.1 0 00.116-.595c.906-5.886 1.945-13.474 4.618-18.375 6.917-12.692 20.594-6.299 21.342 7.526.194 3.592 1.348 35.967-17.682 66.275-4.542 7.234.645 16.734 9.267 16.734h57.698c6.707 0 12.164 5.456 12.164 12.163 0 6.706-5.456 12.163-12.164 12.163h-5.66c-.26 0-.52.014-.778.04-.097.011-.194.016-.293.022l-.326.025c-.21.011-.422.017-.635.017-4.143 0-7.5 3.357-7.5 7.5s3.357 7.5 7.5 7.5h6.709c5.394 0 10.665 3.533 12.026 10.098 1.016 5.69-2.365 9.466-2.411 9.646l-1.146 1.268-.41.378c-.634.549-2.071 1.482-1.971 1.414-3.716 2.138-7.489 1.624-12.796 1.628a7.5 7.5 0 00-7.5 7.5 7.5 7.5 0 007.499 7.5c13.226.002 17.138 18.534 4.459 23.587-3.22 1.255-5.326.712-8.185.844a7.5 7.5 0 00-.175 14.998c3.023.075 5.194 1.072 5.094 1.036 1.803.854 3.188 2.04 3.048 1.929 8.481 7.42 3.439 21.467-7.969 21.467h-19.206c-4.143 0-7.5 3.357-7.5 7.5s3.357 7.5 7.5 7.5h19.206c13.158 0 24.417-9.39 26.778-22.363-.039-.167 2.972-12.098-6.333-22.813 11.962-9.352 13.893-26.356 4.825-38.087 14.318-9.24 16.791-29.79 4.337-42.137z"/></symbol><symbol viewBox="0 0 60 60" id="worker" xmlns="http://www.w3.org/2000/svg"><path d="M5.264 53.322A5.077 5.077 0 0010.081 60h39.838a5.077 5.077 0 004.817-6.677l-3.75-11.253a16.244 16.244 0 00-.96-2.238l.273-1.038A3.025 3.025 0 0047.374 35h-1.113a16.175 16.175 0 00-10.641-4H35v-.724a11.869 11.869 0 004.443-4.044 12.631 12.631 0 001.079-3.959A3.406 3.406 0 0043 19v-6a13 13 0 00-26 0v6a3.406 3.406 0 002.478 3.273 12.609 12.609 0 001.08 3.959A11.865 11.865 0 0025 30.276V31h-.62a16.175 16.175 0 00-10.641 4h-1.113A3.025 3.025 0 009.7 38.794l.274 1.039a16.244 16.244 0 00-.962 2.24zM14 58v-2h32v2zm38.84-4.043A3.078 3.078 0 0149.919 58H48v-2a2 2 0 00-1.711-1.971l2.9-11.024zM42.871 35h-8.9a4.954 4.954 0 00.925-2h.721a14.176 14.176 0 017.254 2zM30 2a11.013 11.013 0 0111 11v2.9a3.289 3.289 0 00-.486-.18 4.437 4.437 0 00-3.9-3.578 12.1 12.1 0 01-5.508-2.2 1.946 1.946 0 00-2.205 0 11.741 11.741 0 01-5.479 2.2 4.415 4.415 0 00-3.936 3.581 3.249 3.249 0 00-.483.179V13A11.013 11.013 0 0130 2zm-7.658 23.328a11.931 11.931 0 01-.943-3.979 1 1 0 00-1-.949 1.4 1.4 0 010-2.8 1 1 0 001-1 2.469 2.469 0 012.2-2.463 13.5 13.5 0 006.362-2.546 13.938 13.938 0 006.47 2.549A2.443 2.443 0 0138.6 16.6a1 1 0 001 1 1.4 1.4 0 010 2.8 1 1 0 00-1 .949 11.946 11.946 0 01-.942 3.979C36.685 27.249 32.175 30 30 30s-6.685-2.751-7.658-4.672zM30 32a8.341 8.341 0 003-.728V32a3 3 0 01-6 0v-.728A8.341 8.341 0 0030 32zm-5.62 1h.72a4.954 4.954 0 00.925 2h-8.9a14.176 14.176 0 017.255-2zm-12.566 4.4a1.021 1.021 0 01.812-.4h34.748a1.024 1.024 0 01.991 1.284L44.229 54H15.771l-4.136-15.716a1.018 1.018 0 01.179-.884zm1.9 16.63A2 2 0 0012 56v2h-1.919a3.078 3.078 0 01-2.921-4.044l3.649-10.951z"/><path d="M30 51c2.757 0 5-1.794 5-4s-2.243-4-5-4-5 1.794-5 4 2.243 4 5 4zm0-6c1.626 0 3 .916 3 2s-1.374 2-3 2-3-.916-3-2 1.374-2 3-2z"/></symbol><symbol viewBox="0 0 48 48" id="write" xmlns="http://www.w3.org/2000/svg"><path d="M40 4H8C5.79 4 4.02 5.79 4.02 8L4 44l8-8h28c2.21 0 4-1.79 4-4V8c0-2.21-1.79-4-4-4zm-4 24H12v-4h24v4zm0-6H12v-4h24v4zm0-6H12v-4h24v4z"/></symbol><symbol viewBox="0 0 512 512" id="xls" xmlns="http://www.w3.org/2000/svg"><path d="M483.111 141.498v351.076c0 10.409-8.518 18.926-18.927 18.926H104.593c-10.409 0-18.926-8.517-18.926-18.926v-79.016h37.852v60.09h321.74V151.907H359.15c-15.096 0-27.446-12.352-27.446-27.446V38.352H123.519v170.333H85.667V19.426C85.667 9.017 94.184.5 104.593.5h236.101v.065c3.017.279 6.587 2.24 10.42 6.071l125.861 125.861c3.246 3.246 5.153 6.307 5.833 9.001h.303zM369.556 246.537v129.17c0 10.408-8.517 18.926-18.927 18.926H47.814c-10.409 0-18.926-8.518-18.926-18.926v-129.17c0-10.409 8.517-18.926 18.926-18.926h302.814c10.411 0 18.928 8.517 18.928 18.926zM154.46 351.166c0-.998-.32-2.089-.954-3.271l-23.574-38.425 22.758-38.292c.816-1.36 1.225-2.632 1.225-3.814 0-2.27-1.205-4.226-3.609-5.861-2.408-1.634-4.976-2.452-7.699-2.452-2.546 0-4.543 1.273-5.996 3.818l-18.532 33.383-18.532-33.383c-1.362-2.545-3.317-3.818-5.859-3.818-2.726 0-5.293.818-7.699 2.452-2.408 1.636-3.612 3.592-3.612 5.861 0 1.183.409 2.454 1.228 3.814l22.755 38.292-23.574 38.425c-.728 1.275-1.09 2.365-1.09 3.271 0 2.361 1.295 4.428 3.885 6.199 2.589 1.773 5.155 2.66 7.698 2.66 2.181 0 3.816-.953 4.907-2.864l19.895-35.021 20.031 35.021c.998 1.911 2.589 2.864 4.769 2.864 2.634 0 5.223-.887 7.768-2.66 2.538-1.771 3.811-3.838 3.811-6.199zm79.985.41c0-2.092-.477-3.904-1.431-5.453-.953-1.541-2.247-2.316-3.883-2.316h-33.25v-78.625c0-1.818-.862-3.179-2.589-4.088-1.727-.907-3.814-1.362-6.268-1.362-2.452 0-4.543.455-6.268 1.362-1.728.909-2.589 2.27-2.589 4.088v88.575c0 1.723.771 3.091 2.315 4.089 1.544.998 3.36 1.496 5.45 1.496h43.197c1.636 0 2.93-.771 3.883-2.317.957-1.546 1.433-3.357 1.433-5.449zm82.306-20.168c0-5.541-1.09-10.38-3.271-14.513-2.181-4.132-4.883-7.289-8.106-9.47-3.227-2.182-6.724-4.199-10.494-6.063s-7.267-3.408-10.49-4.636c-3.227-1.228-5.929-2.816-8.11-4.769-2.181-1.951-3.268-4.247-3.268-6.883 0-3.268 1.338-5.832 4.019-7.695 2.68-1.863 6.473-2.795 11.377-2.795 4.451 0 8.495.865 12.129 2.588 3.633 1.727 5.862 2.587 6.676 2.587 2.181 0 3.907-1.079 5.183-3.237 1.268-2.163 1.907-4.256 1.907-6.277 0-2.147-.936-4.014-2.795-5.596-1.863-1.586-4.273-2.754-7.223-3.501-2.954-.745-5.744-1.281-8.38-1.61-2.636-.324-5.135-.489-7.497-.489-4.181 0-8.128.485-11.854 1.452a36.718 36.718 0 00-10.49 4.565c-3.271 2.073-5.885 4.979-7.837 8.713-1.955 3.733-2.929 8.044-2.929 12.931 0 4.361.793 8.246 2.384 11.65 1.588 3.408 3.68 6.133 6.268 8.177s5.448 3.886 8.583 5.519a131.152 131.152 0 009.337 4.433c3.087 1.315 5.93 2.677 8.518 4.085 2.587 1.408 4.676 3.182 6.269 5.314 1.586 2.133 2.381 4.565 2.381 7.29 0 3.907-1.453 6.86-4.358 8.86-2.909 1.996-6.539 2.994-10.9 2.994-3.18 0-6.089-.565-8.724-1.7-2.632-1.132-4.654-2.381-6.063-3.749a46.248 46.248 0 00-4.362-3.752c-1.497-1.135-2.839-1.699-4.018-1.699-2 0-3.795 1.068-5.382 3.205-1.592 2.133-2.387 4.242-2.387 6.335 0 4.177 3.089 8.036 9.266 11.581 6.181 3.545 13.581 5.315 22.216 5.315 9.718 0 17.551-2.532 23.502-7.593s8.923-12.252 8.923-21.567z"/></symbol></svg>